<?xml version="1.0" encoding="utf-8"?>
<!-- Generator: Adobe Illustrator 16.0.0, SVG Export Plug-In . SVG Version: 6.00 Build 0)  -->
<!DOCTYPE svg PUBLIC "-//W3C//DTD SVG 1.1//EN" "http://www.w3.org/Graphics/SVG/1.1/DTD/svg11.dtd">
<svg version="1.1" id="Layer_1" xmlns="http://www.w3.org/2000/svg" xmlns:xlink="http://www.w3.org/1999/xlink" x="0px" y="0px"
	 width="512px" height="512px" viewBox="0 0 512 512" enable-background="new 0 0 512 512" xml:space="preserve">
<g>
	<path d="M445.941,233.783c0,10.094-0.775,20.226-2.32,30.396c-1.549,10.174-3.826,19.859-6.836,29.053
		c-3.014,9.197-6.836,17.742-11.475,25.635c-4.639,7.896-10.051,14.77-16.234,20.629c-6.188,5.859-13.227,10.461-21.119,13.795
		c-7.896,3.338-16.562,5.004-26,5.004c-7.324,0-13.959-1.221-19.898-3.662c-5.943-2.441-11.027-5.695-15.258-9.766
		c-4.234-4.066-7.691-8.746-10.377-14.037c-2.686-5.287-4.516-10.781-5.492-16.48h-0.977c-2.93,6.023-6.592,11.719-10.986,17.09
		s-9.484,10.053-15.26,14.039c-5.779,3.99-12.291,7.121-19.531,9.398c-7.244,2.281-15.178,3.418-23.803,3.418
		c-12.535,0-23.645-2.277-33.326-6.836c-9.686-4.555-17.864-10.943-24.536-19.164c-6.676-8.217-11.761-18.105-15.259-29.664
		c-3.502-11.555-5.249-24.33-5.249-38.33c0-16.438,2.399-31.494,7.202-45.166c4.799-13.672,11.719-25.471,20.752-35.4
		c9.033-9.926,19.978-17.658,32.837-23.193c12.855-5.531,27.26-8.301,43.213-8.301c7.324,0,14.648,0.328,21.973,0.977
		c7.324,0.652,14.32,1.549,20.996,2.686c6.672,1.141,12.816,2.403,18.432,3.784c5.615,1.385,10.293,2.728,14.039,4.028
		l-5.615,101.562c-0.164,3.582-0.287,6.471-0.367,8.668c-0.084,2.197-0.121,3.947-0.121,5.248c0,1.305,0,2.281,0,2.93
		c0,0.652,0,1.221,0,1.709c0,8.629,0.854,15.709,2.562,21.24c1.709,5.535,3.945,9.93,6.715,13.184
		c2.766,3.258,5.896,5.494,9.398,6.715c3.498,1.221,7.119,1.83,10.865,1.83c7.484,0,14.076-2.479,19.775-7.445
		c5.695-4.963,10.455-11.678,14.281-20.143c3.822-8.461,6.715-18.391,8.668-29.785c1.953-11.391,2.93-23.438,2.93-36.133
		c0-23.109-3.502-43.659-10.498-61.646c-7-17.982-16.686-33.161-29.053-45.532c-12.371-12.367-27.062-21.767-44.068-28.198
		c-17.01-6.428-35.521-9.644-55.541-9.644c-27.508,0-51.758,4.517-72.754,13.55c-20.996,9.033-38.616,21.648-52.856,37.842
		c-14.244,16.197-25.024,35.4-32.349,57.617s-10.986,46.509-10.986,72.876c0,24.578,3.212,46.387,9.644,65.43
		c6.428,19.043,15.869,35.076,28.32,48.096c12.451,13.023,27.912,22.869,46.387,29.541c18.471,6.672,39.673,10.01,63.599,10.01
		c9.926,0,19.732-0.572,29.418-1.709c9.682-1.141,19.043-2.686,28.076-4.639s17.617-4.191,25.758-6.713
		c8.137-2.521,15.705-5.166,22.705-7.936v34.424c-14,6.184-29.785,11.066-47.363,14.648c-17.578,3.578-36.949,5.371-58.105,5.371
		c-29.137,0-55.138-4.15-78.003-12.451c-22.869-8.301-42.236-20.385-58.105-36.254s-27.954-35.236-36.255-58.105
		c-8.301-22.865-12.451-48.867-12.451-78.004c0-30.598,4.799-59.12,14.404-85.571c9.602-26.447,23.315-49.354,41.138-68.726
		c17.822-19.367,39.387-34.584,64.697-45.654c25.306-11.066,53.669-16.602,85.083-16.602c25.391,0,48.744,4.112,70.068,12.329
		c21.32,8.221,39.752,20.02,55.297,35.4c15.541,15.381,27.627,34.1,36.256,56.152C441.627,181.255,445.941,206.115,445.941,233.783z
		 M201.068,265.277c0,21.648,4.108,37.316,12.329,46.998c8.217,9.686,19.246,14.525,33.082,14.525c8.949,0,16.602-1.83,22.949-5.492
		s11.555-8.869,15.625-15.625c4.066-6.752,7.16-14.809,9.277-24.17c2.113-9.357,3.498-19.654,4.15-30.885l3.418-61.768
		c-4.559-1.301-9.973-2.479-16.236-3.54c-6.268-1.057-12.816-1.587-19.652-1.587c-12.047,0-22.18,2.361-30.396,7.08
		c-8.221,4.723-14.893,10.906-20.02,18.555c-5.127,7.652-8.831,16.357-11.108,26.123
		C202.205,245.258,201.068,255.188,201.068,265.277z" fill="white"/>
</g>
</svg>
