<?xml version="1.0" encoding="utf-8"?>
<!-- Generator: Adobe Illustrator 16.0.0, SVG Export Plug-In . SVG Version: 6.00 Build 0)  -->
<!DOCTYPE svg PUBLIC "-//W3C//DTD SVG 1.1//EN" "http://www.w3.org/Graphics/SVG/1.1/DTD/svg11.dtd">
<svg version="1.1" id="Layer_1" xmlns="http://www.w3.org/2000/svg" xmlns:xlink="http://www.w3.org/1999/xlink" x="0px" y="0px"
	 width="512px" height="512px" viewBox="0 0 512 512" enable-background="new 0 0 512 512" xml:space="preserve">
<rect x="9.746" y="256.006" display="none" width="492.509" height="255.994"/>
<path display="none" fill="#191717" d="M151.298,99.657c-8.343,0-15.109,6.765-15.109,15.111c0,6.674,4.329,12.338,10.334,14.336
	c0.755,0.138,1.031-0.329,1.031-0.729c0-0.359-0.013-1.309-0.021-2.57c-4.203,0.913-5.089-2.025-5.089-2.025
	c-0.687-1.746-1.678-2.21-1.678-2.21c-1.372-0.938,0.104-0.918,0.104-0.918c1.517,0.106,2.314,1.558,2.314,1.558
	c1.348,2.309,3.536,1.643,4.397,1.256c0.137-0.977,0.528-1.643,0.959-2.021c-3.355-0.381-6.882-1.678-6.882-7.468
	c0-1.649,0.589-2.998,1.556-4.054c-0.155-0.382-0.674-1.918,0.148-3.999c0,0,1.269-0.406,4.154,1.549
	c1.205-0.335,2.498-0.503,3.783-0.508c1.283,0.005,2.576,0.173,3.783,0.508c2.885-1.955,4.151-1.549,4.151-1.549
	c0.824,2.08,0.306,3.616,0.15,3.999c0.969,1.057,1.553,2.405,1.553,4.054c0,5.805-3.533,7.082-6.899,7.456
	c0.542,0.466,1.026,1.388,1.026,2.798c0,2.02-0.019,3.65-0.019,4.145c0,0.404,0.271,0.874,1.039,0.727
	c5.999-2.002,10.324-7.662,10.324-14.334C166.409,106.422,159.644,99.657,151.298,99.657z"/>
<g display="none">
	<path display="inline" fill="#191717" d="M334.956,54.198c-30.933,0-56.015,25.077-56.015,56.014
		c0,24.748,16.051,45.743,38.305,53.151c2.802,0.519,3.827-1.216,3.827-2.695c0-1.334-0.052-5.748-0.074-10.428
		c-15.585,3.388-18.873-6.609-18.873-6.609c-2.548-6.474-6.22-8.196-6.22-8.196c-5.082-3.477,0.384-3.405,0.384-3.405
		c5.624,0.395,8.587,5.773,8.587,5.773c4.997,8.562,13.104,6.087,16.3,4.657c0.502-3.62,1.953-6.091,3.556-7.49
		c-12.441-1.416-25.521-6.219-25.521-27.682c0-6.115,2.187-11.112,5.772-15.035c-0.582-1.411-2.499-7.108,0.542-14.824
		c0,0,4.704-1.504,15.407,5.743c4.466-1.241,9.258-1.863,14.02-1.886c4.761,0.021,9.556,0.644,14.032,1.886
		c10.689-7.247,15.389-5.743,15.389-5.743c3.049,7.716,1.132,13.413,0.55,14.824c3.592,3.922,5.765,8.919,5.765,15.035
		c0,21.514-13.104,26.251-25.576,27.638c2.009,1.738,3.801,5.147,3.801,10.373c0,7.495-0.063,13.526-0.063,15.371
		c0,1.491,1.008,3.237,3.846,2.688c22.242-7.415,38.274-28.404,38.274-53.144C390.97,79.275,365.891,54.198,334.956,54.198z"/>
	<path display="inline" fill="#191717" d="M300.158,134.621c-0.123,0.279-0.561,0.363-0.961,0.171
		c-0.406-0.183-0.634-0.562-0.502-0.841c0.122-0.287,0.561-0.366,0.965-0.174C300.066,133.958,300.299,134.341,300.158,134.621
		L300.158,134.621z"/>
	<path display="inline" fill="#191717" d="M302.428,137.152c-0.268,0.248-0.791,0.132-1.145-0.259
		c-0.367-0.391-0.434-0.913-0.164-1.164c0.275-0.248,0.783-0.132,1.148,0.259C302.635,136.383,302.706,136.9,302.428,137.152
		L302.428,137.152z"/>
	<path display="inline" fill="#191717" d="M304.635,140.377c-0.343,0.239-0.904,0.016-1.252-0.483
		c-0.343-0.498-0.343-1.096,0.008-1.334c0.348-0.24,0.901-0.023,1.253,0.47C304.986,139.536,304.986,140.134,304.635,140.377
		L304.635,140.377z"/>
	<path display="inline" fill="#191717" d="M307.661,143.495c-0.308,0.338-0.959,0.248-1.439-0.214
		c-0.49-0.451-0.626-1.093-0.319-1.431c0.312-0.339,0.969-0.244,1.449,0.214C307.84,142.514,307.988,143.159,307.661,143.495
		L307.661,143.495z"/>
	<path display="inline" fill="#191717" d="M311.835,145.304c-0.136,0.438-0.764,0.638-1.399,0.451
		c-0.635-0.192-1.049-0.706-0.921-1.148c0.134-0.442,0.765-0.649,1.405-0.45C311.551,144.348,311.967,144.857,311.835,145.304
		L311.835,145.304z"/>
	<path display="inline" fill="#191717" d="M316.42,145.639c0.016,0.462-0.521,0.845-1.188,0.854
		c-0.67,0.016-1.212-0.359-1.217-0.813c0-0.466,0.524-0.845,1.195-0.857C315.873,144.81,316.42,145.181,316.42,145.639
		L316.42,145.639z"/>
	<path display="inline" fill="#191717" d="M320.685,144.914c0.08,0.45-0.383,0.913-1.044,1.036c-0.649,0.12-1.253-0.16-1.334-0.606
		c-0.081-0.462,0.391-0.925,1.04-1.044C320.008,144.185,320.601,144.456,320.685,144.914L320.685,144.914z"/>
</g>
<g display="none">
	<g display="inline">
		
			<line fill="none" stroke="#1981BC" stroke-linecap="round" stroke-miterlimit="10" x1="218.352" y1="48.695" x2="218.352" y2="49.159"/>
		
			<line fill="none" stroke="#1981BC" stroke-linecap="round" stroke-miterlimit="10" stroke-dasharray="0.9999,1.9999" x1="218.352" y1="51.014" x2="218.352" y2="175.3"/>
		
			<line fill="none" stroke="#1981BC" stroke-linecap="round" stroke-miterlimit="10" x1="218.352" y1="176.228" x2="218.352" y2="176.692"/>
	</g>
</g>
<g display="none">
	<path display="inline" fill="#0072BC" d="M133.367,189.691c-0.353-0.256-0.803-0.384-1.352-0.384c-0.223,0-0.442,0.022-0.657,0.066
		c-0.215,0.045-0.406,0.12-0.573,0.223c-0.167,0.104-0.301,0.244-0.401,0.418s-0.15,0.392-0.15,0.65
		c0,0.245,0.073,0.444,0.217,0.596c0.145,0.152,0.337,0.277,0.579,0.372c0.241,0.097,0.514,0.176,0.818,0.24
		c0.304,0.062,0.614,0.132,0.929,0.205c0.315,0.074,0.625,0.162,0.93,0.263c0.304,0.099,0.577,0.235,0.818,0.406
		c0.241,0.17,0.434,0.386,0.579,0.645c0.145,0.261,0.217,0.587,0.217,0.98c0,0.423-0.095,0.785-0.284,1.085
		c-0.189,0.301-0.433,0.546-0.729,0.735c-0.297,0.189-0.629,0.328-0.997,0.412c-0.367,0.084-0.732,0.128-1.096,0.128
		c-0.445,0-0.866-0.056-1.263-0.167s-0.746-0.28-1.046-0.506c-0.301-0.227-0.538-0.517-0.712-0.869
		c-0.174-0.353-0.262-0.769-0.262-1.252h1.002c0,0.334,0.065,0.622,0.195,0.863c0.13,0.242,0.3,0.439,0.512,0.595
		s0.458,0.272,0.74,0.346c0.282,0.074,0.571,0.11,0.868,0.11c0.238,0,0.477-0.021,0.718-0.067c0.241-0.043,0.458-0.12,0.651-0.228
		c0.193-0.107,0.349-0.253,0.468-0.439c0.119-0.187,0.178-0.424,0.178-0.713c0-0.274-0.072-0.497-0.217-0.667
		c-0.145-0.171-0.338-0.31-0.579-0.417c-0.241-0.108-0.514-0.195-0.818-0.262s-0.614-0.135-0.929-0.207
		c-0.315-0.069-0.625-0.151-0.93-0.245c-0.304-0.093-0.578-0.214-0.818-0.367c-0.24-0.153-0.434-0.349-0.579-0.59
		c-0.145-0.241-0.217-0.543-0.217-0.908c0-0.401,0.082-0.748,0.245-1.041c0.164-0.292,0.38-0.533,0.651-0.723
		c0.271-0.188,0.579-0.33,0.924-0.422c0.345-0.093,0.699-0.139,1.063-0.139c0.408,0,0.787,0.049,1.135,0.145
		c0.349,0.095,0.655,0.249,0.918,0.456c0.263,0.208,0.471,0.47,0.623,0.785c0.152,0.315,0.236,0.692,0.25,1.13h-1.001
		C133.924,190.361,133.719,189.948,133.367,189.691z"/>
	<path display="inline" fill="#0072BC" d="M137.335,190.8v0.846h0.022c0.43-0.654,1.05-0.98,1.858-0.98
		c0.356,0,0.679,0.074,0.969,0.223c0.289,0.148,0.493,0.401,0.612,0.757c0.193-0.312,0.447-0.553,0.763-0.724
		c0.315-0.171,0.662-0.256,1.041-0.256c0.29,0,0.551,0.032,0.785,0.095c0.234,0.063,0.434,0.162,0.601,0.295
		c0.167,0.134,0.297,0.306,0.39,0.519c0.093,0.211,0.139,0.465,0.139,0.762v4.218h-0.946v-3.772c0-0.178-0.016-0.345-0.045-0.501
		s-0.085-0.291-0.167-0.406c-0.082-0.116-0.194-0.207-0.339-0.273c-0.145-0.067-0.332-0.1-0.562-0.1
		c-0.467,0-0.835,0.134-1.102,0.401s-0.4,0.624-0.4,1.069v3.583h-0.946v-3.772c0-0.186-0.017-0.356-0.05-0.512
		c-0.033-0.156-0.091-0.291-0.172-0.406c-0.082-0.115-0.191-0.204-0.329-0.267c-0.137-0.063-0.313-0.095-0.528-0.095
		c-0.275,0-0.51,0.056-0.707,0.167s-0.356,0.245-0.479,0.401s-0.211,0.317-0.267,0.484s-0.083,0.306-0.083,0.417v3.583h-0.946V190.8
		H137.335L137.335,190.8z"/>
	<path display="inline" fill="#0072BC" d="M150.358,196.677c-0.245,0-0.439-0.068-0.584-0.207c-0.145-0.136-0.217-0.362-0.217-0.673
		c-0.26,0.312-0.562,0.536-0.907,0.673c-0.345,0.137-0.718,0.207-1.119,0.207c-0.26,0-0.505-0.027-0.735-0.083
		c-0.23-0.058-0.432-0.148-0.606-0.279c-0.174-0.13-0.312-0.296-0.412-0.5c-0.101-0.205-0.15-0.451-0.15-0.741
		c0-0.327,0.056-0.594,0.167-0.8c0.111-0.209,0.258-0.377,0.439-0.507c0.182-0.13,0.39-0.229,0.624-0.295
		c0.233-0.065,0.473-0.121,0.718-0.167c0.26-0.052,0.506-0.091,0.74-0.116c0.234-0.026,0.439-0.063,0.618-0.112
		c0.178-0.047,0.319-0.118,0.423-0.212c0.104-0.094,0.156-0.228,0.156-0.406c0-0.207-0.039-0.374-0.117-0.5
		c-0.078-0.127-0.178-0.223-0.3-0.29c-0.123-0.066-0.26-0.111-0.412-0.134c-0.152-0.021-0.302-0.032-0.451-0.032
		c-0.401,0-0.735,0.076-1.002,0.228c-0.267,0.152-0.412,0.439-0.434,0.862h-0.946c0.015-0.356,0.089-0.656,0.223-0.902
		c0.133-0.245,0.312-0.443,0.534-0.595c0.223-0.151,0.479-0.262,0.768-0.329c0.289-0.066,0.593-0.099,0.913-0.099
		c0.26,0,0.518,0.019,0.773,0.057c0.256,0.036,0.488,0.112,0.696,0.228c0.208,0.114,0.375,0.276,0.501,0.483
		c0.126,0.208,0.189,0.479,0.189,0.812v2.961c0,0.223,0.013,0.386,0.039,0.489c0.026,0.104,0.113,0.156,0.262,0.156
		c0.082,0,0.178-0.019,0.289-0.056v0.734C150.873,196.628,150.647,196.677,150.358,196.677z M149.033,193.776
		c-0.193,0.042-0.395,0.074-0.606,0.1c-0.211,0.026-0.425,0.056-0.64,0.09c-0.215,0.032-0.408,0.087-0.579,0.161
		c-0.172,0.074-0.31,0.179-0.417,0.317c-0.107,0.137-0.162,0.325-0.162,0.561c0,0.156,0.032,0.289,0.095,0.395
		c0.063,0.109,0.145,0.196,0.245,0.263c0.1,0.066,0.219,0.114,0.356,0.144c0.137,0.03,0.276,0.045,0.417,0.045
		c0.312,0,0.579-0.042,0.801-0.128c0.223-0.085,0.405-0.193,0.545-0.324c0.141-0.129,0.245-0.27,0.312-0.422
		c0.066-0.152,0.1-0.295,0.1-0.429v-0.968C149.382,193.671,149.226,193.737,149.033,193.776z"/>
	<path display="inline" fill="#0072BC" d="M152.918,188.606v7.946h-0.946v-7.946H152.918z"/>
	<path display="inline" fill="#0072BC" d="M155.389,188.606v7.946h-0.946v-7.946H155.389z"/>
	<path display="inline" fill="#0072BC" d="M104.221,204.991v-0.835h0.968v-0.857c0-0.467,0.135-0.822,0.406-1.063
		s0.666-0.363,1.186-0.363c0.089,0,0.191,0.008,0.306,0.021c0.115,0.016,0.217,0.038,0.306,0.067v0.825
		c-0.082-0.03-0.171-0.051-0.268-0.062c-0.096-0.01-0.185-0.017-0.267-0.017c-0.23,0-0.408,0.044-0.534,0.134
		c-0.126,0.09-0.189,0.259-0.189,0.512v0.801h1.113v0.836h-1.113v4.92h-0.946v-4.92H104.221z"/>
	<path display="inline" fill="#0072BC" d="M107.961,205.854c0.119-0.368,0.297-0.686,0.534-0.958
		c0.238-0.27,0.531-0.483,0.879-0.639c0.349-0.156,0.75-0.233,1.202-0.233c0.46,0,0.863,0.078,1.208,0.233
		c0.345,0.156,0.637,0.369,0.874,0.639c0.237,0.272,0.416,0.591,0.534,0.958c0.119,0.367,0.178,0.762,0.178,1.185
		c0,0.422-0.06,0.816-0.178,1.179c-0.119,0.364-0.297,0.681-0.534,0.952s-0.529,0.483-0.874,0.635
		c-0.345,0.151-0.748,0.228-1.208,0.228c-0.453,0-0.854-0.076-1.202-0.228c-0.349-0.152-0.642-0.364-0.879-0.635
		c-0.237-0.271-0.416-0.588-0.534-0.952c-0.119-0.364-0.178-0.757-0.178-1.179C107.783,206.616,107.842,206.221,107.961,205.854z
		 M108.924,207.968c0.093,0.271,0.221,0.496,0.384,0.679c0.164,0.181,0.354,0.321,0.573,0.417c0.219,0.096,0.451,0.145,0.696,0.145
		c0.245,0,0.477-0.049,0.696-0.145c0.219-0.095,0.41-0.235,0.573-0.417c0.163-0.183,0.291-0.408,0.384-0.679s0.139-0.581,0.139-0.93
		c0-0.35-0.046-0.658-0.139-0.929c-0.093-0.272-0.221-0.499-0.384-0.685c-0.164-0.185-0.354-0.327-0.573-0.423
		c-0.219-0.097-0.451-0.145-0.696-0.145c-0.245,0-0.477,0.048-0.696,0.145c-0.219,0.096-0.41,0.238-0.573,0.423
		c-0.163,0.186-0.291,0.413-0.384,0.685c-0.093,0.271-0.139,0.58-0.139,0.929C108.785,207.388,108.831,207.697,108.924,207.968z"/>
	<path display="inline" fill="#0072BC" d="M115.341,204.156v1.213h0.022c0.23-0.467,0.512-0.812,0.846-1.034
		s0.757-0.327,1.269-0.312v1.001c-0.378,0-0.701,0.052-0.968,0.156c-0.267,0.103-0.483,0.255-0.646,0.457
		c-0.163,0.199-0.282,0.443-0.356,0.728c-0.074,0.287-0.111,0.614-0.111,0.985v2.56h-0.946v-5.755H115.341z"/>
	<path display="inline" fill="#0072BC" d="M123.587,209.911v-5.655h-2.048v-0.757c0.267,0,0.527-0.02,0.779-0.061
		c0.252-0.04,0.48-0.116,0.685-0.228c0.204-0.11,0.376-0.263,0.518-0.456c0.141-0.193,0.237-0.438,0.289-0.735h0.724v7.892
		L123.587,209.911L123.587,209.911z"/>
	<path display="inline" fill="#0072BC" d="M130.957,203.176c-0.23-0.215-0.534-0.323-0.913-0.323c-0.401,0-0.724,0.098-0.968,0.294
		c-0.245,0.197-0.436,0.444-0.573,0.746c-0.138,0.301-0.232,0.625-0.284,0.975c-0.052,0.348-0.082,0.675-0.089,0.979l0.022,0.022
		c0.222-0.365,0.499-0.627,0.829-0.792c0.33-0.164,0.71-0.246,1.141-0.246c0.378,0,0.718,0.065,1.019,0.196
		c0.301,0.13,0.553,0.31,0.757,0.54c0.204,0.23,0.362,0.5,0.473,0.812c0.111,0.312,0.167,0.65,0.167,1.014
		c0,0.29-0.044,0.59-0.134,0.902c-0.089,0.312-0.235,0.596-0.439,0.851c-0.204,0.256-0.475,0.468-0.812,0.635
		c-0.338,0.167-0.755,0.251-1.252,0.251c-0.586,0-1.057-0.119-1.414-0.356c-0.356-0.237-0.63-0.542-0.824-0.913
		c-0.193-0.37-0.321-0.779-0.384-1.225c-0.063-0.444-0.095-0.875-0.095-1.291c0-0.541,0.046-1.066,0.139-1.575
		c0.093-0.507,0.25-0.958,0.473-1.351c0.223-0.394,0.52-0.709,0.891-0.947c0.371-0.237,0.838-0.356,1.402-0.356
		c0.653,0,1.172,0.172,1.558,0.518c0.386,0.345,0.609,0.844,0.668,1.497h-0.946C131.324,203.676,131.187,203.393,130.957,203.176z
		 M129.243,205.809c-0.201,0.093-0.371,0.219-0.512,0.379c-0.141,0.159-0.247,0.349-0.317,0.566
		c-0.07,0.219-0.105,0.451-0.105,0.696c0,0.245,0.037,0.475,0.111,0.69c0.074,0.215,0.18,0.401,0.317,0.557s0.308,0.281,0.512,0.373
		c0.204,0.094,0.436,0.139,0.696,0.139s0.488-0.046,0.685-0.139c0.196-0.093,0.361-0.221,0.495-0.384
		c0.134-0.163,0.235-0.351,0.306-0.561c0.07-0.212,0.105-0.433,0.105-0.663c0-0.245-0.031-0.477-0.094-0.696
		c-0.063-0.218-0.162-0.407-0.295-0.567c-0.134-0.159-0.301-0.288-0.501-0.384c-0.201-0.096-0.434-0.145-0.701-0.145
		S129.443,205.717,129.243,205.809z"/>
	<path display="inline" fill="#0072BC" d="M134.641,204.156v0.78h0.022c0.156-0.32,0.401-0.552,0.735-0.696
		c0.333-0.145,0.701-0.217,1.102-0.217c0.445,0,0.833,0.082,1.163,0.245c0.331,0.164,0.605,0.384,0.824,0.663
		c0.219,0.278,0.384,0.599,0.496,0.962c0.111,0.365,0.167,0.75,0.167,1.158s-0.054,0.793-0.162,1.158
		c-0.107,0.365-0.271,0.681-0.49,0.951c-0.219,0.272-0.493,0.484-0.824,0.64c-0.33,0.156-0.715,0.233-1.152,0.233
		c-0.141,0-0.299-0.016-0.473-0.044c-0.174-0.029-0.347-0.078-0.518-0.145c-0.17-0.067-0.332-0.158-0.484-0.273
		c-0.152-0.115-0.28-0.258-0.384-0.428h-0.022v2.96h-0.946v-7.947H134.641z M138.042,206.198c-0.071-0.255-0.178-0.483-0.323-0.685
		c-0.145-0.2-0.33-0.36-0.556-0.479c-0.227-0.119-0.492-0.178-0.796-0.178c-0.319,0-0.59,0.063-0.812,0.189
		c-0.223,0.127-0.405,0.291-0.545,0.495c-0.141,0.204-0.243,0.436-0.306,0.696s-0.095,0.522-0.095,0.791
		c0,0.282,0.033,0.555,0.1,0.817c0.067,0.264,0.173,0.496,0.317,0.696c0.145,0.201,0.332,0.363,0.562,0.484
		c0.23,0.123,0.508,0.184,0.835,0.184c0.326,0,0.599-0.063,0.818-0.189s0.395-0.292,0.529-0.501c0.134-0.208,0.23-0.444,0.29-0.712
		c0.059-0.268,0.089-0.542,0.089-0.825C138.147,206.717,138.112,206.455,138.042,206.198z"/>
	<path display="inline" fill="#0072BC" d="M139.805,204.156h1.213l1.38,2.015l1.436-2.015h1.135l-1.981,2.649l2.226,3.105h-1.213
		l-1.603-2.382l-1.603,2.382h-1.146l2.159-3.028L139.805,204.156z"/>
	<path display="inline" fill="#0072BC" d="M149.088,206.371v0.891h-3.217v-0.891H149.088z"/>
	<path display="inline" fill="#0072BC" d="M152.661,209.911v-5.655h-2.048v-0.757c0.267,0,0.527-0.02,0.779-0.061
		c0.252-0.04,0.48-0.116,0.685-0.228c0.204-0.11,0.376-0.263,0.518-0.456s0.237-0.438,0.29-0.735h0.723v7.892L152.661,209.911
		L152.661,209.911z"/>
	<path display="inline" fill="#0072BC" d="M156.445,203.7c0.104-0.342,0.266-0.637,0.484-0.886c0.219-0.249,0.492-0.443,0.818-0.583
		c0.327-0.141,0.698-0.213,1.113-0.213c0.341,0,0.662,0.05,0.963,0.15c0.3,0.1,0.562,0.245,0.785,0.434
		c0.223,0.189,0.399,0.425,0.529,0.707c0.13,0.282,0.195,0.608,0.195,0.979c0,0.35-0.054,0.658-0.162,0.924
		c-0.107,0.268-0.25,0.507-0.429,0.718c-0.178,0.21-0.382,0.404-0.612,0.573c-0.23,0.17-0.468,0.333-0.712,0.489
		c-0.245,0.148-0.49,0.295-0.735,0.441c-0.245,0.145-0.469,0.298-0.673,0.462c-0.204,0.163-0.378,0.338-0.523,0.528
		c-0.145,0.188-0.239,0.407-0.284,0.65h4.052v0.835h-5.153c0.037-0.468,0.121-0.867,0.25-1.197c0.129-0.33,0.295-0.618,0.495-0.863
		c0.2-0.245,0.427-0.459,0.679-0.645c0.251-0.185,0.516-0.36,0.791-0.522c0.334-0.208,0.627-0.399,0.879-0.572
		c0.252-0.174,0.462-0.352,0.629-0.529s0.293-0.371,0.378-0.579c0.085-0.208,0.128-0.448,0.128-0.724
		c0-0.214-0.041-0.409-0.123-0.584c-0.082-0.174-0.191-0.325-0.328-0.45c-0.137-0.127-0.299-0.223-0.484-0.29
		s-0.382-0.099-0.59-0.099c-0.274,0-0.51,0.058-0.707,0.172c-0.196,0.115-0.358,0.265-0.484,0.451
		c-0.126,0.185-0.217,0.396-0.273,0.629c-0.056,0.234-0.08,0.47-0.072,0.707h-0.946C156.301,204.412,156.342,204.041,156.445,203.7z
		"/>
	<path display="inline" fill="#0072BC" d="M162.512,205.135c0.015-0.312,0.052-0.616,0.111-0.912s0.145-0.579,0.256-0.846
		c0.111-0.268,0.264-0.501,0.457-0.702c0.193-0.2,0.436-0.36,0.729-0.479c0.293-0.118,0.644-0.177,1.052-0.177
		s0.759,0.06,1.052,0.177c0.293,0.12,0.536,0.279,0.729,0.479c0.193,0.201,0.345,0.434,0.456,0.702
		c0.111,0.267,0.197,0.55,0.256,0.846c0.06,0.296,0.097,0.6,0.111,0.912c0.015,0.312,0.022,0.612,0.022,0.903
		c0,0.29-0.007,0.59-0.022,0.901c-0.015,0.312-0.052,0.616-0.111,0.912c-0.059,0.296-0.145,0.578-0.256,0.84
		c-0.111,0.264-0.263,0.496-0.456,0.695c-0.193,0.202-0.435,0.359-0.724,0.473c-0.29,0.116-0.642,0.173-1.058,0.173
		c-0.408,0-0.759-0.057-1.052-0.173c-0.293-0.114-0.536-0.271-0.729-0.473c-0.193-0.199-0.345-0.431-0.457-0.695
		c-0.111-0.263-0.196-0.544-0.256-0.84c-0.06-0.296-0.097-0.601-0.111-0.912s-0.022-0.611-0.022-0.901
		C162.489,205.748,162.497,205.447,162.512,205.135z M163.519,207.023c0.019,0.367,0.078,0.712,0.178,1.034s0.261,0.597,0.484,0.818
		c0.223,0.223,0.535,0.333,0.935,0.333c0.401,0,0.712-0.111,0.935-0.333c0.223-0.222,0.384-0.496,0.484-0.818
		c0.1-0.323,0.159-0.668,0.178-1.034c0.019-0.367,0.028-0.7,0.028-0.996c0-0.194-0.001-0.406-0.005-0.64s-0.022-0.467-0.056-0.701
		c-0.033-0.235-0.082-0.462-0.145-0.685c-0.063-0.222-0.156-0.417-0.278-0.584s-0.276-0.302-0.462-0.406s-0.412-0.156-0.679-0.156
		s-0.493,0.052-0.679,0.156c-0.186,0.103-0.34,0.239-0.462,0.406c-0.123,0.167-0.215,0.363-0.278,0.584
		c-0.063,0.223-0.111,0.45-0.145,0.685c-0.033,0.234-0.052,0.467-0.056,0.701c-0.003,0.234-0.005,0.446-0.005,0.64
		C163.491,206.323,163.5,206.655,163.519,207.023z"/>
	<path display="inline" fill="#0072BC" d="M169.903,204.156v0.78h0.022c0.156-0.32,0.4-0.552,0.734-0.696
		c0.334-0.145,0.701-0.217,1.102-0.217c0.445,0,0.833,0.082,1.163,0.245c0.331,0.164,0.605,0.384,0.824,0.663
		c0.219,0.278,0.384,0.599,0.496,0.962c0.111,0.365,0.167,0.75,0.167,1.158s-0.054,0.793-0.161,1.158
		c-0.107,0.365-0.271,0.681-0.49,0.951c-0.219,0.272-0.494,0.484-0.824,0.64s-0.715,0.233-1.152,0.233
		c-0.141,0-0.299-0.016-0.473-0.044c-0.174-0.029-0.347-0.078-0.518-0.145c-0.171-0.067-0.332-0.158-0.484-0.273
		c-0.152-0.115-0.28-0.258-0.384-0.428h-0.022v2.96h-0.946v-7.947H169.903z M173.304,206.198c-0.07-0.255-0.178-0.483-0.323-0.685
		c-0.145-0.2-0.33-0.36-0.557-0.479c-0.226-0.119-0.491-0.178-0.795-0.178c-0.319,0-0.59,0.063-0.813,0.189
		c-0.222,0.127-0.404,0.291-0.545,0.495c-0.141,0.204-0.243,0.436-0.306,0.696c-0.063,0.26-0.095,0.522-0.095,0.791
		c0,0.282,0.033,0.555,0.1,0.817c0.067,0.264,0.172,0.496,0.317,0.696c0.145,0.201,0.332,0.363,0.562,0.484
		c0.23,0.123,0.508,0.184,0.835,0.184c0.326,0,0.599-0.063,0.818-0.189s0.395-0.292,0.529-0.501c0.133-0.208,0.23-0.444,0.289-0.712
		c0.06-0.268,0.089-0.542,0.089-0.825C173.409,206.717,173.374,206.455,173.304,206.198z"/>
	<path display="inline" fill="#0072BC" d="M175.067,204.156h1.213l1.38,2.015l1.436-2.015h1.135l-1.981,2.649l2.226,3.105h-1.213
		l-1.603-2.382l-1.603,2.382h-1.146l2.16-3.028L175.067,204.156z"/>
</g>
<g display="none">
	<path display="inline" fill="#0072BC" d="M321.065,188.605v7.056h4.207v0.892h-5.265v-7.947H321.065z"/>
	<path display="inline" fill="#0072BC" d="M330.459,196.675c-0.244,0-0.44-0.068-0.585-0.205c-0.144-0.137-0.216-0.363-0.216-0.674
		c-0.258,0.312-0.561,0.536-0.907,0.674c-0.346,0.136-0.718,0.205-1.12,0.205c-0.259,0-0.503-0.027-0.733-0.083
		c-0.229-0.056-0.433-0.148-0.606-0.277c-0.175-0.131-0.312-0.297-0.409-0.502c-0.101-0.204-0.15-0.451-0.15-0.74
		c0-0.327,0.056-0.594,0.167-0.801c0.11-0.208,0.257-0.376,0.441-0.505c0.18-0.131,0.39-0.229,0.624-0.295
		c0.233-0.066,0.474-0.123,0.716-0.167c0.259-0.053,0.506-0.092,0.74-0.118c0.235-0.025,0.441-0.062,0.617-0.11
		c0.179-0.049,0.321-0.12,0.423-0.212c0.104-0.093,0.156-0.228,0.156-0.406c0-0.208-0.039-0.375-0.117-0.502
		c-0.077-0.125-0.176-0.222-0.298-0.289c-0.125-0.066-0.26-0.111-0.412-0.134c-0.152-0.022-0.303-0.034-0.45-0.034
		c-0.401,0-0.734,0.077-1.002,0.228c-0.266,0.152-0.409,0.441-0.434,0.864h-0.947c0.016-0.356,0.09-0.657,0.221-0.902
		c0.135-0.245,0.312-0.444,0.533-0.596c0.223-0.152,0.481-0.261,0.769-0.329c0.289-0.066,0.596-0.1,0.912-0.1
		c0.258,0,0.519,0.02,0.774,0.057c0.254,0.038,0.485,0.114,0.695,0.228c0.209,0.116,0.374,0.277,0.501,0.484
		c0.126,0.207,0.189,0.479,0.189,0.812v2.96c0,0.223,0.013,0.386,0.039,0.491c0.023,0.103,0.112,0.156,0.259,0.156
		c0.084,0,0.178-0.02,0.29-0.057v0.735C330.975,196.628,330.75,196.675,330.459,196.675z M329.135,193.776
		c-0.193,0.041-0.396,0.074-0.606,0.1c-0.213,0.026-0.426,0.056-0.639,0.089c-0.214,0.034-0.407,0.088-0.578,0.161
		c-0.173,0.074-0.31,0.181-0.417,0.318c-0.108,0.136-0.161,0.326-0.161,0.562c0,0.156,0.03,0.288,0.095,0.395
		c0.062,0.107,0.145,0.194,0.246,0.261c0.099,0.067,0.218,0.116,0.357,0.145c0.136,0.029,0.275,0.045,0.417,0.045
		c0.312,0,0.578-0.044,0.799-0.129c0.222-0.085,0.406-0.193,0.548-0.323c0.138-0.13,0.246-0.271,0.312-0.424
		c0.063-0.151,0.099-0.294,0.099-0.427v-0.969C329.482,193.67,329.328,193.735,329.135,193.776z"/>
	<path display="inline" fill="#0072BC" d="M332.875,190.798v1.214h0.02c0.229-0.467,0.515-0.812,0.846-1.035
		c0.334-0.222,0.757-0.327,1.27-0.312v1.001c-0.378,0-0.701,0.052-0.969,0.156c-0.267,0.104-0.483,0.256-0.645,0.456
		c-0.163,0.201-0.283,0.443-0.357,0.729s-0.11,0.614-0.11,0.985v2.56h-0.947v-5.756H332.875z"/>
	<path display="inline" fill="#0072BC" d="M339.731,198.179c-0.432,0.467-1.104,0.701-2.026,0.701c-0.268,0-0.539-0.03-0.818-0.089
		c-0.28-0.06-0.531-0.156-0.757-0.29c-0.227-0.133-0.413-0.308-0.562-0.523c-0.146-0.215-0.229-0.479-0.245-0.791h0.947
		c0.008,0.171,0.06,0.315,0.161,0.434c0.099,0.119,0.223,0.214,0.367,0.29c0.146,0.075,0.303,0.129,0.476,0.162
		c0.171,0.034,0.331,0.05,0.486,0.05c0.312,0,0.576-0.055,0.792-0.162c0.213-0.107,0.395-0.255,0.533-0.445
		c0.14-0.188,0.244-0.417,0.306-0.685c0.062-0.267,0.097-0.561,0.097-0.878v-0.378h-0.022c-0.164,0.357-0.408,0.618-0.74,0.785
		c-0.328,0.167-0.68,0.251-1.053,0.251c-0.431,0-0.804-0.078-1.123-0.234c-0.321-0.156-0.587-0.366-0.803-0.63
		c-0.212-0.263-0.376-0.57-0.483-0.924c-0.107-0.352-0.163-0.725-0.163-1.118c0-0.341,0.047-0.692,0.136-1.053
		c0.089-0.359,0.237-0.686,0.444-0.979c0.21-0.292,0.483-0.534,0.825-0.724c0.341-0.188,0.759-0.284,1.256-0.284
		c0.367,0,0.698,0.081,1.002,0.24c0.305,0.159,0.542,0.399,0.715,0.717h0.013V190.8h0.89v5.266
		C340.377,197.005,340.161,197.711,339.731,198.179z M338.523,195.59c0.219-0.129,0.396-0.3,0.529-0.511
		c0.134-0.212,0.231-0.451,0.293-0.718s0.096-0.534,0.096-0.801c0-0.251-0.028-0.501-0.091-0.747
		c-0.058-0.245-0.153-0.466-0.284-0.662c-0.13-0.197-0.299-0.355-0.506-0.473c-0.21-0.12-0.46-0.179-0.757-0.179
		c-0.304,0-0.562,0.057-0.779,0.173c-0.213,0.115-0.392,0.269-0.528,0.462c-0.136,0.193-0.237,0.416-0.299,0.668
		c-0.063,0.252-0.097,0.517-0.097,0.791c0,0.26,0.025,0.52,0.078,0.779c0.054,0.26,0.141,0.495,0.267,0.708
		c0.127,0.211,0.293,0.382,0.501,0.511c0.208,0.131,0.468,0.196,0.779,0.196S338.304,195.72,338.523,195.59z"/>
	<path display="inline" fill="#0072BC" d="M345.875,196.186c-0.431,0.326-0.973,0.489-1.626,0.489c-0.46,0-0.858-0.074-1.195-0.222
		c-0.339-0.148-0.622-0.356-0.852-0.624s-0.403-0.586-0.519-0.957s-0.18-0.775-0.194-1.214c0-0.437,0.063-0.837,0.2-1.201
		c0.135-0.365,0.321-0.679,0.561-0.947c0.242-0.268,0.526-0.475,0.859-0.624c0.328-0.148,0.689-0.223,1.085-0.223
		c0.513,0,0.938,0.106,1.274,0.318c0.335,0.211,0.607,0.48,0.812,0.806c0.204,0.327,0.346,0.683,0.424,1.068
		c0.077,0.386,0.106,0.753,0.094,1.102h-4.307c-0.011,0.252,0.02,0.491,0.089,0.718c0.068,0.226,0.174,0.427,0.323,0.6
		c0.147,0.174,0.337,0.313,0.566,0.418c0.23,0.103,0.501,0.156,0.813,0.156c0.401,0,0.729-0.094,0.984-0.279
		c0.257-0.185,0.426-0.467,0.51-0.846h0.935C346.583,195.373,346.306,195.86,345.875,196.186z M345.646,192.49
		c-0.086-0.201-0.199-0.373-0.345-0.518c-0.143-0.145-0.315-0.26-0.513-0.345c-0.196-0.085-0.412-0.129-0.65-0.129
		c-0.245,0-0.466,0.043-0.663,0.129c-0.196,0.085-0.366,0.203-0.506,0.351c-0.141,0.148-0.253,0.322-0.334,0.518
		c-0.082,0.198-0.13,0.406-0.143,0.63h3.305C345.782,192.902,345.731,192.691,345.646,192.49z"/>
	<path display="inline" fill="#0072BC" d="M348.636,190.798v1.214h0.02c0.23-0.467,0.513-0.812,0.846-1.035
		c0.333-0.222,0.757-0.327,1.27-0.312v1.001c-0.379,0-0.701,0.052-0.969,0.156c-0.267,0.104-0.483,0.256-0.646,0.456
		c-0.162,0.201-0.282,0.443-0.356,0.729s-0.111,0.614-0.111,0.985v2.56h-0.947v-5.756H348.636z"/>
	<path display="inline" fill="#0072BC" d="M304.947,204.991v-0.835h0.969v-0.857c0-0.467,0.136-0.823,0.406-1.063
		c0.271-0.241,0.665-0.362,1.183-0.362c0.091,0,0.191,0.008,0.307,0.022c0.114,0.014,0.217,0.036,0.306,0.067v0.823
		c-0.082-0.029-0.171-0.049-0.268-0.061c-0.096-0.011-0.186-0.018-0.267-0.018c-0.23,0-0.406,0.045-0.532,0.134
		c-0.128,0.089-0.188,0.26-0.188,0.513v0.8h1.11v0.835h-1.11v4.92h-0.947v-4.92H304.947z"/>
	<path display="inline" fill="#0072BC" d="M308.688,205.853c0.12-0.367,0.297-0.687,0.534-0.957
		c0.237-0.271,0.529-0.485,0.878-0.641c0.351-0.156,0.751-0.233,1.204-0.233c0.46,0,0.862,0.078,1.208,0.233
		c0.345,0.156,0.637,0.37,0.871,0.641c0.239,0.27,0.415,0.589,0.534,0.957c0.119,0.367,0.178,0.762,0.178,1.185
		c0,0.424-0.059,0.817-0.178,1.18c-0.119,0.364-0.295,0.681-0.534,0.952c-0.237,0.271-0.526,0.482-0.871,0.634
		c-0.346,0.152-0.748,0.229-1.208,0.229c-0.453,0-0.854-0.076-1.204-0.229c-0.348-0.152-0.641-0.363-0.878-0.634
		s-0.414-0.589-0.534-0.952c-0.117-0.364-0.177-0.756-0.177-1.18C308.51,206.615,308.57,206.221,308.688,205.853z M309.651,207.966
		c0.093,0.272,0.22,0.498,0.384,0.679c0.164,0.182,0.354,0.321,0.572,0.417c0.218,0.097,0.449,0.145,0.696,0.145
		c0.245,0,0.477-0.048,0.695-0.145c0.217-0.096,0.407-0.235,0.571-0.417c0.165-0.181,0.29-0.407,0.384-0.679
		c0.096-0.27,0.139-0.58,0.139-0.929c0-0.348-0.046-0.658-0.139-0.93c-0.094-0.27-0.219-0.498-0.384-0.684
		c-0.164-0.186-0.354-0.327-0.571-0.423c-0.219-0.096-0.45-0.145-0.695-0.145c-0.247,0-0.479,0.049-0.696,0.145
		c-0.219,0.096-0.408,0.237-0.572,0.423s-0.291,0.414-0.384,0.684c-0.096,0.272-0.139,0.582-0.139,0.93
		C309.512,207.387,309.558,207.696,309.651,207.966z"/>
	<path display="inline" fill="#0072BC" d="M316.068,204.155v1.214h0.02c0.229-0.467,0.515-0.813,0.846-1.036
		c0.333-0.222,0.757-0.327,1.27-0.312v1.001c-0.379,0-0.702,0.053-0.969,0.156c-0.268,0.104-0.483,0.256-0.646,0.456
		c-0.163,0.201-0.282,0.444-0.356,0.73c-0.074,0.285-0.111,0.613-0.111,0.985v2.56h-0.947v-5.755L316.068,204.155L316.068,204.155z"
		/>
	<path display="inline" fill="#0072BC" d="M324.314,209.91v-5.655h-2.047v-0.756c0.266,0,0.525-0.02,0.778-0.06
		c0.252-0.042,0.482-0.118,0.685-0.228c0.203-0.112,0.376-0.264,0.52-0.457c0.139-0.193,0.237-0.439,0.29-0.735h0.724v7.892
		L324.314,209.91L324.314,209.91z"/>
	<path display="inline" fill="#0072BC" d="M328.1,203.699c0.104-0.34,0.266-0.636,0.484-0.884c0.216-0.25,0.488-0.444,0.817-0.585
		c0.327-0.14,0.697-0.211,1.113-0.211c0.341,0,0.662,0.05,0.962,0.149c0.299,0.102,0.561,0.246,0.785,0.435
		c0.223,0.189,0.399,0.425,0.528,0.707c0.131,0.283,0.196,0.608,0.196,0.98c0,0.348-0.057,0.656-0.164,0.924
		c-0.106,0.266-0.252,0.505-0.429,0.717c-0.176,0.211-0.382,0.403-0.61,0.573c-0.23,0.171-0.47,0.334-0.715,0.49
		c-0.244,0.148-0.489,0.294-0.735,0.44c-0.245,0.144-0.469,0.298-0.672,0.462c-0.207,0.163-0.379,0.339-0.523,0.528
		c-0.145,0.19-0.239,0.406-0.285,0.652h4.053v0.834h-5.156c0.037-0.468,0.121-0.867,0.251-1.197
		c0.131-0.328,0.294-0.618,0.494-0.862c0.202-0.245,0.428-0.46,0.679-0.646c0.251-0.186,0.516-0.36,0.79-0.521
		c0.334-0.209,0.63-0.4,0.88-0.574c0.251-0.174,0.462-0.35,0.63-0.528s0.292-0.37,0.377-0.579c0.086-0.209,0.131-0.449,0.131-0.723
		c0-0.215-0.042-0.411-0.125-0.585c-0.082-0.174-0.189-0.325-0.328-0.451c-0.138-0.125-0.299-0.223-0.484-0.29
		c-0.184-0.066-0.381-0.1-0.59-0.1c-0.275,0-0.512,0.058-0.707,0.173c-0.197,0.115-0.359,0.266-0.484,0.45
		c-0.126,0.187-0.214,0.396-0.272,0.63c-0.057,0.233-0.08,0.469-0.072,0.707h-0.946C327.955,204.411,327.996,204.04,328.1,203.699z"
		/>
	<path display="inline" fill="#0072BC" d="M334.166,205.135c0.017-0.312,0.052-0.616,0.11-0.913c0.06-0.297,0.145-0.579,0.256-0.846
		c0.109-0.268,0.262-0.501,0.454-0.701c0.193-0.202,0.438-0.361,0.729-0.479c0.293-0.12,0.643-0.178,1.054-0.178
		c0.407,0,0.756,0.059,1.052,0.178c0.291,0.118,0.536,0.277,0.729,0.479c0.192,0.2,0.345,0.434,0.454,0.701
		c0.111,0.267,0.198,0.549,0.256,0.846c0.059,0.297,0.097,0.601,0.11,0.913c0.016,0.312,0.021,0.612,0.021,0.902
		c0,0.289-0.007,0.59-0.021,0.901c-0.013,0.312-0.052,0.616-0.11,0.913c-0.058,0.297-0.145,0.577-0.256,0.84
		c-0.109,0.263-0.262,0.495-0.454,0.696c-0.193,0.2-0.437,0.358-0.724,0.473c-0.29,0.114-0.642,0.172-1.058,0.172
		c-0.408,0-0.758-0.057-1.054-0.172c-0.291-0.115-0.536-0.273-0.729-0.473c-0.192-0.201-0.345-0.433-0.454-0.696
		c-0.111-0.263-0.196-0.543-0.256-0.84c-0.059-0.296-0.097-0.601-0.11-0.913c-0.016-0.312-0.021-0.612-0.021-0.901
		C334.146,205.748,334.151,205.447,334.166,205.135z M335.173,207.021c0.02,0.368,0.078,0.712,0.178,1.035
		c0.099,0.324,0.262,0.596,0.483,0.818s0.533,0.334,0.937,0.334c0.401,0,0.713-0.111,0.936-0.334
		c0.222-0.223,0.384-0.495,0.483-0.818s0.16-0.667,0.178-1.035c0.018-0.367,0.027-0.699,0.027-0.996
		c0-0.192-0.003-0.406-0.007-0.639c-0.005-0.233-0.021-0.467-0.056-0.701s-0.082-0.462-0.146-0.685
		c-0.061-0.223-0.155-0.417-0.278-0.584c-0.122-0.167-0.276-0.301-0.463-0.406c-0.184-0.103-0.41-0.156-0.676-0.156
		c-0.268,0-0.493,0.053-0.678,0.156c-0.187,0.105-0.341,0.239-0.462,0.406c-0.124,0.168-0.216,0.362-0.279,0.584
		c-0.064,0.223-0.11,0.451-0.145,0.685c-0.033,0.234-0.052,0.468-0.056,0.701c-0.004,0.234-0.007,0.447-0.007,0.639
		C335.145,206.322,335.154,206.654,335.173,207.021z"/>
	<path display="inline" fill="#0072BC" d="M341.557,204.155v0.779h0.022c0.155-0.319,0.4-0.551,0.733-0.696
		c0.334-0.145,0.701-0.217,1.103-0.217c0.444,0,0.831,0.083,1.165,0.246c0.328,0.165,0.602,0.384,0.823,0.663
		c0.217,0.279,0.384,0.599,0.495,0.962c0.111,0.364,0.168,0.75,0.168,1.158s-0.055,0.794-0.162,1.158s-0.271,0.68-0.49,0.952
		c-0.217,0.27-0.492,0.483-0.822,0.639c-0.331,0.156-0.715,0.234-1.152,0.234c-0.141,0-0.299-0.015-0.474-0.045
		c-0.176-0.029-0.347-0.078-0.52-0.144c-0.171-0.067-0.33-0.158-0.483-0.273c-0.152-0.114-0.281-0.257-0.384-0.429h-0.022v2.961
		h-0.947v-7.948H341.557z M344.957,206.197c-0.068-0.256-0.176-0.484-0.323-0.685c-0.147-0.2-0.33-0.36-0.557-0.479
		c-0.228-0.119-0.492-0.178-0.795-0.178c-0.32,0-0.591,0.063-0.813,0.189s-0.406,0.291-0.546,0.495
		c-0.141,0.205-0.243,0.437-0.306,0.696c-0.063,0.26-0.097,0.523-0.097,0.791c0,0.283,0.033,0.555,0.1,0.819
		c0.066,0.263,0.174,0.494,0.317,0.696c0.145,0.2,0.332,0.362,0.562,0.483c0.229,0.124,0.508,0.184,0.832,0.184
		c0.328,0,0.6-0.062,0.82-0.189c0.217-0.126,0.395-0.293,0.526-0.501c0.136-0.208,0.23-0.444,0.29-0.713
		c0.057-0.266,0.09-0.542,0.09-0.822C345.062,206.715,345.026,206.455,344.957,206.197z"/>
	<path display="inline" fill="#0072BC" d="M346.721,204.155h1.214l1.379,2.015l1.437-2.015h1.138l-1.983,2.648l2.226,3.106h-1.214
		l-1.604-2.381l-1.604,2.381h-1.146l2.159-3.029L346.721,204.155z"/>
	<path display="inline" fill="#0072BC" d="M361.47,206.715v0.757h-2.427v2.438h-0.756v-2.438h-2.425v-0.757h2.425v-2.437h0.756
		v2.437H361.47z"/>
</g>
<path display="none" fill="#FFFFFF" d="M151.298,355.664c-8.343,0-15.109,6.764-15.109,15.11c0,6.673,4.329,12.339,10.334,14.337
	c0.755,0.136,1.031-0.329,1.031-0.729c0-0.361-0.013-1.309-0.021-2.57c-4.203,0.912-5.089-2.025-5.089-2.025
	c-0.687-1.746-1.678-2.211-1.678-2.211c-1.372-0.939,0.104-0.918,0.104-0.918c1.517,0.106,2.314,1.557,2.314,1.557
	c1.348,2.309,3.536,1.643,4.397,1.256c0.137-0.979,0.528-1.643,0.959-2.021c-3.355-0.381-6.882-1.678-6.882-7.468
	c0-1.649,0.589-2.997,1.556-4.055c-0.155-0.381-0.674-1.917,0.148-3.999c0,0,1.269-0.406,4.154,1.55
	c1.205-0.335,2.498-0.504,3.783-0.511c1.283,0.007,2.576,0.175,3.783,0.511c2.885-1.956,4.151-1.55,4.151-1.55
	c0.824,2.079,0.306,3.615,0.15,3.999c0.969,1.058,1.553,2.405,1.553,4.055c0,5.805-3.533,7.082-6.899,7.456
	c0.542,0.467,1.026,1.389,1.026,2.798c0,2.022-0.019,3.651-0.019,4.147c0,0.404,0.271,0.871,1.039,0.725
	c5.999-2,10.324-7.662,10.324-14.333C166.409,362.428,159.644,355.664,151.298,355.664z"/>
<g>
	<path fill="#FFFFFF" d="M255.997,0.996C115.719,0.996,1.963,114.726,1.963,255.03c0,112.239,72.789,207.464,173.726,241.056
		c12.693,2.35,17.357-5.514,17.357-12.221c0-6.057-0.233-26.07-0.345-47.294c-70.673,15.366-85.584-29.976-85.584-29.976
		c-11.557-29.36-28.206-37.172-28.206-37.172c-23.051-15.767,1.738-15.442,1.738-15.442c25.508,1.791,38.941,26.18,38.941,26.18
		c22.657,38.837,59.428,27.607,73.927,21.116c2.28-16.416,8.862-27.624,16.13-33.969c-56.428-6.421-115.745-28.21-115.745-125.546
		c0-27.733,9.925-50.394,26.178-68.186c-2.639-6.402-11.335-32.237,2.461-67.23c0,0,21.332-6.825,69.875,26.042
		c20.267-5.627,41.997-8.45,63.585-8.55c21.591,0.099,43.337,2.923,63.642,8.55c48.485-32.866,69.789-26.042,69.789-26.042
		c13.827,34.994,5.129,60.828,2.49,67.23c16.291,17.792,26.146,40.453,26.146,68.186c0,97.573-59.426,119.055-115.995,125.34
		c9.108,7.887,17.228,23.347,17.228,47.045c0,33.992-0.293,61.347-0.293,69.718c0,6.762,4.568,14.68,17.447,12.189
		c100.885-33.632,173.581-128.82,173.581-241.024C510.035,114.726,396.298,0.996,255.997,0.996z"/>
	<path fill="#FFFFFF" d="M98.18,365.73c-0.557,1.271-2.547,1.647-4.354,0.777c-1.844-0.828-2.874-2.551-2.279-3.816
		c0.546-1.298,2.534-1.658,4.375-0.793C97.769,362.727,98.818,364.47,98.18,365.73L98.18,365.73z"/>
	<path fill="#FFFFFF" d="M108.472,377.211c-1.212,1.123-3.583,0.6-5.188-1.173c-1.665-1.774-1.972-4.143-0.746-5.281
		c1.25-1.124,3.547-0.599,5.21,1.175C109.411,373.724,109.737,376.072,108.472,377.211L108.472,377.211z"/>
	<path fill="#FFFFFF" d="M118.487,391.842c-1.557,1.082-4.104,0.067-5.678-2.19c-1.556-2.259-1.556-4.971,0.037-6.056
		c1.573-1.084,4.083-0.107,5.677,2.13C120.078,388.024,120.078,390.733,118.487,391.842L118.487,391.842z"/>
	<path fill="#FFFFFF" d="M132.209,405.976c-1.393,1.537-4.36,1.123-6.528-0.976c-2.223-2.043-2.837-4.953-1.446-6.488
		c1.413-1.537,4.395-1.107,6.582,0.975C133.022,401.533,133.691,404.456,132.209,405.976L132.209,405.976z"/>
	<path fill="#FFFFFF" d="M151.139,414.184c-0.616,1.987-3.472,2.895-6.348,2.046c-2.875-0.871-4.752-3.2-4.173-5.207
		c0.595-2.006,3.467-2.947,6.362-2.043C149.852,409.845,151.734,412.157,151.139,414.184L151.139,414.184z"/>
	<path fill="#FFFFFF" d="M171.931,415.701c0.07,2.095-2.371,3.834-5.39,3.873c-3.035,0.069-5.496-1.627-5.53-3.689
		c0-2.114,2.387-3.832,5.422-3.886C169.453,411.941,171.931,413.626,171.931,415.701L171.931,415.701z"/>
	<path fill="#FFFFFF" d="M191.275,412.415c0.362,2.042-1.738,4.14-4.737,4.699c-2.949,0.543-5.677-0.726-6.055-2.748
		c-0.365-2.094,1.77-4.195,4.715-4.734C188.202,409.105,190.894,410.336,191.275,412.415L191.275,412.415z"/>
</g>
<g display="none">
	<g display="inline">
		
			<line fill="none" stroke="#1981BC" stroke-linecap="round" stroke-miterlimit="10" x1="218.352" y1="304.701" x2="218.352" y2="305.165"/>
		
			<line fill="none" stroke="#1981BC" stroke-linecap="round" stroke-miterlimit="10" stroke-dasharray="0.9999,1.9999" x1="218.352" y1="307.021" x2="218.352" y2="431.307"/>
		
			<line fill="none" stroke="#1981BC" stroke-linecap="round" stroke-miterlimit="10" x1="218.352" y1="432.234" x2="218.352" y2="432.698"/>
	</g>
</g>
<g display="none">
	<path display="inline" fill="#0072BC" d="M133.367,445.698c-0.353-0.254-0.803-0.384-1.352-0.384c-0.223,0-0.442,0.021-0.657,0.065
		c-0.215,0.046-0.406,0.12-0.573,0.223s-0.301,0.244-0.401,0.417c-0.1,0.174-0.15,0.393-0.15,0.649c0,0.247,0.073,0.444,0.217,0.599
		c0.145,0.152,0.337,0.276,0.579,0.37c0.241,0.097,0.514,0.176,0.818,0.242c0.304,0.06,0.614,0.132,0.929,0.205
		c0.315,0.074,0.625,0.162,0.93,0.262c0.304,0.098,0.577,0.236,0.818,0.406c0.241,0.173,0.434,0.387,0.579,0.646
		c0.145,0.26,0.217,0.587,0.217,0.98c0,0.423-0.095,0.786-0.284,1.085c-0.189,0.301-0.433,0.546-0.729,0.734
		c-0.297,0.189-0.629,0.328-0.997,0.412c-0.367,0.083-0.732,0.128-1.096,0.128c-0.445,0-0.866-0.056-1.263-0.167
		s-0.746-0.28-1.046-0.507c-0.301-0.226-0.538-0.517-0.712-0.87c-0.174-0.353-0.262-0.768-0.262-1.252h1.002
		c0,0.334,0.065,0.622,0.195,0.862c0.13,0.244,0.3,0.442,0.512,0.598c0.211,0.156,0.458,0.271,0.74,0.346
		c0.282,0.074,0.571,0.11,0.868,0.11c0.238,0,0.477-0.021,0.718-0.066c0.241-0.044,0.458-0.119,0.651-0.229
		c0.193-0.106,0.349-0.253,0.468-0.438c0.119-0.187,0.178-0.424,0.178-0.715c0-0.274-0.072-0.497-0.217-0.668
		c-0.145-0.173-0.338-0.31-0.579-0.417c-0.241-0.108-0.514-0.195-0.818-0.262s-0.614-0.136-0.929-0.207
		c-0.315-0.069-0.625-0.151-0.93-0.245c-0.304-0.095-0.578-0.214-0.818-0.367s-0.434-0.349-0.579-0.59
		c-0.145-0.242-0.217-0.544-0.217-0.908c0-0.4,0.082-0.747,0.245-1.041c0.164-0.29,0.38-0.532,0.651-0.722
		c0.271-0.188,0.579-0.329,0.924-0.422c0.345-0.096,0.699-0.139,1.063-0.139c0.408,0,0.787,0.049,1.135,0.145
		s0.655,0.249,0.918,0.456c0.263,0.208,0.471,0.47,0.623,0.785c0.152,0.315,0.236,0.691,0.25,1.13h-1.001
		C133.924,446.368,133.719,445.955,133.367,445.698z"/>
	<path display="inline" fill="#0072BC" d="M137.335,446.807v0.846h0.022c0.43-0.654,1.05-0.982,1.858-0.982
		c0.356,0,0.679,0.074,0.969,0.223c0.289,0.148,0.493,0.4,0.612,0.757c0.193-0.312,0.447-0.555,0.763-0.724
		c0.315-0.173,0.662-0.256,1.041-0.256c0.29,0,0.551,0.031,0.785,0.097c0.234,0.062,0.434,0.162,0.601,0.293
		c0.167,0.136,0.297,0.307,0.39,0.521c0.093,0.212,0.139,0.466,0.139,0.763v4.218h-0.946v-3.772c0-0.179-0.016-0.346-0.045-0.501
		c-0.029-0.156-0.085-0.29-0.167-0.406c-0.082-0.117-0.194-0.209-0.339-0.275c-0.145-0.065-0.332-0.098-0.562-0.098
		c-0.467,0-0.835,0.134-1.102,0.4c-0.267,0.268-0.4,0.623-0.4,1.068v3.584h-0.946v-3.772c0-0.186-0.017-0.356-0.05-0.513
		c-0.033-0.155-0.091-0.291-0.172-0.406c-0.082-0.114-0.191-0.204-0.329-0.267c-0.137-0.062-0.313-0.095-0.528-0.095
		c-0.275,0-0.51,0.056-0.707,0.167s-0.356,0.247-0.479,0.402c-0.123,0.156-0.211,0.317-0.267,0.483
		c-0.056,0.169-0.083,0.306-0.083,0.417v3.584h-0.946v-5.754L137.335,446.807L137.335,446.807z"/>
	<path display="inline" fill="#0072BC" d="M150.358,452.684c-0.245,0-0.439-0.068-0.584-0.207c-0.145-0.137-0.217-0.363-0.217-0.675
		c-0.26,0.312-0.562,0.536-0.907,0.675c-0.345,0.136-0.718,0.207-1.119,0.207c-0.26,0-0.505-0.028-0.735-0.084
		c-0.23-0.058-0.432-0.148-0.606-0.279s-0.312-0.295-0.412-0.499c-0.101-0.207-0.15-0.451-0.15-0.743
		c0-0.327,0.056-0.594,0.167-0.799c0.111-0.211,0.258-0.377,0.439-0.508s0.39-0.228,0.624-0.295
		c0.233-0.065,0.473-0.121,0.718-0.167c0.26-0.054,0.506-0.093,0.74-0.115c0.234-0.026,0.439-0.063,0.618-0.112
		c0.178-0.05,0.319-0.118,0.423-0.213c0.104-0.094,0.156-0.228,0.156-0.406c0-0.209-0.039-0.374-0.117-0.5
		c-0.078-0.128-0.178-0.223-0.3-0.289c-0.123-0.065-0.26-0.111-0.412-0.135c-0.152-0.021-0.302-0.032-0.451-0.032
		c-0.401,0-0.735,0.076-1.002,0.229c-0.267,0.151-0.412,0.439-0.434,0.862h-0.946c0.015-0.356,0.089-0.657,0.223-0.902
		c0.133-0.246,0.312-0.444,0.534-0.598c0.223-0.149,0.479-0.26,0.768-0.328c0.289-0.066,0.593-0.1,0.913-0.1
		c0.26,0,0.518,0.02,0.773,0.058c0.256,0.036,0.488,0.112,0.696,0.229c0.208,0.114,0.375,0.276,0.501,0.483
		c0.126,0.21,0.189,0.48,0.189,0.812v2.96c0,0.223,0.013,0.387,0.039,0.489c0.026,0.102,0.113,0.156,0.262,0.156
		c0.082,0,0.178-0.02,0.289-0.058v0.734C150.873,452.635,150.647,452.684,150.358,452.684z M149.033,449.783
		c-0.193,0.042-0.395,0.074-0.606,0.098c-0.211,0.026-0.425,0.058-0.64,0.092c-0.215,0.033-0.408,0.088-0.579,0.162
		c-0.172,0.074-0.31,0.179-0.417,0.317c-0.107,0.137-0.162,0.326-0.162,0.561c0,0.156,0.032,0.289,0.095,0.396
		c0.063,0.108,0.145,0.195,0.245,0.263c0.1,0.063,0.219,0.114,0.356,0.142c0.137,0.029,0.276,0.047,0.417,0.047
		c0.312,0,0.579-0.044,0.801-0.131c0.223-0.085,0.405-0.192,0.545-0.323c0.141-0.129,0.245-0.27,0.312-0.422
		c0.066-0.152,0.1-0.295,0.1-0.43v-0.966C149.382,449.678,149.226,449.743,149.033,449.783z"/>
	<path display="inline" fill="#0072BC" d="M152.918,444.612v7.947h-0.946v-7.947H152.918z"/>
	<path display="inline" fill="#0072BC" d="M155.389,444.612v7.947h-0.946v-7.947H155.389z"/>
	<path display="inline" fill="#0072BC" d="M104.221,460.997v-0.835h0.968v-0.856c0-0.468,0.135-0.822,0.406-1.063
		c0.271-0.243,0.666-0.364,1.186-0.364c0.089,0,0.191,0.009,0.306,0.021c0.115,0.016,0.217,0.038,0.306,0.066v0.825
		c-0.082-0.03-0.171-0.052-0.268-0.062c-0.096-0.011-0.185-0.017-0.267-0.017c-0.23,0-0.408,0.044-0.534,0.133
		c-0.126,0.093-0.189,0.26-0.189,0.515v0.799h1.113v0.838h-1.113v4.921h-0.946v-4.921H104.221z"/>
	<path display="inline" fill="#0072BC" d="M107.961,461.859c0.119-0.367,0.297-0.684,0.534-0.955
		c0.238-0.27,0.531-0.483,0.879-0.639c0.349-0.156,0.75-0.234,1.202-0.234c0.46,0,0.863,0.078,1.208,0.234
		c0.345,0.155,0.637,0.369,0.874,0.639c0.237,0.271,0.416,0.591,0.534,0.955c0.119,0.368,0.178,0.763,0.178,1.186
		c0,0.422-0.06,0.816-0.178,1.18c-0.119,0.366-0.297,0.681-0.534,0.951s-0.529,0.483-0.874,0.638
		c-0.345,0.149-0.748,0.225-1.208,0.225c-0.453,0-0.854-0.075-1.202-0.225c-0.349-0.152-0.642-0.367-0.879-0.638
		c-0.237-0.271-0.416-0.588-0.534-0.951c-0.119-0.364-0.178-0.756-0.178-1.18S107.842,462.228,107.961,461.859z M108.924,463.975
		c0.093,0.271,0.221,0.496,0.384,0.679c0.164,0.18,0.354,0.321,0.573,0.415c0.219,0.097,0.451,0.145,0.696,0.145
		c0.245,0,0.477-0.049,0.696-0.145s0.41-0.235,0.573-0.415c0.163-0.183,0.291-0.408,0.384-0.679s0.139-0.581,0.139-0.93
		c0-0.35-0.046-0.658-0.139-0.929c-0.093-0.272-0.221-0.499-0.384-0.685c-0.164-0.185-0.354-0.327-0.573-0.424
		c-0.219-0.096-0.451-0.145-0.696-0.145c-0.245,0-0.477,0.051-0.696,0.145c-0.219,0.097-0.41,0.239-0.573,0.424
		c-0.163,0.186-0.291,0.412-0.384,0.685c-0.093,0.271-0.139,0.579-0.139,0.929C108.785,463.394,108.831,463.704,108.924,463.975z"/>
	<path display="inline" fill="#0072BC" d="M115.341,460.162v1.216h0.022c0.23-0.468,0.512-0.812,0.846-1.034
		c0.334-0.223,0.757-0.327,1.269-0.312v1.002c-0.378,0-0.701,0.052-0.968,0.156c-0.267,0.103-0.483,0.255-0.646,0.456
		c-0.163,0.199-0.282,0.443-0.356,0.729c-0.074,0.286-0.111,0.612-0.111,0.984v2.561h-0.946v-5.757H115.341z"/>
	<path display="inline" fill="#0072BC" d="M123.587,465.917v-5.654h-2.048v-0.757c0.267,0,0.527-0.02,0.779-0.06
		c0.252-0.04,0.48-0.116,0.685-0.229c0.204-0.11,0.376-0.262,0.518-0.455c0.141-0.193,0.237-0.438,0.289-0.734h0.724v7.892
		L123.587,465.917L123.587,465.917z"/>
	<path display="inline" fill="#0072BC" d="M130.957,459.183c-0.23-0.213-0.534-0.322-0.913-0.322c-0.401,0-0.724,0.097-0.968,0.292
		c-0.245,0.195-0.436,0.444-0.573,0.748c-0.138,0.299-0.232,0.625-0.284,0.975c-0.052,0.348-0.082,0.675-0.089,0.979l0.022,0.022
		c0.222-0.367,0.499-0.628,0.829-0.793c0.33-0.163,0.71-0.245,1.141-0.245c0.378,0,0.718,0.064,1.019,0.195
		c0.301,0.13,0.553,0.31,0.757,0.54c0.204,0.229,0.362,0.5,0.473,0.812c0.111,0.312,0.167,0.65,0.167,1.014
		c0,0.289-0.044,0.59-0.134,0.901c-0.089,0.312-0.235,0.599-0.439,0.852c-0.204,0.256-0.475,0.47-0.812,0.637
		c-0.338,0.168-0.755,0.251-1.252,0.251c-0.586,0-1.057-0.118-1.414-0.355c-0.356-0.238-0.63-0.542-0.824-0.911
		c-0.193-0.37-0.321-0.781-0.384-1.225c-0.063-0.444-0.095-0.875-0.095-1.293c0-0.541,0.046-1.063,0.139-1.573
		c0.093-0.507,0.25-0.958,0.473-1.352s0.52-0.71,0.891-0.947c0.371-0.236,0.838-0.355,1.402-0.355c0.653,0,1.172,0.173,1.558,0.518
		c0.386,0.345,0.609,0.844,0.668,1.497h-0.946C131.324,459.683,131.187,459.399,130.957,459.183z M129.243,461.815
		c-0.201,0.095-0.371,0.219-0.512,0.378c-0.141,0.16-0.247,0.35-0.317,0.567c-0.07,0.217-0.105,0.448-0.105,0.695
		c0,0.245,0.037,0.475,0.111,0.688c0.074,0.215,0.18,0.402,0.317,0.559c0.137,0.155,0.308,0.28,0.512,0.371
		c0.204,0.095,0.436,0.139,0.696,0.139s0.488-0.046,0.685-0.139c0.196-0.093,0.361-0.22,0.495-0.383
		c0.134-0.165,0.235-0.351,0.306-0.561c0.07-0.213,0.105-0.434,0.105-0.664c0-0.244-0.031-0.477-0.094-0.695
		c-0.063-0.218-0.162-0.407-0.295-0.566c-0.134-0.16-0.301-0.289-0.501-0.384c-0.201-0.096-0.434-0.144-0.701-0.144
		S129.443,461.724,129.243,461.815z"/>
	<path display="inline" fill="#0072BC" d="M134.641,460.162v0.782h0.022c0.156-0.322,0.401-0.554,0.735-0.695
		c0.333-0.146,0.701-0.218,1.102-0.218c0.445,0,0.833,0.082,1.163,0.245c0.331,0.165,0.605,0.384,0.824,0.662
		c0.219,0.28,0.384,0.6,0.496,0.963c0.111,0.366,0.167,0.752,0.167,1.158c0,0.407-0.054,0.793-0.162,1.157
		c-0.107,0.366-0.271,0.681-0.49,0.95c-0.219,0.272-0.493,0.483-0.824,0.639c-0.33,0.155-0.715,0.233-1.152,0.233
		c-0.141,0-0.299-0.016-0.473-0.044c-0.174-0.03-0.347-0.078-0.518-0.144c-0.17-0.066-0.332-0.159-0.484-0.274
		c-0.152-0.113-0.28-0.256-0.384-0.429h-0.022v2.96h-0.946v-7.946H134.641z M138.042,462.205c-0.071-0.254-0.178-0.483-0.323-0.683
		c-0.145-0.202-0.33-0.362-0.556-0.48c-0.227-0.119-0.492-0.177-0.796-0.177c-0.319,0-0.59,0.062-0.812,0.188
		c-0.223,0.129-0.405,0.291-0.545,0.495c-0.141,0.206-0.243,0.438-0.306,0.696c-0.063,0.26-0.095,0.521-0.095,0.792
		c0,0.282,0.033,0.555,0.1,0.817c0.067,0.264,0.173,0.496,0.317,0.695c0.145,0.201,0.332,0.362,0.562,0.483
		c0.23,0.124,0.508,0.184,0.835,0.184c0.326,0,0.599-0.062,0.818-0.189c0.219-0.126,0.395-0.29,0.529-0.501
		c0.134-0.208,0.23-0.444,0.29-0.712c0.059-0.269,0.089-0.542,0.089-0.826C138.147,462.724,138.112,462.461,138.042,462.205z"/>
	<path display="inline" fill="#0072BC" d="M139.805,460.162h1.213l1.38,2.017l1.436-2.017h1.135l-1.981,2.649l2.226,3.105h-1.213
		l-1.603-2.38l-1.603,2.38h-1.146l2.159-3.027L139.805,460.162z"/>
	<path display="inline" fill="#0072BC" d="M149.088,462.377v0.892h-3.217v-0.892H149.088z"/>
	<path display="inline" fill="#0072BC" d="M152.661,465.917v-5.654h-2.048v-0.757c0.267,0,0.527-0.02,0.779-0.06
		s0.48-0.116,0.685-0.229c0.204-0.11,0.376-0.262,0.518-0.455s0.237-0.438,0.29-0.734h0.723v7.892L152.661,465.917L152.661,465.917z
		"/>
	<path display="inline" fill="#0072BC" d="M156.445,459.707c0.104-0.343,0.266-0.639,0.484-0.886
		c0.219-0.251,0.492-0.444,0.818-0.584c0.327-0.141,0.698-0.212,1.113-0.212c0.341,0,0.662,0.05,0.963,0.15
		c0.3,0.099,0.562,0.245,0.785,0.434c0.223,0.189,0.399,0.425,0.529,0.707c0.13,0.284,0.195,0.608,0.195,0.981
		c0,0.35-0.054,0.657-0.162,0.924c-0.107,0.268-0.25,0.508-0.429,0.716c-0.178,0.213-0.382,0.405-0.612,0.573
		c-0.23,0.172-0.468,0.333-0.712,0.489c-0.245,0.148-0.49,0.293-0.735,0.44c-0.245,0.145-0.469,0.299-0.673,0.462
		s-0.378,0.339-0.523,0.528c-0.145,0.188-0.239,0.406-0.284,0.65h4.052v0.833h-5.153c0.037-0.468,0.121-0.866,0.25-1.196
		c0.129-0.328,0.295-0.618,0.495-0.863s0.427-0.46,0.679-0.646c0.251-0.185,0.516-0.359,0.791-0.521
		c0.334-0.21,0.627-0.401,0.879-0.572c0.252-0.175,0.462-0.352,0.629-0.529c0.167-0.175,0.293-0.369,0.378-0.579
		c0.085-0.207,0.128-0.445,0.128-0.721c0-0.215-0.041-0.409-0.123-0.587c-0.082-0.174-0.191-0.324-0.328-0.448
		c-0.137-0.127-0.299-0.222-0.484-0.289c-0.186-0.064-0.382-0.098-0.59-0.098c-0.274,0-0.51,0.058-0.707,0.173
		c-0.196,0.115-0.358,0.266-0.484,0.451c-0.126,0.185-0.217,0.395-0.273,0.629c-0.056,0.233-0.08,0.469-0.072,0.706h-0.946
		C156.301,460.418,156.342,460.048,156.445,459.707z"/>
	<path display="inline" fill="#0072BC" d="M162.512,461.142c0.015-0.312,0.052-0.615,0.111-0.911s0.145-0.579,0.256-0.847
		c0.111-0.267,0.264-0.501,0.457-0.701s0.436-0.359,0.729-0.479c0.293-0.117,0.644-0.177,1.052-0.177s0.759,0.06,1.052,0.177
		c0.293,0.12,0.536,0.279,0.729,0.479c0.193,0.2,0.345,0.435,0.456,0.701c0.111,0.268,0.197,0.551,0.256,0.847
		c0.06,0.296,0.097,0.6,0.111,0.911c0.015,0.312,0.022,0.612,0.022,0.902c0,0.291-0.007,0.591-0.022,0.902
		c-0.015,0.312-0.052,0.615-0.111,0.911c-0.059,0.297-0.145,0.578-0.256,0.841c-0.111,0.265-0.263,0.496-0.456,0.695
		c-0.193,0.201-0.435,0.359-0.724,0.474c-0.29,0.115-0.642,0.174-1.058,0.174c-0.408,0-0.759-0.058-1.052-0.174
		c-0.293-0.114-0.536-0.272-0.729-0.474c-0.193-0.199-0.345-0.431-0.457-0.695c-0.111-0.263-0.196-0.544-0.256-0.841
		c-0.06-0.296-0.097-0.6-0.111-0.911s-0.022-0.609-0.022-0.902C162.489,461.754,162.497,461.453,162.512,461.142z M163.519,463.029
		c0.019,0.367,0.078,0.713,0.178,1.032c0.1,0.324,0.261,0.599,0.484,0.819c0.223,0.222,0.535,0.333,0.935,0.333
		c0.401,0,0.712-0.111,0.935-0.333c0.223-0.221,0.384-0.494,0.484-0.819c0.1-0.322,0.159-0.668,0.178-1.032
		c0.019-0.367,0.028-0.702,0.028-0.996c0-0.193-0.001-0.406-0.005-0.64c-0.004-0.234-0.022-0.468-0.056-0.701
		c-0.033-0.235-0.082-0.462-0.145-0.685c-0.063-0.22-0.156-0.416-0.278-0.585c-0.123-0.167-0.276-0.302-0.462-0.406
		c-0.186-0.104-0.412-0.155-0.679-0.155s-0.493,0.052-0.679,0.155c-0.186,0.102-0.34,0.239-0.462,0.406
		c-0.123,0.169-0.215,0.365-0.278,0.585c-0.063,0.223-0.111,0.449-0.145,0.685c-0.033,0.233-0.052,0.467-0.056,0.701
		c-0.003,0.233-0.005,0.446-0.005,0.64C163.491,462.329,163.5,462.661,163.519,463.029z"/>
	<path display="inline" fill="#0072BC" d="M169.903,460.162v0.782h0.022c0.156-0.322,0.4-0.554,0.734-0.695
		c0.334-0.146,0.701-0.218,1.102-0.218c0.445,0,0.833,0.082,1.163,0.245c0.331,0.165,0.605,0.384,0.824,0.662
		c0.219,0.28,0.384,0.6,0.496,0.963c0.111,0.366,0.167,0.752,0.167,1.158c0,0.407-0.054,0.793-0.161,1.157
		c-0.107,0.366-0.271,0.681-0.49,0.95c-0.219,0.272-0.494,0.483-0.824,0.639s-0.715,0.233-1.152,0.233
		c-0.141,0-0.299-0.016-0.473-0.044c-0.174-0.03-0.347-0.078-0.518-0.144c-0.171-0.066-0.332-0.159-0.484-0.274
		c-0.152-0.113-0.28-0.256-0.384-0.429h-0.022v2.96h-0.946v-7.946H169.903z M173.304,462.205c-0.07-0.254-0.178-0.483-0.323-0.683
		c-0.145-0.202-0.33-0.362-0.557-0.48c-0.226-0.119-0.491-0.177-0.795-0.177c-0.319,0-0.59,0.062-0.813,0.188
		c-0.222,0.129-0.404,0.291-0.545,0.495c-0.141,0.206-0.243,0.438-0.306,0.696c-0.063,0.26-0.095,0.521-0.095,0.792
		c0,0.282,0.033,0.555,0.1,0.817c0.067,0.264,0.172,0.496,0.317,0.695c0.145,0.201,0.332,0.362,0.562,0.483
		c0.23,0.124,0.508,0.184,0.835,0.184c0.326,0,0.599-0.062,0.818-0.189c0.219-0.126,0.395-0.29,0.529-0.501
		c0.133-0.208,0.23-0.444,0.289-0.712c0.06-0.269,0.089-0.542,0.089-0.826C173.409,462.724,173.374,462.461,173.304,462.205z"/>
	<path display="inline" fill="#0072BC" d="M175.067,460.162h1.213l1.38,2.017l1.436-2.017h1.135l-1.981,2.649l2.226,3.105h-1.213
		l-1.603-2.38l-1.603,2.38h-1.146l2.16-3.027L175.067,460.162z"/>
</g>
<g display="none">
	<path display="inline" fill="#0072BC" d="M321.065,444.612v7.056h4.207v0.892h-5.265v-7.947H321.065z"/>
	<path display="inline" fill="#0072BC" d="M330.459,452.682c-0.244,0-0.44-0.067-0.585-0.205c-0.144-0.138-0.216-0.364-0.216-0.676
		c-0.258,0.312-0.561,0.536-0.907,0.676c-0.346,0.136-0.718,0.205-1.12,0.205c-0.259,0-0.503-0.027-0.733-0.084
		c-0.229-0.057-0.433-0.147-0.606-0.277c-0.175-0.132-0.312-0.296-0.409-0.501c-0.101-0.206-0.15-0.451-0.15-0.742
		c0-0.327,0.056-0.594,0.167-0.8c0.11-0.21,0.257-0.376,0.441-0.506c0.18-0.132,0.39-0.228,0.624-0.295
		c0.233-0.066,0.474-0.123,0.716-0.167c0.259-0.055,0.506-0.094,0.74-0.117c0.235-0.025,0.441-0.062,0.617-0.11
		c0.179-0.051,0.321-0.12,0.423-0.213c0.104-0.093,0.156-0.228,0.156-0.406c0-0.21-0.039-0.375-0.117-0.502
		c-0.077-0.127-0.176-0.222-0.298-0.289c-0.125-0.065-0.26-0.111-0.412-0.134s-0.303-0.034-0.45-0.034
		c-0.401,0-0.734,0.077-1.002,0.229c-0.266,0.152-0.409,0.44-0.434,0.863h-0.947c0.016-0.356,0.09-0.656,0.221-0.901
		c0.135-0.246,0.312-0.444,0.533-0.599c0.223-0.152,0.481-0.259,0.769-0.328c0.289-0.066,0.596-0.101,0.912-0.101
		c0.258,0,0.519,0.02,0.774,0.058c0.254,0.038,0.485,0.114,0.695,0.229c0.209,0.116,0.374,0.277,0.501,0.483
		c0.126,0.207,0.189,0.481,0.189,0.812v2.96c0,0.223,0.013,0.386,0.039,0.488c0.023,0.104,0.112,0.156,0.259,0.156
		c0.084,0,0.178-0.02,0.29-0.057v0.734C330.975,452.635,330.75,452.682,330.459,452.682z M329.135,449.783
		c-0.193,0.041-0.396,0.074-0.606,0.098c-0.213,0.025-0.426,0.057-0.639,0.091c-0.214,0.034-0.407,0.088-0.578,0.161
		c-0.173,0.074-0.31,0.181-0.417,0.318c-0.108,0.136-0.161,0.327-0.161,0.562c0,0.156,0.03,0.288,0.095,0.396
		c0.062,0.106,0.145,0.193,0.246,0.261c0.099,0.064,0.218,0.116,0.357,0.143c0.136,0.029,0.275,0.047,0.417,0.047
		c0.312,0,0.578-0.045,0.799-0.13c0.222-0.086,0.406-0.193,0.548-0.323c0.138-0.133,0.246-0.271,0.312-0.424
		c0.063-0.151,0.099-0.294,0.099-0.428v-0.97C329.482,449.677,329.328,449.741,329.135,449.783z"/>
	<path display="inline" fill="#0072BC" d="M332.875,446.805v1.214h0.02c0.229-0.468,0.515-0.812,0.846-1.035
		c0.334-0.22,0.757-0.326,1.27-0.312v1.002c-0.378,0-0.701,0.054-0.969,0.155c-0.267,0.104-0.483,0.257-0.645,0.457
		c-0.162,0.2-0.283,0.444-0.357,0.729c-0.074,0.285-0.11,0.614-0.11,0.985v2.562h-0.947v-5.756L332.875,446.805L332.875,446.805z"/>
	<path display="inline" fill="#0072BC" d="M339.731,454.186c-0.432,0.467-1.104,0.701-2.026,0.701c-0.268,0-0.539-0.03-0.818-0.089
		c-0.28-0.06-0.531-0.156-0.757-0.29c-0.227-0.134-0.413-0.308-0.562-0.521c-0.146-0.215-0.229-0.48-0.245-0.792h0.947
		c0.008,0.173,0.06,0.315,0.161,0.435c0.099,0.118,0.223,0.214,0.367,0.289c0.146,0.075,0.303,0.129,0.476,0.162
		c0.171,0.033,0.331,0.051,0.486,0.051c0.312,0,0.576-0.055,0.792-0.162c0.213-0.107,0.395-0.253,0.533-0.444
		c0.14-0.188,0.244-0.416,0.306-0.685c0.062-0.266,0.097-0.56,0.097-0.878v-0.379h-0.022c-0.164,0.359-0.408,0.618-0.74,0.787
		c-0.328,0.168-0.68,0.251-1.053,0.251c-0.431,0-0.804-0.078-1.123-0.233c-0.321-0.156-0.587-0.365-0.803-0.63
		c-0.212-0.263-0.376-0.57-0.483-0.924c-0.107-0.352-0.163-0.725-0.163-1.118c0-0.341,0.047-0.691,0.136-1.053
		c0.089-0.359,0.237-0.686,0.444-0.981c0.21-0.29,0.483-0.531,0.825-0.722c0.341-0.188,0.759-0.285,1.256-0.285
		c0.367,0,0.698,0.08,1.002,0.242c0.305,0.159,0.542,0.398,0.715,0.715h0.013v-0.824h0.89v5.266
		C340.377,453.012,340.161,453.718,339.731,454.186z M338.523,451.597c0.219-0.131,0.396-0.3,0.529-0.512s0.231-0.45,0.293-0.718
		c0.062-0.267,0.096-0.534,0.096-0.801c0-0.252-0.028-0.501-0.091-0.747c-0.058-0.245-0.153-0.466-0.284-0.661
		c-0.13-0.198-0.299-0.355-0.506-0.474c-0.21-0.121-0.46-0.179-0.757-0.179c-0.304,0-0.562,0.058-0.779,0.174
		c-0.213,0.114-0.392,0.269-0.528,0.462c-0.136,0.192-0.237,0.415-0.299,0.669c-0.063,0.252-0.097,0.517-0.097,0.792
		c0,0.259,0.025,0.521,0.078,0.778c0.054,0.26,0.141,0.496,0.267,0.71c0.127,0.212,0.293,0.38,0.501,0.511s0.468,0.196,0.779,0.196
		S338.304,451.727,338.523,451.597z"/>
	<path display="inline" fill="#0072BC" d="M345.875,452.191c-0.431,0.329-0.973,0.489-1.626,0.489c-0.46,0-0.858-0.074-1.195-0.222
		c-0.339-0.148-0.622-0.356-0.852-0.623c-0.229-0.268-0.403-0.587-0.519-0.957s-0.18-0.776-0.194-1.215
		c0-0.438,0.063-0.838,0.2-1.201c0.135-0.366,0.321-0.679,0.561-0.947c0.242-0.268,0.526-0.475,0.859-0.623
		c0.328-0.148,0.689-0.223,1.085-0.223c0.513,0,0.938,0.105,1.274,0.318c0.335,0.212,0.607,0.482,0.812,0.806
		c0.204,0.329,0.346,0.683,0.424,1.069c0.077,0.386,0.106,0.753,0.094,1.102h-4.307c-0.011,0.252,0.02,0.491,0.089,0.718
		c0.068,0.227,0.174,0.427,0.323,0.601c0.147,0.174,0.337,0.313,0.566,0.416c0.23,0.104,0.501,0.156,0.813,0.156
		c0.401,0,0.729-0.094,0.984-0.279c0.257-0.185,0.426-0.468,0.51-0.846h0.935C346.583,451.379,346.306,451.866,345.875,452.191z
		 M345.646,448.496c-0.086-0.202-0.199-0.372-0.345-0.52c-0.143-0.145-0.315-0.259-0.513-0.345c-0.196-0.085-0.412-0.129-0.65-0.129
		c-0.245,0-0.466,0.044-0.663,0.129c-0.196,0.086-0.366,0.203-0.506,0.351c-0.141,0.148-0.253,0.324-0.334,0.52
		c-0.082,0.197-0.13,0.406-0.143,0.63h3.305C345.782,448.908,345.731,448.697,345.646,448.496z"/>
	<path display="inline" fill="#0072BC" d="M348.636,446.805v1.214h0.02c0.23-0.468,0.513-0.812,0.846-1.035
		c0.333-0.22,0.757-0.326,1.27-0.312v1.002c-0.379,0-0.701,0.054-0.969,0.155c-0.267,0.104-0.483,0.257-0.646,0.457
		s-0.282,0.444-0.356,0.729c-0.074,0.285-0.111,0.614-0.111,0.985v2.562h-0.947v-5.756L348.636,446.805L348.636,446.805z"/>
	<path display="inline" fill="#0072BC" d="M304.947,460.997v-0.835h0.969v-0.856c0-0.468,0.136-0.823,0.406-1.063
		c0.271-0.243,0.665-0.363,1.183-0.363c0.091,0,0.191,0.01,0.307,0.022c0.114,0.012,0.217,0.036,0.306,0.066v0.822
		c-0.082-0.028-0.171-0.049-0.268-0.06c-0.096-0.012-0.186-0.018-0.267-0.018c-0.23,0-0.406,0.045-0.532,0.134
		c-0.128,0.091-0.188,0.26-0.188,0.516v0.798h1.11v0.835h-1.11v4.92h-0.947v-4.918H304.947z"/>
	<path display="inline" fill="#0072BC" d="M308.688,461.859c0.12-0.368,0.297-0.685,0.534-0.955
		c0.237-0.271,0.529-0.485,0.878-0.641c0.351-0.156,0.751-0.234,1.204-0.234c0.46,0,0.862,0.078,1.208,0.234
		c0.345,0.155,0.637,0.369,0.871,0.641c0.239,0.271,0.415,0.589,0.534,0.955c0.119,0.367,0.178,0.762,0.178,1.184
		c0,0.424-0.059,0.817-0.178,1.18c-0.119,0.365-0.295,0.681-0.534,0.951c-0.237,0.271-0.526,0.483-0.871,0.635
		c-0.346,0.152-0.748,0.228-1.208,0.228c-0.453,0-0.854-0.075-1.204-0.228c-0.348-0.15-0.641-0.363-0.878-0.635
		c-0.237-0.271-0.414-0.589-0.534-0.951c-0.117-0.364-0.177-0.755-0.177-1.18C308.51,462.621,308.57,462.228,308.688,461.859z
		 M309.651,463.973c0.093,0.271,0.22,0.498,0.384,0.679s0.354,0.321,0.572,0.416c0.218,0.097,0.449,0.145,0.696,0.145
		c0.245,0,0.477-0.048,0.695-0.145c0.217-0.097,0.407-0.235,0.571-0.416c0.165-0.181,0.29-0.407,0.384-0.679
		c0.096-0.27,0.139-0.58,0.139-0.93c0-0.348-0.046-0.657-0.139-0.929c-0.094-0.271-0.219-0.498-0.384-0.684
		c-0.164-0.186-0.354-0.328-0.571-0.423c-0.219-0.096-0.45-0.144-0.695-0.144c-0.247,0-0.479,0.05-0.696,0.144
		c-0.219,0.096-0.408,0.237-0.572,0.423s-0.291,0.413-0.384,0.684c-0.096,0.271-0.139,0.581-0.139,0.929
		C309.512,463.393,309.558,463.703,309.651,463.973z"/>
	<path display="inline" fill="#0072BC" d="M316.068,460.161v1.217h0.02c0.229-0.468,0.515-0.813,0.846-1.036
		c0.333-0.222,0.757-0.327,1.27-0.312v1.002c-0.379,0-0.702,0.053-0.969,0.156c-0.268,0.104-0.483,0.254-0.646,0.456
		c-0.162,0.201-0.282,0.444-0.356,0.73c-0.074,0.284-0.111,0.611-0.111,0.984v2.561h-0.947v-5.757L316.068,460.161L316.068,460.161z
		"/>
	<path display="inline" fill="#0072BC" d="M324.314,465.916v-5.655h-2.047v-0.756c0.266,0,0.525-0.02,0.778-0.059
		c0.252-0.042,0.482-0.118,0.685-0.229c0.203-0.112,0.376-0.263,0.52-0.456c0.139-0.193,0.237-0.438,0.29-0.734h0.724v7.892
		L324.314,465.916L324.314,465.916z"/>
	<path display="inline" fill="#0072BC" d="M328.1,459.705c0.104-0.341,0.266-0.638,0.484-0.884c0.216-0.252,0.488-0.444,0.817-0.586
		c0.327-0.141,0.697-0.212,1.113-0.212c0.341,0,0.662,0.05,0.962,0.149c0.299,0.101,0.561,0.246,0.785,0.435
		c0.225,0.189,0.399,0.425,0.528,0.707c0.131,0.285,0.196,0.608,0.196,0.982c0,0.348-0.057,0.656-0.164,0.924
		c-0.106,0.267-0.252,0.506-0.429,0.715c-0.176,0.213-0.382,0.404-0.61,0.573c-0.23,0.173-0.47,0.334-0.715,0.49
		c-0.244,0.148-0.489,0.292-0.735,0.439c-0.245,0.144-0.469,0.299-0.672,0.462c-0.207,0.163-0.379,0.34-0.523,0.527
		c-0.145,0.19-0.239,0.406-0.285,0.652h4.053v0.832h-5.156c0.037-0.467,0.121-0.867,0.251-1.196
		c0.131-0.328,0.294-0.618,0.494-0.862c0.202-0.245,0.428-0.461,0.679-0.646c0.251-0.185,0.516-0.359,0.79-0.521
		c0.334-0.211,0.63-0.402,0.88-0.574c0.251-0.175,0.462-0.35,0.63-0.528c0.168-0.176,0.292-0.368,0.377-0.578
		c0.086-0.209,0.131-0.447,0.131-0.721c0-0.216-0.042-0.411-0.125-0.588c-0.082-0.174-0.189-0.324-0.328-0.448
		c-0.138-0.126-0.299-0.223-0.484-0.29c-0.184-0.064-0.381-0.098-0.59-0.098c-0.275,0-0.512,0.058-0.707,0.173
		c-0.197,0.115-0.359,0.266-0.484,0.45c-0.126,0.187-0.214,0.396-0.272,0.63c-0.057,0.233-0.08,0.469-0.072,0.707h-0.946
		C327.955,460.417,327.996,460.047,328.1,459.705z"/>
	<path display="inline" fill="#0072BC" d="M334.166,461.142c0.017-0.312,0.052-0.615,0.11-0.912c0.06-0.297,0.145-0.579,0.256-0.847
		c0.109-0.267,0.262-0.5,0.454-0.701c0.193-0.201,0.438-0.36,0.729-0.479c0.293-0.119,0.643-0.178,1.054-0.178
		c0.407,0,0.756,0.059,1.052,0.178c0.291,0.118,0.536,0.277,0.729,0.479c0.192,0.201,0.345,0.435,0.454,0.701
		c0.111,0.268,0.198,0.55,0.256,0.847c0.059,0.297,0.097,0.601,0.11,0.912c0.016,0.312,0.021,0.612,0.021,0.901
		c0,0.29-0.007,0.591-0.021,0.902c-0.013,0.312-0.052,0.615-0.11,0.912c-0.058,0.297-0.145,0.577-0.256,0.841
		c-0.109,0.263-0.262,0.494-0.454,0.695c-0.193,0.199-0.437,0.358-0.724,0.474c-0.29,0.113-0.642,0.172-1.058,0.172
		c-0.408,0-0.758-0.058-1.054-0.172c-0.291-0.115-0.536-0.274-0.729-0.474c-0.192-0.201-0.345-0.433-0.454-0.695
		c-0.111-0.264-0.196-0.544-0.256-0.841c-0.059-0.297-0.097-0.601-0.11-0.912c-0.016-0.312-0.021-0.61-0.021-0.902
		C334.144,461.754,334.151,461.453,334.166,461.142z M335.173,463.027c0.02,0.367,0.078,0.713,0.178,1.033
		c0.099,0.326,0.262,0.598,0.483,0.818c0.222,0.223,0.533,0.334,0.937,0.334c0.401,0,0.713-0.111,0.936-0.334
		c0.222-0.221,0.384-0.492,0.483-0.818c0.1-0.323,0.16-0.668,0.178-1.033c0.019-0.367,0.027-0.701,0.027-0.996
		c0-0.191-0.003-0.406-0.007-0.639c-0.005-0.234-0.021-0.468-0.056-0.701c-0.035-0.234-0.082-0.462-0.146-0.685
		c-0.061-0.221-0.155-0.415-0.278-0.585c-0.122-0.168-0.276-0.301-0.463-0.406c-0.184-0.103-0.41-0.155-0.676-0.155
		c-0.268,0-0.493,0.053-0.678,0.155c-0.187,0.104-0.341,0.239-0.462,0.406c-0.124,0.17-0.216,0.364-0.279,0.585
		c-0.064,0.223-0.11,0.45-0.145,0.685c-0.033,0.233-0.052,0.467-0.056,0.701c-0.004,0.233-0.007,0.447-0.007,0.639
		C335.145,462.328,335.154,462.66,335.173,463.027z"/>
	<path display="inline" fill="#0072BC" d="M341.557,460.161v0.781h0.022c0.155-0.321,0.4-0.553,0.733-0.695
		c0.334-0.145,0.701-0.218,1.103-0.218c0.444,0,0.831,0.083,1.165,0.246c0.328,0.166,0.602,0.384,0.823,0.662
		c0.217,0.281,0.384,0.6,0.495,0.963c0.111,0.365,0.168,0.752,0.168,1.158c0,0.408-0.055,0.794-0.162,1.157
		c-0.107,0.365-0.271,0.68-0.49,0.952c-0.217,0.27-0.492,0.482-0.822,0.638c-0.331,0.156-0.715,0.233-1.152,0.233
		c-0.141,0-0.299-0.015-0.474-0.044c-0.176-0.03-0.347-0.078-0.52-0.143c-0.171-0.066-0.33-0.159-0.483-0.275
		c-0.152-0.112-0.281-0.255-0.384-0.429h-0.022v2.961h-0.947v-7.947L341.557,460.161L341.557,460.161z M344.957,462.204
		c-0.068-0.254-0.176-0.483-0.323-0.685c-0.146-0.2-0.33-0.36-0.557-0.479c-0.228-0.119-0.492-0.177-0.795-0.177
		c-0.32,0-0.591,0.062-0.813,0.188c-0.223,0.128-0.406,0.29-0.546,0.495c-0.141,0.207-0.243,0.439-0.306,0.696
		c-0.063,0.26-0.097,0.522-0.097,0.792c0,0.283,0.033,0.556,0.1,0.819c0.066,0.262,0.174,0.494,0.317,0.695
		c0.145,0.2,0.332,0.361,0.562,0.483c0.229,0.125,0.508,0.184,0.832,0.184c0.328,0,0.6-0.061,0.82-0.189
		c0.217-0.126,0.395-0.291,0.526-0.501c0.136-0.208,0.23-0.444,0.29-0.713c0.057-0.267,0.09-0.542,0.09-0.825
		C345.062,462.722,345.026,462.461,344.957,462.204z"/>
	<path display="inline" fill="#0072BC" d="M346.721,460.161h1.214l1.379,2.017l1.437-2.017h1.138l-1.983,2.648l2.226,3.106h-1.214
		l-1.604-2.379l-1.604,2.379h-1.146l2.159-3.028L346.721,460.161z"/>
	<path display="inline" fill="#0072BC" d="M361.47,462.722v0.755h-2.427v2.438h-0.756v-2.438h-2.425v-0.755h2.425v-2.437h0.756
		v2.437H361.47z"/>
</g>
</svg>
