<?xml version="1.0" encoding="utf-8"?>
<!-- Generator: Adobe Illustrator 16.0.0, SVG Export Plug-In . SVG Version: 6.00 Build 0)  -->
<!DOCTYPE svg PUBLIC "-//W3C//DTD SVG 1.1//EN" "http://www.w3.org/Graphics/SVG/1.1/DTD/svg11.dtd">
<svg version="1.1" id="Layer_1" xmlns="http://www.w3.org/2000/svg" xmlns:xlink="http://www.w3.org/1999/xlink" x="0px" y="0px"
	 width="530.973px" height="551.986px" viewBox="0 0 530.973 551.986" enable-background="new 0 0 530.973 551.986"
	 xml:space="preserve">
<rect y="276" display="none" width="530.973" height="275.986"/>
<path display="none" fill="#191717" d="M152.608,107.44c-8.995,0-16.289,7.293-16.289,16.291c0,7.196,4.667,13.302,11.141,15.456
	c0.814,0.149,1.112-0.354,1.112-0.785c0-0.387-0.014-1.411-0.022-2.771c-4.531,0.984-5.487-2.184-5.487-2.184
	c-0.741-1.882-1.809-2.383-1.809-2.383c-1.479-1.011,0.112-0.99,0.112-0.99c1.635,0.115,2.495,1.679,2.495,1.679
	c1.453,2.489,3.812,1.771,4.741,1.354c0.148-1.053,0.569-1.771,1.034-2.178c-3.617-0.411-7.42-1.809-7.42-8.051
	c0-1.778,0.635-3.232,1.677-4.371c-0.167-0.412-0.727-2.068,0.16-4.311c0,0,1.368-0.438,4.479,1.67
	c1.299-0.361,2.693-0.542,4.078-0.548c1.383,0.006,2.777,0.187,4.078,0.548c3.11-2.108,4.475-1.67,4.475-1.67
	c0.889,2.243,0.33,3.899,0.162,4.311c1.044,1.139,1.674,2.593,1.674,4.371c0,6.258-3.809,7.635-7.438,8.038
	c0.585,0.503,1.106,1.497,1.106,3.017c0,2.178-0.02,3.935-0.02,4.469c0,0.436,0.293,0.942,1.12,0.783
	c6.467-2.158,11.13-8.26,11.13-15.454C168.899,114.733,161.605,107.44,152.608,107.44z"/>
<g display="none">
	<path display="inline" fill="#191717" d="M350.609,58.431c-33.348,0-60.389,27.035-60.389,60.388
		c0,26.681,17.304,49.316,41.297,57.302c3.019,0.559,4.126-1.311,4.126-2.905c0-1.439-0.056-6.197-0.081-11.243
		c-16.801,3.653-20.346-7.125-20.346-7.125c-2.747-6.979-6.705-8.836-6.705-8.836c-5.479-3.748,0.413-3.671,0.413-3.671
		c6.063,0.426,9.257,6.224,9.257,6.224c5.387,9.231,14.127,6.562,17.573,5.02c0.542-3.902,2.106-6.567,3.834-8.075
		c-13.413-1.526-27.514-6.705-27.514-29.844c0-6.593,2.358-11.98,6.223-16.209c-0.627-1.521-2.694-7.663,0.585-15.981
		c0,0,5.071-1.622,16.61,6.191c4.816-1.338,9.982-2.009,15.115-2.033c5.132,0.023,10.302,0.694,15.128,2.033
		c11.525-7.813,16.59-6.191,16.59-6.191c3.287,8.318,1.22,14.46,0.593,15.981c3.872,4.229,6.215,9.616,6.215,16.209
		c0,23.194-14.127,28.301-27.574,29.796c2.166,1.874,4.097,5.549,4.097,11.183c0,8.08-0.069,14.583-0.069,16.572
		c0,1.607,1.087,3.49,4.147,2.897c23.98-7.994,41.263-30.622,41.263-57.294C410.997,85.466,383.959,58.431,350.609,58.431z"/>
	<path display="inline" fill="#191717" d="M313.093,145.134c-0.133,0.301-0.604,0.391-1.035,0.185
		c-0.438-0.197-0.684-0.606-0.542-0.907c0.131-0.309,0.604-0.395,1.04-0.188C312.995,144.42,313.245,144.833,313.093,145.134
		L313.093,145.134z"/>
	<path display="inline" fill="#191717" d="M315.54,147.863c-0.288,0.267-0.852,0.143-1.233-0.279
		c-0.396-0.421-0.469-0.984-0.177-1.255c0.297-0.267,0.843-0.142,1.238,0.279C315.763,147.034,315.84,147.592,315.54,147.863
		L315.54,147.863z"/>
	<path display="inline" fill="#191717" d="M317.92,151.34c-0.37,0.258-0.976,0.017-1.35-0.521c-0.37-0.537-0.37-1.182,0.009-1.439
		c0.374-0.258,0.971-0.025,1.35,0.507C318.298,150.433,318.298,151.078,317.92,151.34L317.92,151.34z"/>
	<path display="inline" fill="#191717" d="M321.182,154.701c-0.331,0.365-1.035,0.267-1.552-0.231
		c-0.528-0.486-0.675-1.178-0.344-1.543c0.336-0.365,1.045-0.263,1.563,0.231C321.375,153.644,321.535,154.339,321.182,154.701
		L321.182,154.701z"/>
	<path display="inline" fill="#191717" d="M325.682,156.652c-0.146,0.473-0.824,0.688-1.509,0.486
		c-0.684-0.207-1.13-0.761-0.992-1.238c0.143-0.477,0.824-0.7,1.514-0.485C325.376,155.621,325.824,156.17,325.682,156.652
		L325.682,156.652z"/>
	<path display="inline" fill="#191717" d="M330.625,157.013c0.017,0.498-0.562,0.911-1.281,0.92
		c-0.722,0.017-1.307-0.387-1.313-0.877c0-0.503,0.566-0.911,1.289-0.924C330.036,156.119,330.625,156.519,330.625,157.013
		L330.625,157.013z"/>
	<path display="inline" fill="#191717" d="M335.223,156.231c0.086,0.485-0.413,0.984-1.126,1.117c-0.7,0.129-1.35-0.172-1.438-0.653
		c-0.087-0.498,0.421-0.997,1.121-1.126C334.493,155.445,335.132,155.737,335.223,156.231L335.223,156.231z"/>
</g>
<g display="none">
	<g display="inline">
		
			<line fill="none" stroke="#1981BC" stroke-linecap="round" stroke-miterlimit="10" x1="224.898" y1="52.498" x2="224.898" y2="52.998"/>
		
			<line fill="none" stroke="#1981BC" stroke-linecap="round" stroke-miterlimit="10" stroke-dasharray="0.9999,1.9999" x1="224.898" y1="54.998" x2="224.898" y2="188.991"/>
		
			<line fill="none" stroke="#1981BC" stroke-linecap="round" stroke-miterlimit="10" x1="224.898" y1="189.991" x2="224.898" y2="190.491"/>
	</g>
</g>
<g display="none">
	<path display="inline" fill="#0072BC" d="M133.276,204.506c-0.38-0.276-0.866-0.414-1.458-0.414c-0.24,0-0.476,0.024-0.708,0.071
		c-0.232,0.049-0.438,0.129-0.618,0.24c-0.18,0.113-0.324,0.263-0.432,0.451s-0.162,0.422-0.162,0.701
		c0,0.264,0.078,0.479,0.234,0.643c0.156,0.164,0.364,0.298,0.624,0.401c0.26,0.104,0.554,0.19,0.882,0.259
		c0.328,0.067,0.662,0.142,1.002,0.221c0.34,0.08,0.674,0.175,1.002,0.283c0.328,0.107,0.622,0.254,0.882,0.438
		c0.26,0.184,0.468,0.416,0.624,0.695c0.156,0.281,0.234,0.633,0.234,1.057c0,0.456-0.102,0.846-0.306,1.17
		c-0.204,0.324-0.466,0.588-0.786,0.792c-0.32,0.204-0.678,0.353-1.074,0.444s-0.79,0.138-1.182,0.138
		c-0.48,0-0.934-0.06-1.362-0.18c-0.428-0.12-0.804-0.302-1.128-0.546s-0.58-0.557-0.768-0.937s-0.282-0.829-0.282-1.35h1.08
		c0,0.36,0.07,0.67,0.21,0.93c0.14,0.261,0.324,0.474,0.552,0.642s0.494,0.293,0.798,0.373c0.304,0.08,0.616,0.119,0.936,0.119
		c0.256,0,0.514-0.023,0.774-0.072c0.26-0.047,0.494-0.129,0.702-0.246c0.208-0.115,0.376-0.273,0.504-0.473
		c0.128-0.201,0.192-0.457,0.192-0.769c0-0.296-0.078-0.536-0.234-0.72c-0.156-0.184-0.364-0.334-0.624-0.45
		c-0.26-0.116-0.554-0.21-0.882-0.282c-0.328-0.072-0.662-0.146-1.002-0.223c-0.34-0.075-0.674-0.163-1.002-0.264
		c-0.328-0.1-0.623-0.231-0.882-0.396c-0.259-0.165-0.468-0.376-0.624-0.636c-0.156-0.26-0.234-0.586-0.234-0.979
		c0-0.432,0.088-0.806,0.264-1.122c0.176-0.315,0.41-0.575,0.702-0.78c0.292-0.203,0.624-0.355,0.996-0.455
		c0.372-0.101,0.754-0.15,1.146-0.15c0.44,0,0.848,0.053,1.224,0.156s0.706,0.268,0.99,0.492c0.284,0.224,0.508,0.506,0.672,0.846
		s0.254,0.746,0.27,1.218h-1.08C133.877,205.228,133.656,204.783,133.276,204.506z"/>
	<path display="inline" fill="#0072BC" d="M137.554,205.701v0.912h0.024c0.464-0.705,1.132-1.057,2.004-1.057
		c0.384,0,0.732,0.08,1.044,0.24s0.532,0.432,0.66,0.816c0.208-0.336,0.482-0.596,0.822-0.78c0.34-0.185,0.714-0.276,1.122-0.276
		c0.312,0,0.594,0.034,0.846,0.102c0.252,0.068,0.468,0.175,0.648,0.318c0.18,0.145,0.32,0.33,0.42,0.559
		c0.1,0.228,0.15,0.502,0.15,0.822v4.547h-1.02v-4.067c0-0.192-0.017-0.372-0.048-0.54c-0.031-0.168-0.092-0.314-0.18-0.438
		c-0.088-0.125-0.21-0.223-0.366-0.295c-0.156-0.072-0.358-0.107-0.606-0.107c-0.504,0-0.9,0.144-1.188,0.432
		c-0.288,0.288-0.432,0.672-0.432,1.152v3.863h-1.02v-4.067c0-0.2-0.018-0.384-0.054-0.552s-0.098-0.314-0.186-0.438
		s-0.206-0.22-0.354-0.288s-0.338-0.102-0.57-0.102c-0.296,0-0.55,0.06-0.762,0.18c-0.212,0.12-0.384,0.264-0.516,0.432
		c-0.132,0.168-0.228,0.342-0.288,0.522c-0.06,0.18-0.09,0.33-0.09,0.45v3.863h-1.02v-6.203H137.554L137.554,205.701z"/>
	<path display="inline" fill="#0072BC" d="M151.594,212.037c-0.264,0-0.474-0.074-0.63-0.223c-0.156-0.147-0.234-0.39-0.234-0.726
		c-0.28,0.336-0.606,0.578-0.978,0.726s-0.774,0.223-1.206,0.223c-0.28,0-0.544-0.03-0.792-0.09
		c-0.248-0.062-0.466-0.16-0.654-0.301c-0.188-0.14-0.336-0.319-0.444-0.539c-0.108-0.221-0.162-0.486-0.162-0.799
		c0-0.352,0.06-0.64,0.18-0.863c0.12-0.225,0.278-0.406,0.474-0.547c0.196-0.14,0.42-0.246,0.672-0.318
		c0.252-0.071,0.51-0.131,0.774-0.18c0.28-0.056,0.546-0.098,0.798-0.125c0.252-0.028,0.474-0.068,0.666-0.121
		c0.192-0.051,0.344-0.127,0.456-0.229c0.112-0.101,0.168-0.246,0.168-0.438c0-0.223-0.042-0.403-0.126-0.539
		c-0.084-0.137-0.192-0.24-0.324-0.312c-0.132-0.072-0.28-0.12-0.444-0.145c-0.164-0.023-0.326-0.035-0.486-0.035
		c-0.432,0-0.792,0.082-1.08,0.246c-0.288,0.164-0.444,0.474-0.468,0.93h-1.02c0.016-0.384,0.096-0.708,0.24-0.973
		c0.144-0.264,0.336-0.478,0.576-0.642c0.24-0.163,0.516-0.282,0.828-0.354c0.312-0.071,0.64-0.107,0.984-0.107
		c0.28,0,0.558,0.02,0.834,0.061c0.276,0.039,0.526,0.121,0.75,0.246c0.224,0.123,0.404,0.298,0.54,0.521
		c0.136,0.225,0.204,0.516,0.204,0.876v3.192c0,0.24,0.014,0.416,0.042,0.527c0.028,0.112,0.122,0.168,0.282,0.168
		c0.088,0,0.192-0.02,0.312-0.06v0.792C152.149,211.984,151.906,212.037,151.594,212.037z M150.166,208.91
		c-0.208,0.045-0.426,0.08-0.654,0.108s-0.458,0.06-0.69,0.097c-0.232,0.035-0.44,0.094-0.624,0.174
		c-0.185,0.08-0.334,0.193-0.45,0.342c-0.116,0.148-0.174,0.35-0.174,0.605c0,0.168,0.034,0.311,0.102,0.426
		c0.068,0.117,0.156,0.211,0.264,0.283c0.108,0.071,0.236,0.123,0.384,0.155c0.148,0.032,0.298,0.048,0.45,0.048
		c0.336,0,0.624-0.045,0.864-0.138c0.24-0.092,0.436-0.208,0.588-0.349c0.152-0.139,0.264-0.291,0.336-0.455
		s0.108-0.318,0.108-0.463V208.7C150.542,208.796,150.374,208.867,150.166,208.91z"/>
	<path display="inline" fill="#0072BC" d="M154.354,203.336v8.567h-1.02v-8.567H154.354z"/>
	<path display="inline" fill="#0072BC" d="M157.018,203.336v8.567h-1.02v-8.567H157.018z"/>
	<path display="inline" fill="#0072BC" d="M101.854,221v-0.9h1.044v-0.924c0-0.504,0.146-0.886,0.438-1.146
		c0.292-0.26,0.718-0.391,1.278-0.391c0.096,0,0.206,0.008,0.33,0.023c0.124,0.017,0.234,0.041,0.33,0.072v0.889
		c-0.088-0.032-0.184-0.055-0.288-0.066c-0.104-0.011-0.2-0.018-0.288-0.018c-0.248,0-0.44,0.048-0.576,0.144
		c-0.136,0.097-0.204,0.28-0.204,0.552v0.864h1.2V221h-1.2v5.305h-1.02V221H101.854z"/>
	<path display="inline" fill="#0072BC" d="M105.886,221.93c0.128-0.396,0.32-0.739,0.576-1.032c0.256-0.291,0.572-0.521,0.948-0.689
		s0.808-0.252,1.296-0.252c0.496,0,0.93,0.084,1.302,0.252c0.372,0.168,0.686,0.398,0.942,0.689
		c0.256,0.293,0.448,0.637,0.576,1.032c0.128,0.396,0.192,0.822,0.192,1.278c0,0.455-0.064,0.88-0.192,1.271
		c-0.128,0.393-0.32,0.734-0.576,1.026c-0.256,0.292-0.57,0.521-0.942,0.685c-0.372,0.163-0.806,0.245-1.302,0.245
		c-0.488,0-0.92-0.082-1.296-0.245c-0.376-0.164-0.692-0.393-0.948-0.685s-0.448-0.634-0.576-1.026
		c-0.128-0.392-0.192-0.816-0.192-1.271C105.694,222.752,105.758,222.326,105.886,221.93z M106.924,224.21
		c0.1,0.292,0.238,0.535,0.414,0.732c0.176,0.195,0.382,0.346,0.618,0.449s0.486,0.156,0.75,0.156s0.514-0.053,0.75-0.156
		s0.442-0.254,0.618-0.449c0.176-0.197,0.314-0.44,0.414-0.732c0.1-0.292,0.15-0.626,0.15-1.002c0-0.377-0.05-0.71-0.15-1.002
		c-0.1-0.293-0.238-0.538-0.414-0.738c-0.176-0.199-0.382-0.352-0.618-0.456s-0.486-0.156-0.75-0.156s-0.514,0.052-0.75,0.156
		s-0.442,0.257-0.618,0.456c-0.176,0.2-0.314,0.445-0.414,0.738c-0.1,0.292-0.15,0.625-0.15,1.002
		C106.774,223.584,106.824,223.918,106.924,224.21z"/>
	<path display="inline" fill="#0072BC" d="M113.842,220.1v1.308h0.024c0.248-0.504,0.552-0.875,0.912-1.115
		c0.36-0.24,0.816-0.352,1.368-0.336v1.08c-0.408,0-0.756,0.056-1.044,0.168c-0.288,0.111-0.521,0.275-0.696,0.492
		c-0.176,0.215-0.304,0.478-0.384,0.785c-0.08,0.309-0.12,0.662-0.12,1.062v2.76h-1.02V220.1H113.842z"/>
	<path display="inline" fill="#0072BC" d="M122.733,226.304v-6.096h-2.208v-0.816c0.288,0,0.568-0.021,0.84-0.066
		c0.272-0.043,0.518-0.125,0.738-0.246c0.22-0.119,0.406-0.283,0.558-0.491c0.152-0.208,0.256-0.472,0.312-0.792h0.78v8.508
		L122.733,226.304L122.733,226.304z"/>
	<path display="inline" fill="#0072BC" d="M130.678,219.044c-0.248-0.232-0.576-0.348-0.984-0.348c-0.432,0-0.78,0.105-1.044,0.317
		c-0.264,0.212-0.47,0.479-0.618,0.804c-0.148,0.325-0.25,0.674-0.306,1.051c-0.056,0.375-0.088,0.728-0.096,1.056l0.024,0.024
		c0.24-0.393,0.538-0.676,0.894-0.854c0.356-0.176,0.766-0.265,1.23-0.265c0.408,0,0.774,0.07,1.098,0.211
		c0.324,0.14,0.596,0.334,0.816,0.582c0.22,0.248,0.39,0.539,0.51,0.875c0.12,0.337,0.18,0.701,0.18,1.093
		c0,0.312-0.048,0.636-0.144,0.972c-0.096,0.336-0.254,0.643-0.474,0.918c-0.22,0.276-0.512,0.504-0.876,0.684
		c-0.364,0.181-0.814,0.271-1.35,0.271c-0.632,0-1.14-0.128-1.524-0.384c-0.384-0.256-0.68-0.584-0.888-0.984
		c-0.208-0.399-0.346-0.84-0.414-1.32c-0.068-0.479-0.102-0.943-0.102-1.392c0-0.583,0.05-1.149,0.15-1.698
		c0.1-0.547,0.27-1.033,0.51-1.457c0.24-0.424,0.56-0.764,0.96-1.021c0.4-0.256,0.904-0.384,1.512-0.384
		c0.704,0,1.264,0.186,1.68,0.558s0.656,0.91,0.72,1.614h-1.02C131.074,219.583,130.926,219.277,130.678,219.044z M128.83,221.882
		c-0.216,0.1-0.4,0.236-0.552,0.408c-0.152,0.172-0.266,0.376-0.342,0.611c-0.076,0.236-0.114,0.486-0.114,0.75
		s0.04,0.512,0.12,0.744s0.194,0.432,0.342,0.6s0.332,0.303,0.552,0.402c0.22,0.101,0.47,0.15,0.75,0.15
		c0.28,0,0.526-0.05,0.738-0.15c0.212-0.1,0.39-0.238,0.534-0.414c0.144-0.176,0.254-0.378,0.33-0.605
		c0.076-0.229,0.114-0.467,0.114-0.715c0-0.264-0.034-0.514-0.102-0.75c-0.068-0.235-0.174-0.439-0.318-0.611
		c-0.144-0.172-0.324-0.311-0.54-0.414c-0.216-0.103-0.468-0.156-0.756-0.156S129.046,221.783,128.83,221.882z"/>
	<path display="inline" fill="#0072BC" d="M134.65,220.1v0.841h0.024c0.168-0.345,0.432-0.595,0.792-0.75
		c0.36-0.156,0.756-0.234,1.188-0.234c0.48,0,0.898,0.088,1.254,0.264c0.356,0.176,0.652,0.414,0.888,0.714
		c0.236,0.3,0.414,0.646,0.534,1.038c0.12,0.393,0.18,0.809,0.18,1.248s-0.058,0.855-0.174,1.248
		c-0.116,0.394-0.292,0.734-0.528,1.025c-0.236,0.293-0.532,0.522-0.888,0.69s-0.771,0.252-1.242,0.252
		c-0.152,0-0.322-0.017-0.51-0.048c-0.188-0.032-0.374-0.084-0.558-0.156c-0.184-0.072-0.358-0.17-0.522-0.294
		s-0.302-0.278-0.414-0.462h-0.024v3.191h-1.02V220.1H134.65z M138.316,222.302c-0.076-0.275-0.192-0.521-0.348-0.738
		c-0.156-0.216-0.356-0.388-0.6-0.516c-0.244-0.128-0.53-0.192-0.858-0.192c-0.344,0-0.636,0.068-0.876,0.204
		c-0.24,0.137-0.436,0.314-0.588,0.534c-0.152,0.22-0.262,0.47-0.33,0.75c-0.068,0.28-0.102,0.563-0.102,0.853
		c0,0.304,0.036,0.598,0.108,0.881c0.072,0.285,0.186,0.535,0.342,0.75c0.156,0.217,0.358,0.391,0.606,0.522
		c0.248,0.132,0.548,0.198,0.9,0.198s0.646-0.068,0.882-0.204c0.236-0.136,0.426-0.315,0.57-0.54
		c0.144-0.224,0.248-0.479,0.312-0.768c0.064-0.289,0.096-0.584,0.096-0.889C138.43,222.861,138.392,222.578,138.316,222.302z"/>
	<path display="inline" fill="#0072BC" d="M140.217,220.1h1.308l1.488,2.172l1.548-2.172h1.224l-2.136,2.856l2.4,3.348h-1.308
		l-1.728-2.568l-1.728,2.568h-1.236l2.328-3.264L140.217,220.1z"/>
	<path display="inline" fill="#0072BC" d="M150.225,222.488v0.961h-3.468v-0.961H150.225z"/>
	<path display="inline" fill="#0072BC" d="M154.077,226.304v-6.096h-2.208v-0.816c0.288,0,0.568-0.021,0.84-0.066
		c0.272-0.043,0.518-0.125,0.738-0.246c0.22-0.119,0.406-0.283,0.558-0.491c0.152-0.208,0.256-0.472,0.312-0.792h0.78v8.508
		L154.077,226.304L154.077,226.304z"/>
	<path display="inline" fill="#0072BC" d="M158.157,219.609c0.112-0.369,0.286-0.687,0.522-0.955
		c0.236-0.268,0.53-0.478,0.882-0.629c0.352-0.152,0.752-0.229,1.2-0.229c0.368,0,0.714,0.054,1.038,0.162
		c0.324,0.107,0.606,0.264,0.846,0.468c0.24,0.204,0.43,0.458,0.57,0.762c0.14,0.304,0.21,0.656,0.21,1.056
		c0,0.377-0.058,0.709-0.174,0.996c-0.116,0.289-0.27,0.547-0.462,0.774s-0.412,0.435-0.66,0.618
		c-0.248,0.183-0.504,0.359-0.768,0.527c-0.264,0.16-0.528,0.318-0.792,0.475c-0.264,0.156-0.506,0.322-0.726,0.498
		c-0.22,0.176-0.408,0.365-0.564,0.57c-0.156,0.203-0.258,0.438-0.306,0.701h4.368v0.9h-5.556c0.04-0.504,0.13-0.934,0.27-1.29
		c0.14-0.356,0.318-0.666,0.534-0.931c0.216-0.264,0.46-0.495,0.732-0.695c0.271-0.199,0.556-0.388,0.852-0.563
		c0.36-0.224,0.676-0.43,0.948-0.617s0.498-0.379,0.678-0.57c0.18-0.191,0.316-0.4,0.408-0.624c0.092-0.224,0.138-0.483,0.138-0.78
		c0-0.231-0.044-0.441-0.132-0.63c-0.088-0.188-0.206-0.35-0.354-0.485c-0.148-0.137-0.322-0.24-0.522-0.312
		c-0.2-0.072-0.412-0.107-0.636-0.107c-0.296,0-0.55,0.062-0.762,0.186s-0.386,0.286-0.522,0.486
		c-0.136,0.199-0.234,0.426-0.294,0.678s-0.086,0.506-0.078,0.762h-1.02C158.001,220.376,158.045,219.976,158.157,219.609z"/>
	<path display="inline" fill="#0072BC" d="M164.697,221.156c0.016-0.336,0.056-0.664,0.12-0.983
		c0.064-0.319,0.156-0.624,0.276-0.912c0.12-0.288,0.284-0.54,0.492-0.756c0.208-0.216,0.47-0.388,0.786-0.517
		c0.316-0.127,0.694-0.191,1.134-0.191s0.818,0.064,1.134,0.191c0.316,0.129,0.578,0.301,0.786,0.517
		c0.208,0.216,0.372,0.468,0.492,0.756c0.12,0.288,0.212,0.593,0.276,0.912c0.064,0.319,0.104,0.647,0.12,0.983
		c0.016,0.336,0.024,0.66,0.024,0.973s-0.008,0.636-0.024,0.972s-0.056,0.664-0.12,0.983c-0.064,0.32-0.156,0.623-0.276,0.906
		c-0.12,0.285-0.284,0.535-0.492,0.75c-0.208,0.217-0.468,0.387-0.78,0.51c-0.312,0.125-0.692,0.187-1.14,0.187
		c-0.44,0-0.818-0.062-1.134-0.187c-0.316-0.123-0.578-0.293-0.786-0.51c-0.208-0.215-0.372-0.465-0.492-0.75
		c-0.12-0.283-0.212-0.586-0.276-0.906c-0.064-0.319-0.104-0.647-0.12-0.983c-0.016-0.336-0.024-0.659-0.024-0.972
		S164.681,221.492,164.697,221.156z M165.783,223.191c0.02,0.396,0.084,0.768,0.192,1.115c0.108,0.347,0.282,0.643,0.522,0.882
		c0.24,0.24,0.576,0.36,1.008,0.36c0.432,0,0.768-0.12,1.008-0.36c0.24-0.239,0.414-0.534,0.522-0.882
		c0.108-0.348,0.172-0.72,0.192-1.115c0.02-0.396,0.03-0.755,0.03-1.074c0-0.209-0.002-0.438-0.006-0.69s-0.024-0.504-0.06-0.756
		c-0.036-0.253-0.088-0.498-0.156-0.738c-0.068-0.239-0.168-0.45-0.3-0.63c-0.132-0.18-0.298-0.326-0.498-0.438
		c-0.2-0.112-0.444-0.168-0.732-0.168s-0.532,0.056-0.732,0.168c-0.2,0.111-0.366,0.258-0.498,0.438
		c-0.132,0.18-0.232,0.391-0.3,0.63c-0.068,0.24-0.12,0.485-0.156,0.738c-0.036,0.252-0.056,0.504-0.06,0.756
		c-0.004,0.252-0.006,0.481-0.006,0.69C165.753,222.436,165.763,222.794,165.783,223.191z"/>
	<path display="inline" fill="#0072BC" d="M172.666,220.1v0.841h0.024c0.168-0.345,0.432-0.595,0.792-0.75
		c0.36-0.156,0.756-0.234,1.188-0.234c0.48,0,0.898,0.088,1.254,0.264c0.356,0.176,0.652,0.414,0.888,0.714
		c0.236,0.3,0.414,0.646,0.534,1.038c0.12,0.393,0.18,0.809,0.18,1.248s-0.058,0.855-0.174,1.248
		c-0.116,0.394-0.292,0.734-0.528,1.025c-0.236,0.293-0.532,0.522-0.888,0.69s-0.771,0.252-1.242,0.252
		c-0.152,0-0.322-0.017-0.51-0.048c-0.188-0.032-0.374-0.084-0.558-0.156c-0.184-0.072-0.358-0.17-0.522-0.294
		s-0.302-0.278-0.414-0.462h-0.024v3.191h-1.02V220.1H172.666z M176.332,222.302c-0.076-0.275-0.192-0.521-0.348-0.738
		c-0.156-0.216-0.356-0.388-0.6-0.516c-0.244-0.128-0.53-0.192-0.858-0.192c-0.344,0-0.636,0.068-0.876,0.204
		c-0.24,0.137-0.436,0.314-0.588,0.534c-0.152,0.22-0.262,0.47-0.33,0.75c-0.068,0.28-0.102,0.563-0.102,0.853
		c0,0.304,0.036,0.598,0.108,0.881c0.072,0.285,0.186,0.535,0.342,0.75c0.156,0.217,0.358,0.391,0.606,0.522
		c0.248,0.132,0.548,0.198,0.9,0.198s0.646-0.068,0.882-0.204c0.236-0.136,0.426-0.315,0.57-0.54
		c0.144-0.224,0.248-0.479,0.312-0.768c0.064-0.289,0.096-0.584,0.096-0.889C176.445,222.861,176.407,222.578,176.332,222.302z"/>
	<path display="inline" fill="#0072BC" d="M178.233,220.1h1.308l1.488,2.172l1.548-2.172h1.224l-2.136,2.856l2.4,3.348h-1.308
		l-1.728-2.568l-1.728,2.568h-1.236l2.328-3.264L178.233,220.1z"/>
</g>
<g display="none">
	<path display="inline" fill="#0072BC" d="M335.633,203.335v7.607h4.536v0.961h-5.676v-8.568H335.633z"/>
	<path display="inline" fill="#0072BC" d="M345.761,212.035c-0.264,0-0.475-0.073-0.631-0.221c-0.155-0.148-0.233-0.391-0.233-0.727
		c-0.279,0.336-0.605,0.578-0.978,0.727c-0.373,0.147-0.774,0.221-1.207,0.221c-0.279,0-0.543-0.029-0.791-0.09
		c-0.248-0.06-0.467-0.16-0.654-0.299c-0.188-0.141-0.336-0.32-0.442-0.541c-0.109-0.22-0.162-0.486-0.162-0.798
		c0-0.352,0.06-0.64,0.18-0.864c0.119-0.224,0.277-0.405,0.475-0.545c0.195-0.141,0.42-0.246,0.672-0.318
		c0.252-0.072,0.511-0.133,0.773-0.18c0.279-0.057,0.546-0.099,0.798-0.127c0.253-0.027,0.475-0.067,0.666-0.119
		c0.192-0.053,0.345-0.129,0.456-0.229c0.111-0.1,0.168-0.246,0.168-0.438c0-0.225-0.042-0.404-0.126-0.541
		c-0.084-0.135-0.191-0.239-0.323-0.312c-0.133-0.071-0.28-0.12-0.444-0.144c-0.164-0.024-0.326-0.037-0.485-0.037
		c-0.433,0-0.792,0.083-1.08,0.246c-0.288,0.164-0.443,0.475-0.468,0.931h-1.021c0.017-0.384,0.097-0.708,0.239-0.972
		c0.144-0.264,0.336-0.479,0.575-0.643c0.24-0.164,0.518-0.281,0.828-0.354c0.312-0.072,0.641-0.108,0.984-0.108
		c0.279,0,0.559,0.021,0.834,0.061c0.275,0.041,0.525,0.123,0.75,0.246c0.225,0.125,0.403,0.299,0.54,0.522
		c0.136,0.223,0.204,0.517,0.204,0.876v3.191c0,0.24,0.014,0.416,0.042,0.529c0.027,0.111,0.122,0.168,0.281,0.168
		c0.089,0,0.191-0.021,0.312-0.061v0.792C346.317,211.984,346.074,212.035,345.761,212.035z M344.333,208.91
		c-0.209,0.044-0.426,0.08-0.654,0.107c-0.229,0.028-0.459,0.061-0.689,0.096c-0.231,0.037-0.44,0.095-0.624,0.174
		c-0.185,0.08-0.334,0.195-0.449,0.343c-0.117,0.147-0.174,0.351-0.174,0.606c0,0.168,0.033,0.31,0.102,0.426
		c0.067,0.115,0.156,0.209,0.265,0.281c0.107,0.072,0.235,0.125,0.385,0.156c0.146,0.032,0.297,0.049,0.449,0.049
		c0.336,0,0.624-0.047,0.863-0.139c0.239-0.092,0.437-0.208,0.589-0.348c0.15-0.141,0.265-0.293,0.336-0.457
		c0.07-0.163,0.107-0.317,0.107-0.461v-1.045C344.708,208.795,344.541,208.865,344.333,208.91z"/>
	<path display="inline" fill="#0072BC" d="M348.365,205.699v1.309h0.022c0.248-0.504,0.554-0.876,0.912-1.116
		c0.36-0.239,0.816-0.352,1.369-0.336v1.08c-0.408,0-0.756,0.056-1.045,0.168c-0.287,0.112-0.521,0.276-0.695,0.492
		c-0.175,0.216-0.305,0.478-0.385,0.786s-0.119,0.662-0.119,1.062v2.76h-1.021v-6.205H348.365z"/>
	<path display="inline" fill="#0072BC" d="M355.757,213.656c-0.465,0.504-1.191,0.756-2.184,0.756c-0.289,0-0.582-0.032-0.883-0.096
		s-0.572-0.168-0.816-0.312s-0.445-0.332-0.605-0.564c-0.159-0.232-0.247-0.516-0.264-0.852h1.021
		c0.008,0.184,0.065,0.34,0.174,0.468c0.107,0.128,0.24,0.231,0.396,0.312c0.156,0.081,0.326,0.139,0.511,0.175
		c0.184,0.036,0.358,0.054,0.526,0.054c0.337,0,0.621-0.059,0.854-0.174c0.23-0.116,0.425-0.275,0.575-0.48
		c0.151-0.203,0.263-0.449,0.33-0.738c0.067-0.287,0.104-0.604,0.104-0.947v-0.408h-0.024c-0.177,0.385-0.441,0.666-0.798,0.846
		c-0.355,0.181-0.734,0.271-1.135,0.271c-0.464,0-0.867-0.084-1.211-0.252c-0.346-0.168-0.633-0.394-0.865-0.679
		c-0.23-0.283-0.406-0.615-0.521-0.996c-0.116-0.379-0.175-0.781-0.175-1.205c0-0.368,0.049-0.746,0.146-1.135
		c0.096-0.387,0.256-0.739,0.479-1.056c0.225-0.315,0.521-0.575,0.889-0.78c0.367-0.203,0.819-0.306,1.354-0.306
		c0.394,0,0.752,0.087,1.08,0.259c0.328,0.172,0.584,0.43,0.77,0.773h0.013v-0.889h0.959v5.677
		C356.453,212.391,356.22,213.152,355.757,213.656z M354.455,210.865c0.236-0.139,0.426-0.323,0.57-0.551
		c0.145-0.229,0.25-0.486,0.317-0.774s0.103-0.576,0.103-0.864c0-0.271-0.031-0.54-0.097-0.805
		c-0.063-0.264-0.166-0.502-0.307-0.713c-0.14-0.213-0.322-0.383-0.545-0.51c-0.226-0.129-0.496-0.193-0.816-0.193
		c-0.328,0-0.607,0.062-0.84,0.187c-0.231,0.124-0.422,0.29-0.57,0.498c-0.147,0.208-0.256,0.448-0.323,0.72
		c-0.068,0.272-0.103,0.557-0.103,0.853c0,0.28,0.027,0.56,0.084,0.84c0.057,0.28,0.152,0.534,0.287,0.763
		c0.137,0.228,0.316,0.412,0.541,0.551c0.224,0.141,0.504,0.211,0.84,0.211S354.218,211.005,354.455,210.865z"/>
	<path display="inline" fill="#0072BC" d="M362.38,211.507c-0.464,0.352-1.048,0.527-1.752,0.527c-0.496,0-0.926-0.08-1.289-0.239
		c-0.365-0.16-0.671-0.384-0.918-0.672c-0.248-0.288-0.435-0.632-0.559-1.032c-0.124-0.4-0.194-0.836-0.21-1.309
		c0-0.471,0.07-0.903,0.216-1.295c0.145-0.393,0.346-0.732,0.604-1.021c0.26-0.289,0.568-0.512,0.926-0.672
		c0.354-0.16,0.744-0.24,1.17-0.24c0.552,0,1.01,0.114,1.374,0.343c0.362,0.228,0.655,0.518,0.876,0.869
		c0.22,0.353,0.372,0.736,0.456,1.152s0.116,0.812,0.102,1.188h-4.644c-0.01,0.272,0.023,0.53,0.096,0.774s0.188,0.46,0.349,0.647
		c0.159,0.188,0.363,0.338,0.611,0.451c0.248,0.111,0.54,0.168,0.876,0.168c0.433,0,0.786-0.101,1.062-0.301
		c0.277-0.199,0.459-0.504,0.548-0.912h1.008C363.144,210.631,362.845,211.156,362.38,211.507z M362.134,207.523
		c-0.092-0.216-0.215-0.402-0.371-0.558c-0.155-0.156-0.341-0.28-0.553-0.372c-0.212-0.092-0.445-0.139-0.701-0.139
		c-0.265,0-0.503,0.047-0.715,0.139c-0.212,0.092-0.395,0.219-0.546,0.378c-0.151,0.16-0.272,0.347-0.36,0.558
		c-0.088,0.213-0.14,0.438-0.154,0.679h3.562C362.281,207.967,362.226,207.74,362.134,207.523z"/>
	<path display="inline" fill="#0072BC" d="M365.357,205.699v1.309h0.022c0.248-0.504,0.553-0.876,0.912-1.116
		c0.359-0.239,0.816-0.352,1.368-0.336v1.08c-0.408,0-0.756,0.056-1.044,0.168c-0.288,0.112-0.521,0.276-0.696,0.492
		c-0.175,0.216-0.304,0.478-0.384,0.786s-0.12,0.662-0.12,1.062v2.76h-1.021v-6.205H365.357z"/>
	<path display="inline" fill="#0072BC" d="M318.257,221v-0.9h1.044v-0.924c0-0.504,0.146-0.887,0.438-1.146
		c0.291-0.26,0.717-0.39,1.276-0.39c0.097,0,0.206,0.009,0.33,0.024s0.234,0.039,0.33,0.072v0.887
		c-0.088-0.031-0.184-0.053-0.288-0.065c-0.104-0.012-0.2-0.019-0.288-0.019c-0.248,0-0.438,0.049-0.575,0.145
		s-0.203,0.28-0.203,0.553v0.863h1.198v0.9h-1.198v5.304H319.3V221H318.257z"/>
	<path display="inline" fill="#0072BC" d="M322.289,221.929c0.129-0.396,0.32-0.74,0.576-1.031c0.256-0.293,0.571-0.523,0.947-0.691
		c0.377-0.168,0.809-0.252,1.297-0.252c0.496,0,0.93,0.084,1.303,0.252c0.371,0.168,0.686,0.398,0.94,0.691
		c0.257,0.291,0.447,0.635,0.576,1.031c0.128,0.396,0.191,0.822,0.191,1.277c0,0.457-0.063,0.881-0.191,1.272
		c-0.129,0.392-0.319,0.734-0.576,1.026c-0.256,0.292-0.569,0.52-0.94,0.684c-0.373,0.164-0.807,0.246-1.303,0.246
		c-0.488,0-0.92-0.082-1.297-0.246c-0.375-0.164-0.691-0.392-0.947-0.684s-0.447-0.635-0.576-1.026
		c-0.127-0.392-0.191-0.815-0.191-1.272C322.097,222.751,322.162,222.326,322.289,221.929z M323.328,224.208
		c0.1,0.293,0.237,0.537,0.414,0.732c0.176,0.196,0.381,0.346,0.617,0.45c0.235,0.104,0.485,0.156,0.75,0.156
		c0.264,0,0.514-0.052,0.75-0.156c0.235-0.104,0.44-0.254,0.617-0.45c0.177-0.195,0.313-0.439,0.414-0.732
		c0.102-0.291,0.149-0.625,0.149-1.002c0-0.375-0.049-0.709-0.149-1.002c-0.101-0.291-0.237-0.537-0.414-0.737
		c-0.177-0.2-0.382-0.353-0.617-0.456c-0.236-0.103-0.486-0.156-0.75-0.156c-0.265,0-0.515,0.053-0.75,0.156
		c-0.236,0.104-0.441,0.256-0.617,0.456c-0.177,0.2-0.314,0.446-0.414,0.737c-0.102,0.293-0.15,0.627-0.15,1.002
		C323.177,223.583,323.227,223.917,323.328,224.208z"/>
	<path display="inline" fill="#0072BC" d="M330.246,220.099v1.309h0.022c0.248-0.504,0.554-0.877,0.912-1.117
		c0.359-0.239,0.816-0.352,1.368-0.336v1.08c-0.408,0-0.756,0.057-1.044,0.168c-0.288,0.113-0.521,0.276-0.696,0.492
		c-0.176,0.217-0.304,0.479-0.384,0.787c-0.08,0.307-0.12,0.661-0.12,1.062v2.76h-1.021V220.1L330.246,220.099L330.246,220.099z"/>
	<path display="inline" fill="#0072BC" d="M339.136,226.303v-6.097h-2.207v-0.815c0.287,0,0.567-0.022,0.84-0.065
		c0.271-0.045,0.519-0.127,0.738-0.246c0.219-0.121,0.405-0.284,0.559-0.492c0.15-0.208,0.256-0.473,0.312-0.792h0.78v8.508
		L339.136,226.303L339.136,226.303z"/>
	<path display="inline" fill="#0072BC" d="M343.217,219.607c0.112-0.367,0.286-0.686,0.522-0.953
		c0.234-0.269,0.528-0.479,0.881-0.631c0.353-0.151,0.752-0.228,1.201-0.228c0.367,0,0.713,0.054,1.037,0.161
		c0.323,0.109,0.605,0.265,0.846,0.469c0.24,0.204,0.431,0.458,0.57,0.762c0.141,0.305,0.211,0.656,0.211,1.057
		c0,0.375-0.06,0.707-0.176,0.996c-0.115,0.287-0.271,0.545-0.462,0.773c-0.19,0.228-0.412,0.434-0.659,0.618
		c-0.248,0.184-0.505,0.36-0.769,0.528c-0.264,0.16-0.528,0.317-0.793,0.474c-0.264,0.155-0.506,0.322-0.725,0.498
		c-0.222,0.176-0.408,0.366-0.564,0.569c-0.156,0.205-0.258,0.438-0.307,0.703h4.369v0.899h-5.558c0.04-0.504,0.13-0.935,0.271-1.29
		c0.141-0.354,0.317-0.666,0.533-0.93c0.217-0.264,0.461-0.496,0.732-0.696c0.271-0.2,0.556-0.388,0.852-0.562
		c0.36-0.225,0.678-0.431,0.948-0.619c0.271-0.188,0.498-0.377,0.679-0.569c0.18-0.192,0.315-0.399,0.407-0.624
		c0.093-0.225,0.14-0.484,0.14-0.779c0-0.232-0.045-0.443-0.134-0.631c-0.088-0.188-0.205-0.35-0.354-0.486
		c-0.148-0.135-0.322-0.24-0.522-0.312c-0.199-0.072-0.411-0.108-0.636-0.108c-0.297,0-0.551,0.062-0.762,0.187
		c-0.213,0.124-0.387,0.286-0.522,0.485c-0.136,0.201-0.232,0.427-0.294,0.679c-0.061,0.252-0.086,0.506-0.078,0.762h-1.02
		C343.061,220.375,343.105,219.975,343.217,219.607z"/>
	<path display="inline" fill="#0072BC" d="M349.757,221.156c0.017-0.336,0.056-0.664,0.119-0.984
		c0.064-0.32,0.156-0.624,0.276-0.912c0.119-0.288,0.283-0.54,0.491-0.756c0.208-0.217,0.471-0.389,0.786-0.516
		c0.316-0.129,0.693-0.192,1.135-0.192c0.44,0,0.816,0.063,1.134,0.192c0.315,0.127,0.578,0.299,0.786,0.516
		c0.208,0.216,0.372,0.468,0.491,0.756c0.12,0.288,0.213,0.592,0.276,0.912c0.063,0.32,0.104,0.648,0.119,0.984
		c0.017,0.336,0.023,0.66,0.023,0.972s-0.008,0.636-0.023,0.972s-0.056,0.664-0.119,0.984s-0.156,0.622-0.276,0.906
		c-0.119,0.283-0.283,0.533-0.491,0.75c-0.208,0.215-0.469,0.386-0.78,0.51c-0.312,0.123-0.691,0.186-1.14,0.186
		c-0.44,0-0.817-0.062-1.135-0.186c-0.315-0.124-0.578-0.295-0.786-0.51c-0.208-0.217-0.372-0.467-0.491-0.75
		c-0.12-0.284-0.212-0.586-0.276-0.906c-0.063-0.32-0.104-0.648-0.119-0.984c-0.017-0.336-0.023-0.66-0.023-0.972
		S349.741,221.492,349.757,221.156z M350.843,223.189c0.021,0.396,0.084,0.768,0.191,1.116c0.107,0.349,0.282,0.642,0.521,0.882
		s0.575,0.36,1.009,0.36c0.433,0,0.769-0.12,1.009-0.36c0.239-0.24,0.413-0.533,0.521-0.882c0.107-0.349,0.172-0.72,0.191-1.116
		s0.03-0.754,0.03-1.074c0-0.207-0.003-0.438-0.007-0.689c-0.005-0.252-0.023-0.504-0.06-0.756
		c-0.037-0.252-0.088-0.498-0.156-0.738c-0.067-0.24-0.168-0.449-0.301-0.63c-0.131-0.181-0.297-0.325-0.498-0.438
		c-0.199-0.111-0.443-0.168-0.73-0.168c-0.288,0-0.532,0.057-0.731,0.168c-0.201,0.113-0.367,0.258-0.498,0.438
		c-0.133,0.181-0.232,0.39-0.301,0.63c-0.069,0.24-0.119,0.486-0.156,0.738c-0.035,0.252-0.056,0.504-0.06,0.756
		s-0.007,0.482-0.007,0.689C350.812,222.435,350.823,222.793,350.843,223.189z"/>
	<path display="inline" fill="#0072BC" d="M357.725,220.099v0.84h0.024c0.168-0.344,0.432-0.594,0.791-0.75
		c0.36-0.156,0.756-0.234,1.188-0.234c0.479,0,0.897,0.089,1.255,0.265c0.355,0.177,0.65,0.414,0.888,0.714
		c0.235,0.301,0.414,0.646,0.534,1.038s0.181,0.808,0.181,1.248c0,0.44-0.059,0.856-0.175,1.248
		c-0.116,0.392-0.292,0.733-0.528,1.026c-0.235,0.291-0.531,0.521-0.887,0.689c-0.357,0.168-0.771,0.252-1.242,0.252
		c-0.152,0-0.322-0.016-0.511-0.048c-0.189-0.032-0.374-0.084-0.559-0.155c-0.184-0.072-0.357-0.17-0.521-0.295
		c-0.164-0.123-0.303-0.277-0.414-0.462h-0.024v3.192h-1.021v-8.568H357.725z M361.391,222.301
		c-0.075-0.276-0.191-0.522-0.349-0.738s-0.355-0.388-0.6-0.516c-0.245-0.128-0.53-0.192-0.857-0.192
		c-0.345,0-0.637,0.068-0.877,0.204c-0.24,0.136-0.437,0.313-0.588,0.534c-0.152,0.221-0.262,0.471-0.33,0.75
		c-0.068,0.28-0.103,0.564-0.103,0.852c0,0.305,0.036,0.599,0.107,0.883c0.072,0.283,0.188,0.533,0.342,0.75
		c0.156,0.216,0.358,0.39,0.607,0.521c0.247,0.133,0.547,0.198,0.898,0.198c0.353,0,0.646-0.067,0.883-0.204
		c0.235-0.136,0.426-0.316,0.569-0.54c0.145-0.224,0.248-0.479,0.312-0.769c0.062-0.287,0.097-0.584,0.097-0.887
		C361.505,222.859,361.466,222.578,361.391,222.301z"/>
	<path display="inline" fill="#0072BC" d="M363.292,220.099h1.309l1.487,2.172l1.548-2.172h1.226l-2.138,2.855l2.4,3.349h-1.309
		l-1.729-2.567l-1.728,2.567h-1.236l2.328-3.265L363.292,220.099z"/>
	<path display="inline" fill="#0072BC" d="M379.193,222.859v0.816h-2.616v2.628h-0.815v-2.628h-2.615v-0.816h2.615v-2.627h0.815
		v2.627H379.193z"/>
</g>
<path display="none" fill="#FFFFFF" d="M152.608,383.44c-8.995,0-16.289,7.293-16.289,16.291c0,7.195,4.667,13.302,11.141,15.456
	c0.814,0.148,1.112-0.354,1.112-0.785c0-0.388-0.014-1.411-0.022-2.771c-4.531,0.984-5.487-2.184-5.487-2.184
	c-0.741-1.882-1.809-2.383-1.809-2.383c-1.479-1.012,0.112-0.99,0.112-0.99c1.635,0.115,2.495,1.679,2.495,1.679
	c1.453,2.489,3.812,1.771,4.741,1.354c0.148-1.054,0.569-1.771,1.034-2.179c-3.617-0.411-7.42-1.809-7.42-8.051
	c0-1.778,0.635-3.232,1.677-4.371c-0.167-0.412-0.727-2.068,0.16-4.311c0,0,1.368-0.438,4.479,1.67
	c1.299-0.361,2.693-0.543,4.078-0.549c1.383,0.006,2.777,0.188,4.078,0.549c3.11-2.108,4.475-1.67,4.475-1.67
	c0.889,2.242,0.33,3.898,0.162,4.311c1.044,1.139,1.674,2.593,1.674,4.371c0,6.258-3.809,7.635-7.438,8.038
	c0.585,0.503,1.106,1.497,1.106,3.017c0,2.179-0.02,3.936-0.02,4.47c0,0.436,0.293,0.941,1.12,0.782
	c6.467-2.157,11.13-8.26,11.13-15.453C168.899,390.733,161.605,383.44,152.608,383.44z"/>
<g>
	<path fill="#FFFFFF" d="M265.485,20.354c-144.738,0-262.11,117.345-262.11,262.11c0,115.808,75.103,214.057,179.247,248.718
		c13.097,2.424,17.909-5.688,17.909-12.608c0-6.249-0.241-26.899-0.355-48.801c-72.919,15.857-88.306-30.926-88.306-30.926
		c-11.924-30.295-29.102-38.354-29.102-38.354c-23.784-16.269,1.793-15.933,1.793-15.933c26.318,1.848,40.179,27.013,40.179,27.013
		c23.377,40.069,61.317,28.484,76.277,21.787c2.353-16.938,9.144-28.504,16.643-35.049
		c-58.221-6.625-119.424-29.104-119.424-129.537c0-28.615,10.241-51.996,27.01-70.353c-2.722-6.606-11.696-33.263,2.539-69.368
		c0,0,22.011-7.042,72.096,26.87c20.91-5.806,43.332-8.719,65.606-8.822c22.277,0.103,44.715,3.016,65.665,8.822
		c50.028-33.911,72.006-26.87,72.006-26.87c14.268,36.106,5.293,62.762,2.571,69.368c16.81,18.357,26.978,41.738,26.978,70.353
		c0,100.675-61.315,122.841-119.685,129.327c9.4,8.136,17.777,24.087,17.777,48.538c0,35.072-0.302,63.298-0.302,71.934
		c0,6.976,4.716,15.148,18.002,12.575C452.592,496.45,527.6,398.234,527.6,282.464C527.599,137.699,410.243,20.354,265.485,20.354z"
		/>
	<path fill="#FFFFFF" d="M102.651,396.685c-0.576,1.309-2.629,1.696-4.493,0.802c-1.903-0.856-2.966-2.633-2.352-3.939
		c0.564-1.339,2.615-1.712,4.514-0.816C102.225,393.585,103.309,395.381,102.651,396.685L102.651,396.685z"/>
	<path fill="#FFFFFF" d="M113.269,408.529c-1.25,1.158-3.696,0.618-5.353-1.212c-1.717-1.828-2.035-4.272-0.769-5.446
		c1.289-1.16,3.66-0.616,5.375,1.21C114.239,404.93,114.575,407.354,113.269,408.529L113.269,408.529z"/>
	<path fill="#FFFFFF" d="M123.603,423.624c-1.607,1.118-4.235,0.071-5.858-2.26c-1.606-2.331-1.606-5.129,0.037-6.249
		c1.623-1.117,4.214-0.109,5.858,2.2C125.244,419.686,125.244,422.481,123.603,423.624L123.603,423.624z"/>
	<path fill="#FFFFFF" d="M137.761,438.209c-1.437,1.586-4.498,1.157-6.735-1.005c-2.294-2.111-2.928-5.112-1.492-6.697
		c1.459-1.585,4.535-1.141,6.791,1.006C138.6,433.623,139.29,436.64,137.761,438.209L137.761,438.209z"/>
	<path fill="#FFFFFF" d="M157.293,446.676c-0.636,2.051-3.582,2.985-6.549,2.111c-2.968-0.898-4.904-3.302-4.306-5.373
		c0.614-2.07,3.578-3.04,6.565-2.108C155.965,442.2,157.907,444.588,157.293,446.676L157.293,446.676z"/>
	<path fill="#FFFFFF" d="M178.746,448.244c0.072,2.162-2.446,3.955-5.561,3.995c-3.132,0.072-5.671-1.679-5.705-3.807
		c0-2.183,2.462-3.955,5.594-4.009C176.19,444.363,178.746,446.102,178.746,448.244L178.746,448.244z"/>
	<path fill="#FFFFFF" d="M198.704,444.851c0.374,2.107-1.792,4.272-4.886,4.849c-3.043,0.561-5.858-0.747-6.248-2.835
		c-0.377-2.161,1.826-4.328,4.866-4.887C195.535,441.438,198.312,442.706,198.704,444.851L198.704,444.851z"/>
</g>
<g display="none">
	<g display="inline">
		
			<line fill="none" stroke="#1981BC" stroke-linecap="round" stroke-miterlimit="10" x1="224.898" y1="328.498" x2="224.898" y2="328.998"/>
		
			<line fill="none" stroke="#1981BC" stroke-linecap="round" stroke-miterlimit="10" stroke-dasharray="0.9999,1.9999" x1="224.898" y1="330.998" x2="224.898" y2="464.991"/>
		
			<line fill="none" stroke="#1981BC" stroke-linecap="round" stroke-miterlimit="10" x1="224.898" y1="465.991" x2="224.898" y2="466.491"/>
	</g>
</g>
<g display="none">
	<path display="inline" fill="#0072BC" d="M133.276,480.506c-0.38-0.275-0.866-0.414-1.458-0.414c-0.24,0-0.476,0.024-0.708,0.071
		c-0.232,0.049-0.438,0.129-0.618,0.24c-0.18,0.112-0.324,0.263-0.432,0.45c-0.108,0.188-0.162,0.423-0.162,0.701
		c0,0.265,0.078,0.479,0.234,0.644c0.156,0.164,0.364,0.298,0.624,0.4c0.26,0.104,0.554,0.19,0.882,0.26
		c0.328,0.066,0.662,0.142,1.002,0.221c0.34,0.08,0.674,0.175,1.002,0.283c0.328,0.106,0.622,0.254,0.882,0.438
		c0.26,0.185,0.468,0.416,0.624,0.695c0.156,0.281,0.234,0.633,0.234,1.057c0,0.456-0.102,0.847-0.306,1.17
		c-0.204,0.324-0.466,0.588-0.786,0.792s-0.678,0.354-1.074,0.444s-0.79,0.138-1.182,0.138c-0.48,0-0.934-0.06-1.362-0.18
		c-0.428-0.12-0.804-0.302-1.128-0.546s-0.58-0.557-0.768-0.938c-0.188-0.38-0.282-0.829-0.282-1.35h1.08
		c0,0.36,0.07,0.67,0.21,0.93c0.14,0.262,0.324,0.475,0.552,0.643s0.494,0.293,0.798,0.373c0.304,0.08,0.616,0.118,0.936,0.118
		c0.256,0,0.514-0.022,0.774-0.071c0.26-0.047,0.494-0.129,0.702-0.246c0.208-0.115,0.376-0.273,0.504-0.473
		c0.128-0.201,0.192-0.457,0.192-0.77c0-0.296-0.078-0.536-0.234-0.72c-0.156-0.185-0.364-0.334-0.624-0.45
		c-0.26-0.116-0.554-0.21-0.882-0.282s-0.662-0.146-1.002-0.223c-0.34-0.075-0.674-0.163-1.002-0.264s-0.623-0.231-0.882-0.396
		c-0.259-0.165-0.468-0.376-0.624-0.636c-0.156-0.261-0.234-0.586-0.234-0.979c0-0.432,0.088-0.806,0.264-1.122
		c0.176-0.314,0.41-0.575,0.702-0.779c0.292-0.203,0.624-0.355,0.996-0.455c0.372-0.102,0.754-0.15,1.146-0.15
		c0.44,0,0.848,0.053,1.224,0.156c0.376,0.103,0.706,0.268,0.99,0.492c0.284,0.224,0.508,0.506,0.672,0.846s0.254,0.746,0.27,1.218
		h-1.08C133.877,481.228,133.656,480.783,133.276,480.506z"/>
	<path display="inline" fill="#0072BC" d="M137.554,481.701v0.912h0.024c0.464-0.705,1.132-1.058,2.004-1.058
		c0.384,0,0.732,0.08,1.044,0.24s0.532,0.432,0.66,0.816c0.208-0.336,0.482-0.597,0.822-0.78c0.34-0.186,0.714-0.276,1.122-0.276
		c0.312,0,0.594,0.034,0.846,0.103c0.252,0.067,0.468,0.175,0.648,0.317c0.18,0.146,0.32,0.33,0.42,0.56
		c0.1,0.228,0.15,0.502,0.15,0.822v4.547h-1.02v-4.067c0-0.192-0.017-0.372-0.048-0.54c-0.031-0.168-0.092-0.313-0.18-0.438
		c-0.088-0.125-0.21-0.224-0.366-0.296c-0.156-0.071-0.358-0.106-0.606-0.106c-0.504,0-0.9,0.144-1.188,0.432
		c-0.288,0.288-0.432,0.672-0.432,1.152v3.863h-1.02v-4.067c0-0.2-0.018-0.384-0.054-0.552s-0.098-0.314-0.186-0.438
		s-0.206-0.22-0.354-0.288c-0.148-0.067-0.338-0.102-0.57-0.102c-0.296,0-0.55,0.06-0.762,0.18s-0.384,0.265-0.516,0.433
		c-0.132,0.168-0.228,0.342-0.288,0.521c-0.06,0.181-0.09,0.33-0.09,0.45v3.863h-1.02v-6.203H137.554L137.554,481.701z"/>
	<path display="inline" fill="#0072BC" d="M151.594,488.037c-0.264,0-0.474-0.074-0.63-0.223c-0.156-0.147-0.234-0.391-0.234-0.727
		c-0.28,0.336-0.606,0.578-0.978,0.727c-0.372,0.147-0.774,0.223-1.206,0.223c-0.28,0-0.544-0.03-0.792-0.09
		c-0.248-0.062-0.466-0.16-0.654-0.301s-0.336-0.319-0.444-0.539c-0.108-0.222-0.162-0.486-0.162-0.8c0-0.352,0.06-0.64,0.18-0.862
		c0.12-0.226,0.278-0.406,0.474-0.547s0.42-0.246,0.672-0.318c0.252-0.071,0.51-0.131,0.774-0.18
		c0.28-0.057,0.546-0.099,0.798-0.125c0.252-0.028,0.474-0.068,0.666-0.121c0.192-0.052,0.344-0.127,0.456-0.229
		c0.112-0.101,0.168-0.246,0.168-0.438c0-0.224-0.042-0.403-0.126-0.539c-0.084-0.137-0.192-0.24-0.324-0.312
		c-0.132-0.071-0.28-0.12-0.444-0.145c-0.164-0.023-0.326-0.035-0.486-0.035c-0.432,0-0.792,0.082-1.08,0.246
		c-0.288,0.164-0.444,0.474-0.468,0.93h-1.02c0.016-0.384,0.096-0.708,0.24-0.973c0.144-0.264,0.336-0.479,0.576-0.643
		c0.24-0.162,0.516-0.281,0.828-0.354c0.312-0.071,0.64-0.107,0.984-0.107c0.28,0,0.558,0.021,0.834,0.062
		c0.276,0.039,0.526,0.121,0.75,0.246c0.224,0.123,0.404,0.298,0.54,0.521c0.136,0.226,0.204,0.517,0.204,0.876v3.192
		c0,0.24,0.014,0.416,0.042,0.527s0.122,0.168,0.282,0.168c0.088,0,0.192-0.021,0.312-0.061v0.792
		C152.149,487.984,151.906,488.037,151.594,488.037z M150.166,484.91c-0.208,0.045-0.426,0.08-0.654,0.107
		c-0.228,0.028-0.458,0.061-0.69,0.098c-0.232,0.035-0.44,0.094-0.624,0.174c-0.185,0.08-0.334,0.193-0.45,0.342
		c-0.116,0.148-0.174,0.351-0.174,0.605c0,0.168,0.034,0.311,0.102,0.426c0.068,0.117,0.156,0.211,0.264,0.283
		c0.108,0.07,0.236,0.123,0.384,0.154c0.148,0.032,0.298,0.049,0.45,0.049c0.336,0,0.624-0.046,0.864-0.139
		c0.24-0.092,0.436-0.208,0.588-0.349c0.152-0.139,0.264-0.291,0.336-0.455s0.108-0.318,0.108-0.463V484.7
		C150.542,484.796,150.374,484.867,150.166,484.91z"/>
	<path display="inline" fill="#0072BC" d="M154.354,479.336v8.567h-1.02v-8.567H154.354z"/>
	<path display="inline" fill="#0072BC" d="M157.018,479.336v8.567h-1.02v-8.567H157.018z"/>
	<path display="inline" fill="#0072BC" d="M101.854,497v-0.9h1.044v-0.924c0-0.504,0.146-0.886,0.438-1.146
		c0.292-0.261,0.718-0.392,1.278-0.392c0.096,0,0.206,0.009,0.33,0.023c0.124,0.017,0.234,0.041,0.33,0.072v0.889
		c-0.088-0.032-0.184-0.055-0.288-0.066c-0.104-0.011-0.2-0.018-0.288-0.018c-0.248,0-0.44,0.048-0.576,0.144
		c-0.136,0.098-0.204,0.28-0.204,0.553v0.863h1.2V497h-1.2v5.305h-1.02V497H101.854z"/>
	<path display="inline" fill="#0072BC" d="M105.886,497.93c0.128-0.396,0.32-0.738,0.576-1.031c0.256-0.291,0.572-0.521,0.948-0.689
		s0.808-0.252,1.296-0.252c0.496,0,0.93,0.084,1.302,0.252c0.372,0.168,0.686,0.398,0.942,0.689
		c0.256,0.293,0.448,0.637,0.576,1.031c0.128,0.396,0.192,0.822,0.192,1.278c0,0.455-0.064,0.88-0.192,1.271
		c-0.128,0.394-0.32,0.734-0.576,1.026c-0.256,0.292-0.57,0.521-0.942,0.686c-0.372,0.162-0.806,0.244-1.302,0.244
		c-0.488,0-0.92-0.082-1.296-0.244c-0.376-0.164-0.692-0.394-0.948-0.686s-0.448-0.634-0.576-1.026
		c-0.128-0.392-0.192-0.815-0.192-1.271C105.694,498.752,105.758,498.326,105.886,497.93z M106.924,500.21
		c0.1,0.292,0.238,0.535,0.414,0.732c0.176,0.194,0.382,0.346,0.618,0.448c0.236,0.104,0.486,0.156,0.75,0.156
		s0.514-0.053,0.75-0.156c0.236-0.103,0.442-0.254,0.618-0.448c0.176-0.197,0.314-0.44,0.414-0.732c0.1-0.292,0.15-0.626,0.15-1.002
		c0-0.377-0.05-0.71-0.15-1.002c-0.1-0.293-0.238-0.538-0.414-0.738c-0.176-0.199-0.382-0.352-0.618-0.456
		c-0.236-0.104-0.486-0.156-0.75-0.156s-0.514,0.053-0.75,0.156c-0.236,0.104-0.442,0.257-0.618,0.456
		c-0.176,0.2-0.314,0.445-0.414,0.738c-0.1,0.292-0.15,0.625-0.15,1.002C106.774,499.584,106.824,499.918,106.924,500.21z"/>
	<path display="inline" fill="#0072BC" d="M113.842,496.1v1.309h0.024c0.248-0.504,0.552-0.875,0.912-1.115
		c0.36-0.24,0.816-0.352,1.368-0.336v1.08c-0.408,0-0.756,0.056-1.044,0.168c-0.288,0.111-0.521,0.275-0.696,0.492
		c-0.176,0.215-0.304,0.478-0.384,0.785c-0.08,0.309-0.12,0.661-0.12,1.062v2.76h-1.02V496.1H113.842z"/>
	<path display="inline" fill="#0072BC" d="M122.733,502.304v-6.096h-2.208v-0.816c0.288,0,0.568-0.021,0.84-0.065
		c0.272-0.043,0.518-0.125,0.738-0.246c0.22-0.119,0.406-0.283,0.558-0.491c0.152-0.208,0.256-0.472,0.312-0.792h0.78v8.508
		L122.733,502.304L122.733,502.304z"/>
	<path display="inline" fill="#0072BC" d="M130.678,495.044c-0.248-0.231-0.576-0.348-0.984-0.348c-0.432,0-0.78,0.104-1.044,0.316
		s-0.47,0.479-0.618,0.805c-0.148,0.324-0.25,0.674-0.306,1.051c-0.056,0.375-0.088,0.728-0.096,1.056l0.024,0.024
		c0.24-0.394,0.538-0.677,0.894-0.854c0.356-0.176,0.766-0.265,1.23-0.265c0.408,0,0.774,0.07,1.098,0.211
		c0.324,0.14,0.596,0.334,0.816,0.582c0.22,0.248,0.39,0.539,0.51,0.875c0.12,0.337,0.18,0.701,0.18,1.093
		c0,0.312-0.048,0.636-0.144,0.972c-0.096,0.336-0.254,0.644-0.474,0.918c-0.22,0.276-0.512,0.505-0.876,0.685
		c-0.364,0.181-0.814,0.271-1.35,0.271c-0.632,0-1.14-0.128-1.524-0.384c-0.384-0.256-0.68-0.584-0.888-0.983
		s-0.346-0.841-0.414-1.32s-0.102-0.943-0.102-1.393c0-0.583,0.05-1.148,0.15-1.697c0.1-0.547,0.27-1.033,0.51-1.457
		c0.24-0.424,0.56-0.765,0.96-1.021c0.4-0.256,0.904-0.384,1.512-0.384c0.704,0,1.264,0.186,1.68,0.558s0.656,0.91,0.72,1.614h-1.02
		C131.074,495.583,130.926,495.277,130.678,495.044z M128.83,497.882c-0.216,0.101-0.4,0.236-0.552,0.408
		c-0.152,0.172-0.266,0.376-0.342,0.611s-0.114,0.485-0.114,0.75c0,0.264,0.04,0.512,0.12,0.743c0.08,0.232,0.194,0.433,0.342,0.601
		s0.332,0.303,0.552,0.401c0.22,0.102,0.47,0.15,0.75,0.15c0.28,0,0.526-0.05,0.738-0.15c0.212-0.1,0.39-0.237,0.534-0.413
		c0.144-0.177,0.254-0.378,0.33-0.605c0.076-0.229,0.114-0.467,0.114-0.715c0-0.264-0.034-0.514-0.102-0.75
		c-0.068-0.235-0.174-0.439-0.318-0.611s-0.324-0.311-0.54-0.414c-0.216-0.103-0.468-0.155-0.756-0.155
		S129.046,497.783,128.83,497.882z"/>
	<path display="inline" fill="#0072BC" d="M134.65,496.1v0.842h0.024c0.168-0.346,0.432-0.596,0.792-0.75
		c0.36-0.156,0.756-0.234,1.188-0.234c0.48,0,0.898,0.088,1.254,0.264c0.356,0.177,0.652,0.414,0.888,0.714
		c0.236,0.301,0.414,0.646,0.534,1.038c0.12,0.394,0.18,0.81,0.18,1.248c0,0.439-0.058,0.855-0.174,1.248
		c-0.116,0.394-0.292,0.734-0.528,1.025c-0.236,0.293-0.532,0.521-0.888,0.689s-0.771,0.252-1.242,0.252
		c-0.152,0-0.322-0.017-0.51-0.048c-0.188-0.032-0.374-0.084-0.558-0.155c-0.184-0.072-0.358-0.171-0.522-0.295
		c-0.164-0.123-0.302-0.277-0.414-0.462h-0.024v3.191h-1.02V496.1H134.65z M138.316,498.302c-0.076-0.274-0.192-0.521-0.348-0.737
		c-0.156-0.217-0.356-0.389-0.6-0.517c-0.244-0.128-0.53-0.191-0.858-0.191c-0.344,0-0.636,0.067-0.876,0.203
		c-0.24,0.138-0.436,0.314-0.588,0.534c-0.152,0.221-0.262,0.471-0.33,0.75c-0.068,0.28-0.102,0.563-0.102,0.854
		c0,0.304,0.036,0.598,0.108,0.881c0.072,0.285,0.186,0.535,0.342,0.75c0.156,0.217,0.358,0.391,0.606,0.521
		c0.248,0.133,0.548,0.198,0.9,0.198s0.646-0.067,0.882-0.204c0.236-0.136,0.426-0.314,0.57-0.54
		c0.144-0.224,0.248-0.479,0.312-0.768c0.064-0.289,0.096-0.584,0.096-0.889C138.43,498.861,138.392,498.578,138.316,498.302z"/>
	<path display="inline" fill="#0072BC" d="M140.217,496.1h1.308l1.488,2.173l1.548-2.173h1.224l-2.136,2.856l2.4,3.348h-1.308
		l-1.728-2.567l-1.728,2.567h-1.236l2.328-3.264L140.217,496.1z"/>
	<path display="inline" fill="#0072BC" d="M150.225,498.488v0.961h-3.468v-0.961H150.225z"/>
	<path display="inline" fill="#0072BC" d="M154.077,502.304v-6.096h-2.208v-0.816c0.288,0,0.568-0.021,0.84-0.065
		c0.272-0.043,0.518-0.125,0.738-0.246c0.22-0.119,0.406-0.283,0.558-0.491c0.152-0.208,0.256-0.472,0.312-0.792h0.78v8.508
		L154.077,502.304L154.077,502.304z"/>
	<path display="inline" fill="#0072BC" d="M158.157,495.609c0.112-0.369,0.286-0.688,0.522-0.955
		c0.236-0.269,0.53-0.479,0.882-0.629c0.352-0.152,0.752-0.229,1.2-0.229c0.368,0,0.714,0.054,1.038,0.162
		c0.324,0.107,0.606,0.264,0.846,0.468c0.24,0.204,0.43,0.458,0.57,0.762c0.14,0.305,0.21,0.656,0.21,1.057
		c0,0.377-0.058,0.709-0.174,0.996c-0.116,0.289-0.27,0.547-0.462,0.773c-0.192,0.228-0.412,0.436-0.66,0.618
		c-0.248,0.184-0.504,0.359-0.768,0.527c-0.264,0.16-0.528,0.317-0.792,0.475c-0.264,0.156-0.506,0.322-0.726,0.498
		c-0.22,0.176-0.408,0.365-0.564,0.57c-0.156,0.203-0.258,0.438-0.306,0.701h4.368v0.899h-5.556c0.04-0.504,0.13-0.934,0.27-1.29
		c0.14-0.355,0.318-0.666,0.534-0.931c0.216-0.264,0.46-0.495,0.732-0.695c0.271-0.199,0.556-0.388,0.852-0.563
		c0.36-0.225,0.676-0.431,0.948-0.617c0.272-0.188,0.498-0.379,0.678-0.57c0.18-0.19,0.316-0.399,0.408-0.624
		c0.092-0.224,0.138-0.482,0.138-0.779c0-0.231-0.044-0.441-0.132-0.631c-0.088-0.188-0.206-0.35-0.354-0.484
		c-0.148-0.137-0.322-0.24-0.522-0.312c-0.2-0.071-0.412-0.106-0.636-0.106c-0.296,0-0.55,0.062-0.762,0.186
		s-0.386,0.286-0.522,0.486c-0.136,0.199-0.234,0.426-0.294,0.678s-0.086,0.506-0.078,0.762h-1.02
		C158.001,496.376,158.045,495.976,158.157,495.609z"/>
	<path display="inline" fill="#0072BC" d="M164.697,497.156c0.016-0.336,0.056-0.664,0.12-0.983s0.156-0.624,0.276-0.912
		c0.12-0.288,0.284-0.54,0.492-0.756s0.47-0.388,0.786-0.517c0.316-0.127,0.694-0.191,1.134-0.191s0.818,0.064,1.134,0.191
		c0.316,0.129,0.578,0.301,0.786,0.517s0.372,0.468,0.492,0.756s0.212,0.593,0.276,0.912s0.104,0.647,0.12,0.983
		s0.024,0.66,0.024,0.973c0,0.313-0.008,0.636-0.024,0.972s-0.056,0.664-0.12,0.983c-0.064,0.32-0.156,0.623-0.276,0.906
		c-0.12,0.285-0.284,0.535-0.492,0.75c-0.208,0.217-0.468,0.387-0.78,0.51c-0.312,0.125-0.692,0.188-1.14,0.188
		c-0.44,0-0.818-0.062-1.134-0.188c-0.316-0.123-0.578-0.293-0.786-0.51c-0.208-0.215-0.372-0.465-0.492-0.75
		c-0.12-0.283-0.212-0.586-0.276-0.906c-0.064-0.319-0.104-0.647-0.12-0.983c-0.016-0.336-0.024-0.658-0.024-0.972
		C164.673,497.816,164.681,497.492,164.697,497.156z M165.783,499.191c0.02,0.396,0.084,0.768,0.192,1.114
		c0.108,0.348,0.282,0.644,0.522,0.882c0.24,0.24,0.576,0.36,1.008,0.36c0.432,0,0.768-0.12,1.008-0.36
		c0.24-0.238,0.414-0.533,0.522-0.882c0.108-0.348,0.172-0.72,0.192-1.114c0.02-0.396,0.03-0.756,0.03-1.074
		c0-0.209-0.002-0.438-0.006-0.69s-0.024-0.504-0.06-0.756c-0.036-0.253-0.088-0.498-0.156-0.738c-0.068-0.238-0.168-0.449-0.3-0.63
		c-0.132-0.18-0.298-0.326-0.498-0.438c-0.2-0.112-0.444-0.168-0.732-0.168s-0.532,0.056-0.732,0.168
		c-0.2,0.11-0.366,0.258-0.498,0.438c-0.132,0.181-0.232,0.392-0.3,0.63c-0.068,0.24-0.12,0.485-0.156,0.738
		c-0.036,0.252-0.056,0.504-0.06,0.756c-0.004,0.252-0.006,0.481-0.006,0.69C165.753,498.436,165.763,498.794,165.783,499.191z"/>
	<path display="inline" fill="#0072BC" d="M172.666,496.1v0.842h0.024c0.168-0.346,0.432-0.596,0.792-0.75
		c0.36-0.156,0.756-0.234,1.188-0.234c0.48,0,0.898,0.088,1.254,0.264c0.356,0.177,0.652,0.414,0.888,0.714
		c0.236,0.301,0.414,0.646,0.534,1.038c0.12,0.394,0.18,0.81,0.18,1.248c0,0.439-0.058,0.855-0.174,1.248
		c-0.116,0.394-0.292,0.734-0.528,1.025c-0.236,0.293-0.532,0.521-0.888,0.689s-0.771,0.252-1.242,0.252
		c-0.152,0-0.322-0.017-0.51-0.048c-0.188-0.032-0.374-0.084-0.558-0.155c-0.184-0.072-0.358-0.171-0.522-0.295
		c-0.164-0.123-0.302-0.277-0.414-0.462h-0.024v3.191h-1.02V496.1H172.666z M176.332,498.302c-0.076-0.274-0.192-0.521-0.348-0.737
		c-0.156-0.217-0.356-0.389-0.6-0.517c-0.244-0.128-0.53-0.191-0.858-0.191c-0.344,0-0.636,0.067-0.876,0.203
		c-0.24,0.138-0.436,0.314-0.588,0.534c-0.152,0.221-0.262,0.471-0.33,0.75c-0.068,0.28-0.102,0.563-0.102,0.854
		c0,0.304,0.036,0.598,0.108,0.881c0.072,0.285,0.186,0.535,0.342,0.75c0.156,0.217,0.358,0.391,0.606,0.521
		c0.248,0.133,0.548,0.198,0.9,0.198s0.646-0.067,0.882-0.204c0.236-0.136,0.426-0.314,0.57-0.54
		c0.144-0.224,0.248-0.479,0.312-0.768c0.064-0.289,0.096-0.584,0.096-0.889C176.445,498.861,176.407,498.578,176.332,498.302z"/>
	<path display="inline" fill="#0072BC" d="M178.233,496.1h1.308l1.488,2.173l1.548-2.173h1.224l-2.136,2.856l2.4,3.348h-1.308
		l-1.728-2.567l-1.728,2.567h-1.236l2.328-3.264L178.233,496.1z"/>
</g>
<g display="none">
	<path display="inline" fill="#0072BC" d="M335.633,479.335v7.607h4.536v0.961h-5.676v-8.568H335.633z"/>
	<path display="inline" fill="#0072BC" d="M345.761,488.035c-0.264,0-0.475-0.073-0.631-0.221c-0.155-0.148-0.233-0.392-0.233-0.728
		c-0.279,0.336-0.605,0.578-0.978,0.728c-0.373,0.146-0.774,0.221-1.207,0.221c-0.279,0-0.543-0.029-0.791-0.09
		s-0.467-0.16-0.654-0.299c-0.188-0.142-0.336-0.32-0.442-0.541c-0.109-0.221-0.162-0.486-0.162-0.799c0-0.352,0.06-0.64,0.18-0.863
		c0.119-0.225,0.277-0.405,0.475-0.545c0.195-0.142,0.42-0.246,0.672-0.318s0.511-0.133,0.773-0.18
		c0.279-0.058,0.546-0.1,0.798-0.127c0.253-0.027,0.475-0.067,0.666-0.119c0.192-0.054,0.345-0.129,0.456-0.229
		c0.111-0.1,0.168-0.246,0.168-0.438c0-0.226-0.042-0.404-0.126-0.541c-0.084-0.136-0.191-0.239-0.323-0.312
		c-0.133-0.071-0.28-0.12-0.444-0.144c-0.164-0.024-0.326-0.037-0.485-0.037c-0.433,0-0.792,0.083-1.08,0.246
		c-0.288,0.164-0.443,0.475-0.468,0.931h-1.021c0.017-0.384,0.097-0.708,0.239-0.972c0.144-0.264,0.336-0.479,0.575-0.644
		c0.24-0.164,0.518-0.28,0.828-0.354c0.312-0.072,0.641-0.108,0.984-0.108c0.279,0,0.559,0.021,0.834,0.061
		c0.275,0.041,0.525,0.123,0.75,0.246c0.225,0.125,0.403,0.299,0.54,0.521c0.136,0.223,0.204,0.518,0.204,0.876v3.191
		c0,0.24,0.014,0.416,0.042,0.528c0.027,0.111,0.122,0.168,0.281,0.168c0.089,0,0.191-0.021,0.312-0.061v0.792
		C346.317,487.984,346.074,488.035,345.761,488.035z M344.333,484.91c-0.209,0.044-0.426,0.08-0.654,0.106
		c-0.229,0.028-0.459,0.062-0.689,0.097c-0.231,0.037-0.44,0.095-0.624,0.174c-0.185,0.08-0.334,0.195-0.449,0.343
		c-0.117,0.147-0.174,0.352-0.174,0.606c0,0.168,0.033,0.31,0.102,0.426c0.067,0.115,0.156,0.209,0.265,0.281
		c0.107,0.071,0.235,0.125,0.385,0.155c0.146,0.032,0.297,0.05,0.449,0.05c0.336,0,0.624-0.048,0.863-0.14s0.437-0.208,0.589-0.348
		c0.15-0.142,0.265-0.293,0.336-0.457c0.07-0.163,0.107-0.317,0.107-0.461v-1.045C344.708,484.795,344.541,484.865,344.333,484.91z"
		/>
	<path display="inline" fill="#0072BC" d="M348.365,481.699v1.309h0.022c0.248-0.504,0.554-0.876,0.912-1.116
		c0.36-0.238,0.816-0.352,1.369-0.336v1.08c-0.408,0-0.756,0.057-1.045,0.168c-0.287,0.112-0.521,0.276-0.695,0.492
		s-0.305,0.479-0.385,0.786s-0.119,0.662-0.119,1.062v2.761h-1.021v-6.205H348.365L348.365,481.699z"/>
	<path display="inline" fill="#0072BC" d="M355.757,489.656c-0.465,0.504-1.191,0.756-2.184,0.756c-0.289,0-0.582-0.032-0.883-0.096
		c-0.301-0.064-0.572-0.168-0.816-0.312c-0.244-0.144-0.445-0.332-0.605-0.563c-0.159-0.232-0.247-0.517-0.264-0.853h1.021
		c0.008,0.185,0.065,0.34,0.174,0.468c0.107,0.128,0.24,0.231,0.396,0.312c0.156,0.081,0.326,0.139,0.511,0.175
		c0.184,0.036,0.358,0.054,0.526,0.054c0.337,0,0.621-0.059,0.854-0.174c0.23-0.116,0.425-0.274,0.575-0.479
		c0.151-0.203,0.263-0.449,0.33-0.738c0.067-0.287,0.104-0.604,0.104-0.947v-0.408h-0.024c-0.177,0.386-0.441,0.666-0.798,0.847
		c-0.355,0.181-0.734,0.271-1.135,0.271c-0.464,0-0.867-0.084-1.211-0.252c-0.346-0.168-0.633-0.394-0.865-0.679
		c-0.23-0.283-0.406-0.615-0.521-0.996c-0.116-0.379-0.175-0.781-0.175-1.205c0-0.368,0.049-0.746,0.146-1.135
		c0.096-0.388,0.256-0.739,0.479-1.057c0.225-0.314,0.521-0.574,0.889-0.779c0.367-0.203,0.819-0.307,1.354-0.307
		c0.394,0,0.752,0.087,1.08,0.26c0.328,0.172,0.584,0.43,0.77,0.772h0.013v-0.889h0.959v5.677
		C356.453,488.391,356.22,489.152,355.757,489.656z M354.455,486.865c0.236-0.14,0.426-0.323,0.57-0.551
		c0.145-0.229,0.25-0.486,0.317-0.774s0.103-0.576,0.103-0.864c0-0.271-0.031-0.54-0.097-0.805
		c-0.063-0.264-0.166-0.502-0.307-0.713c-0.14-0.213-0.322-0.383-0.545-0.51c-0.226-0.13-0.496-0.193-0.816-0.193
		c-0.328,0-0.607,0.062-0.84,0.187c-0.231,0.124-0.422,0.29-0.57,0.498c-0.147,0.208-0.256,0.448-0.323,0.721
		c-0.068,0.271-0.103,0.557-0.103,0.853c0,0.28,0.027,0.561,0.084,0.84c0.057,0.28,0.152,0.534,0.287,0.764
		c0.137,0.228,0.316,0.411,0.541,0.551c0.224,0.141,0.504,0.211,0.84,0.211S354.218,487.005,354.455,486.865z"/>
	<path display="inline" fill="#0072BC" d="M362.38,487.507c-0.464,0.353-1.048,0.527-1.752,0.527c-0.496,0-0.926-0.08-1.289-0.239
		c-0.365-0.16-0.671-0.384-0.918-0.672c-0.248-0.288-0.435-0.632-0.559-1.032c-0.124-0.399-0.194-0.836-0.21-1.309
		c0-0.472,0.07-0.903,0.216-1.295c0.145-0.394,0.346-0.732,0.604-1.021c0.26-0.289,0.568-0.512,0.926-0.672
		c0.354-0.16,0.744-0.24,1.17-0.24c0.552,0,1.01,0.114,1.374,0.343c0.362,0.229,0.655,0.519,0.876,0.869
		c0.22,0.354,0.372,0.736,0.456,1.152s0.116,0.812,0.102,1.188h-4.644c-0.01,0.272,0.023,0.53,0.096,0.774s0.188,0.46,0.349,0.647
		c0.159,0.188,0.363,0.338,0.611,0.45c0.248,0.111,0.54,0.168,0.876,0.168c0.433,0,0.786-0.101,1.062-0.301
		c0.277-0.199,0.459-0.504,0.548-0.912h1.008C363.144,486.631,362.845,487.156,362.38,487.507z M362.134,483.523
		c-0.092-0.217-0.215-0.402-0.371-0.559c-0.155-0.156-0.341-0.28-0.553-0.372s-0.445-0.139-0.701-0.139
		c-0.265,0-0.503,0.047-0.715,0.139s-0.395,0.219-0.546,0.378c-0.151,0.16-0.272,0.348-0.36,0.559
		c-0.088,0.213-0.14,0.438-0.154,0.679h3.562C362.281,483.967,362.226,483.74,362.134,483.523z"/>
	<path display="inline" fill="#0072BC" d="M365.357,481.699v1.309h0.022c0.248-0.504,0.553-0.876,0.912-1.116
		c0.359-0.238,0.816-0.352,1.368-0.336v1.08c-0.408,0-0.756,0.057-1.044,0.168c-0.288,0.112-0.521,0.276-0.696,0.492
		s-0.304,0.479-0.384,0.786s-0.12,0.662-0.12,1.062v2.761h-1.021v-6.205H365.357L365.357,481.699z"/>
	<path display="inline" fill="#0072BC" d="M318.257,497v-0.9h1.044v-0.924c0-0.504,0.146-0.887,0.438-1.146
		c0.291-0.261,0.717-0.391,1.276-0.391c0.097,0,0.206,0.01,0.33,0.024s0.234,0.039,0.33,0.072v0.887
		c-0.088-0.031-0.184-0.053-0.288-0.065c-0.104-0.012-0.2-0.019-0.288-0.019c-0.248,0-0.438,0.049-0.575,0.145
		c-0.137,0.097-0.203,0.28-0.203,0.554v0.862h1.198v0.9h-1.198v5.304H319.3V497H318.257z"/>
	<path display="inline" fill="#0072BC" d="M322.289,497.929c0.129-0.396,0.32-0.739,0.576-1.03c0.256-0.293,0.571-0.523,0.947-0.691
		c0.377-0.168,0.809-0.252,1.297-0.252c0.496,0,0.93,0.084,1.303,0.252c0.371,0.168,0.686,0.398,0.94,0.691
		c0.257,0.291,0.447,0.635,0.576,1.03c0.128,0.396,0.191,0.822,0.191,1.277c0,0.457-0.063,0.881-0.191,1.271
		c-0.129,0.393-0.319,0.734-0.576,1.026c-0.256,0.292-0.569,0.521-0.94,0.684c-0.373,0.164-0.807,0.246-1.303,0.246
		c-0.488,0-0.92-0.082-1.297-0.246c-0.375-0.163-0.691-0.392-0.947-0.684s-0.447-0.635-0.576-1.026
		c-0.127-0.392-0.191-0.814-0.191-1.271C322.097,498.751,322.162,498.326,322.289,497.929z M323.328,500.208
		c0.1,0.293,0.237,0.537,0.414,0.732c0.176,0.195,0.381,0.346,0.617,0.449c0.235,0.104,0.485,0.156,0.75,0.156
		c0.264,0,0.514-0.052,0.75-0.156c0.235-0.104,0.44-0.254,0.617-0.449s0.313-0.439,0.414-0.732c0.102-0.291,0.149-0.625,0.149-1.002
		c0-0.375-0.049-0.709-0.149-1.002c-0.101-0.291-0.237-0.537-0.414-0.737s-0.382-0.353-0.617-0.456
		c-0.236-0.103-0.486-0.155-0.75-0.155c-0.265,0-0.515,0.053-0.75,0.155c-0.236,0.104-0.441,0.256-0.617,0.456
		c-0.177,0.2-0.314,0.446-0.414,0.737c-0.102,0.293-0.15,0.627-0.15,1.002C323.177,499.583,323.227,499.917,323.328,500.208z"/>
	<path display="inline" fill="#0072BC" d="M330.246,496.099v1.31h0.022c0.248-0.504,0.554-0.877,0.912-1.117
		c0.359-0.239,0.816-0.352,1.368-0.336v1.08c-0.408,0-0.756,0.057-1.044,0.168c-0.288,0.113-0.521,0.275-0.696,0.492
		s-0.304,0.479-0.384,0.787c-0.08,0.307-0.12,0.66-0.12,1.062v2.76h-1.021V496.1L330.246,496.099L330.246,496.099z"/>
	<path display="inline" fill="#0072BC" d="M339.136,502.303v-6.097h-2.207v-0.815c0.287,0,0.567-0.021,0.84-0.064
		c0.271-0.045,0.519-0.127,0.738-0.246c0.219-0.121,0.405-0.284,0.559-0.492c0.15-0.208,0.256-0.473,0.312-0.792h0.78v8.508
		L339.136,502.303L339.136,502.303z"/>
	<path display="inline" fill="#0072BC" d="M343.217,495.607c0.112-0.367,0.286-0.687,0.522-0.953
		c0.234-0.27,0.528-0.479,0.881-0.631s0.752-0.229,1.201-0.229c0.367,0,0.713,0.054,1.037,0.161
		c0.323,0.109,0.605,0.265,0.846,0.469s0.431,0.458,0.57,0.762c0.141,0.306,0.211,0.656,0.211,1.058c0,0.375-0.06,0.707-0.176,0.996
		c-0.115,0.287-0.271,0.545-0.462,0.772c-0.19,0.229-0.412,0.435-0.659,0.618c-0.248,0.185-0.505,0.36-0.769,0.528
		c-0.264,0.16-0.528,0.316-0.793,0.474c-0.264,0.155-0.506,0.322-0.725,0.498c-0.222,0.176-0.408,0.366-0.564,0.569
		c-0.156,0.205-0.258,0.438-0.307,0.703h4.369v0.898h-5.558c0.04-0.504,0.13-0.935,0.271-1.29c0.141-0.354,0.317-0.666,0.533-0.93
		c0.217-0.264,0.461-0.496,0.732-0.696s0.556-0.388,0.852-0.562c0.36-0.226,0.678-0.432,0.948-0.619
		c0.271-0.188,0.498-0.377,0.679-0.569c0.18-0.191,0.315-0.398,0.407-0.624c0.093-0.225,0.14-0.483,0.14-0.778
		c0-0.232-0.045-0.443-0.134-0.632c-0.088-0.188-0.205-0.35-0.354-0.485c-0.148-0.135-0.322-0.24-0.522-0.312
		c-0.199-0.071-0.411-0.107-0.636-0.107c-0.297,0-0.551,0.062-0.762,0.187c-0.213,0.124-0.387,0.286-0.522,0.485
		c-0.136,0.201-0.232,0.427-0.294,0.679c-0.061,0.252-0.086,0.506-0.078,0.762h-1.02
		C343.061,496.375,343.105,495.975,343.217,495.607z"/>
	<path display="inline" fill="#0072BC" d="M349.757,497.156c0.017-0.336,0.056-0.664,0.119-0.984
		c0.064-0.32,0.156-0.624,0.276-0.912c0.119-0.288,0.283-0.54,0.491-0.756c0.208-0.217,0.471-0.389,0.786-0.516
		c0.316-0.129,0.693-0.192,1.135-0.192c0.44,0,0.816,0.063,1.134,0.192c0.315,0.127,0.578,0.299,0.786,0.516
		c0.208,0.216,0.372,0.468,0.491,0.756c0.12,0.288,0.213,0.592,0.276,0.912s0.104,0.648,0.119,0.984
		c0.017,0.336,0.023,0.66,0.023,0.972c0,0.312-0.008,0.636-0.023,0.972s-0.056,0.664-0.119,0.984s-0.156,0.622-0.276,0.906
		c-0.119,0.283-0.283,0.533-0.491,0.75c-0.208,0.215-0.469,0.386-0.78,0.51c-0.312,0.123-0.691,0.186-1.14,0.186
		c-0.44,0-0.817-0.062-1.135-0.186c-0.315-0.124-0.578-0.295-0.786-0.51c-0.208-0.217-0.372-0.467-0.491-0.75
		c-0.12-0.284-0.212-0.586-0.276-0.906c-0.063-0.32-0.104-0.648-0.119-0.984c-0.017-0.336-0.023-0.659-0.023-0.972
		C349.733,497.816,349.741,497.492,349.757,497.156z M350.843,499.189c0.021,0.396,0.084,0.768,0.191,1.115
		c0.107,0.35,0.282,0.643,0.521,0.882c0.239,0.24,0.575,0.36,1.009,0.36c0.433,0,0.769-0.12,1.009-0.36
		c0.239-0.239,0.413-0.532,0.521-0.882c0.107-0.349,0.172-0.72,0.191-1.115c0.02-0.396,0.03-0.755,0.03-1.074
		c0-0.207-0.003-0.438-0.007-0.689c-0.005-0.252-0.023-0.504-0.06-0.756c-0.037-0.252-0.088-0.498-0.156-0.738
		c-0.067-0.239-0.168-0.448-0.301-0.63c-0.131-0.181-0.297-0.325-0.498-0.438c-0.199-0.111-0.443-0.168-0.73-0.168
		c-0.288,0-0.532,0.057-0.731,0.168c-0.201,0.112-0.367,0.258-0.498,0.438c-0.133,0.182-0.232,0.391-0.301,0.63
		c-0.069,0.24-0.119,0.486-0.156,0.738c-0.035,0.252-0.056,0.504-0.06,0.756s-0.007,0.482-0.007,0.689
		C350.812,498.435,350.823,498.793,350.843,499.189z"/>
	<path display="inline" fill="#0072BC" d="M357.725,496.099v0.841h0.024c0.168-0.345,0.432-0.595,0.791-0.75
		c0.36-0.156,0.756-0.234,1.188-0.234c0.479,0,0.897,0.089,1.255,0.265c0.355,0.178,0.65,0.414,0.888,0.714
		c0.235,0.302,0.414,0.646,0.534,1.038c0.12,0.393,0.181,0.809,0.181,1.248c0,0.44-0.059,0.856-0.175,1.248
		c-0.116,0.393-0.292,0.733-0.528,1.026c-0.235,0.291-0.531,0.521-0.887,0.688c-0.357,0.168-0.771,0.252-1.242,0.252
		c-0.152,0-0.322-0.016-0.511-0.048c-0.189-0.032-0.374-0.084-0.559-0.154c-0.184-0.072-0.357-0.171-0.521-0.296
		c-0.164-0.122-0.303-0.276-0.414-0.462h-0.024v3.192h-1.021v-8.568H357.725L357.725,496.099z M361.391,498.301
		c-0.075-0.275-0.191-0.521-0.349-0.738c-0.157-0.216-0.355-0.388-0.6-0.516c-0.245-0.128-0.53-0.191-0.857-0.191
		c-0.345,0-0.637,0.067-0.877,0.203c-0.24,0.137-0.437,0.313-0.588,0.534c-0.152,0.222-0.262,0.472-0.33,0.75
		c-0.068,0.28-0.103,0.564-0.103,0.853c0,0.305,0.036,0.599,0.107,0.883c0.072,0.283,0.188,0.533,0.342,0.75
		c0.156,0.216,0.358,0.39,0.607,0.521c0.247,0.134,0.547,0.198,0.898,0.198c0.353,0,0.646-0.066,0.883-0.204
		c0.235-0.136,0.426-0.315,0.569-0.54c0.145-0.224,0.248-0.479,0.312-0.769c0.062-0.287,0.097-0.584,0.097-0.888
		C361.505,498.859,361.466,498.578,361.391,498.301z"/>
	<path display="inline" fill="#0072BC" d="M363.292,496.099h1.309l1.487,2.173l1.548-2.173h1.226l-2.138,2.855l2.4,3.349h-1.309
		l-1.729-2.566l-1.728,2.566h-1.236l2.328-3.265L363.292,496.099z"/>
	<path display="inline" fill="#0072BC" d="M379.193,498.859v0.815h-2.616v2.628h-0.815v-2.628h-2.615v-0.815h2.615v-2.627h0.815
		v2.627H379.193z"/>
</g>
</svg>
