<?xml version="1.0" encoding="utf-8"?>
<!-- Generator: Adobe Illustrator 16.0.0, SVG Export Plug-In . SVG Version: 6.00 Build 0)  -->
<!DOCTYPE svg PUBLIC "-//W3C//DTD SVG 1.1//EN" "http://www.w3.org/Graphics/SVG/1.1/DTD/svg11.dtd">
<svg version="1.1" id="Layer_1" xmlns="http://www.w3.org/2000/svg" xmlns:xlink="http://www.w3.org/1999/xlink" x="0px" y="0px"
	 width="512px" height="512px" viewBox="0 0 512 512" enable-background="new 0 0 512 512" xml:space="preserve">
<g>
	<path d="M36.87,328.201c-40.622-26.918-46.087-75.156-24.675-109.193c18.06-28.741,59.475-48.646,103.667-22.652
		c38.242-21.977,80.045-32.906,125.199-35.624c12.833-36.725,25.716-73.588,38.946-111.483c27.927,5.465,55.062,13.399,83.505,19.25
		c11.703-15.501,26.579-26.361,47.049-27.234c13.666-0.575,26.104,3.005,37.052,11.247c22.454,16.939,30.129,45.928,18.725,70.643
		c-11.028,23.812-35.168,38.549-64.227,33.432c-28.581-5.038-46.135-28.612-47.405-63.065c-18.586-4.483-37.488-9.035-56.272-13.547
		c-4.264,6.396-24.714,63.393-28.959,80.619c45.205,2.172,88.146,12.467,128.393,35.158c20.231-12.109,41.872-15.075,64.662-6.764
		c16.542,6.03,29.118,16.84,38.163,31.786c19.993,33.084,14.558,78.804-22.731,105.84c-1.052,5.058-1.944,10.71-3.373,16.244
		c-7.061,27.035-22.056,49.212-42.684,67.597c-34.275,30.587-75.097,47.208-119.804,55.559c-25.805,4.8-51.81,5.753-77.822,3.889
		c-50.174-3.61-96.885-17.852-137.775-48.161c-26.459-19.675-46.572-44.073-55.706-76.404
		C39.29,339.783,38.238,334.15,36.87,328.201z M246.913,444.75c2.35,0.12,4.73,0.339,7.08,0.318
		c33.036-0.179,65.406-4.562,96.527-15.927c28.622-10.455,54.507-25.329,75.116-48.357c33.084-36.954,35.245-85.233,5.751-123.267
		c-14.599-18.853-32.965-32.846-53.951-43.627c-32.053-16.473-66.248-24.615-102.11-26.916
		c-42.188-2.677-82.95,3.233-122.035,19.379C124.063,218.433,98.497,235.7,79.951,262c-11.613,16.494-17.871,34.921-17.485,55.093
		c0.467,24.753,10.583,45.78,26.907,63.987c22.086,24.597,50.034,39.868,80.946,50.143
		C195.134,439.515,220.73,443.957,246.913,444.75z M445.411,99.234c-0.059-18.06-14.162-31.687-32.351-31.974
		c-15.352-0.238-31.934,11.821-32.291,32.212c-0.318,17.593,14.718,31.954,32.568,31.915
		C431.468,131.348,445.471,117.285,445.411,99.234z M90.92,214.03c-22.176-8.47-45.353,0.06-57.501,19.617
		c-12.328,19.885-8.628,50.203,5.157,60.28C45.667,261.107,64.331,235.739,90.92,214.03z M424.604,212.592
		c10.692,12.08,21.642,23.495,31.459,35.822c9.917,12.417,15.035,27.502,19.896,43.052c13.627-16.226,13.149-43.716,0.178-61.102
		C463.601,213.564,444.042,206.661,424.604,212.592z"/>
	<path d="M255.055,414.385c-28.335-0.1-53.901-8.749-77.753-23.286c-2.847-1.727-5.524-3.988-7.677-6.487
		c-3.64-4.284-3.511-10.531-0.268-15.035c3.194-4.443,9.263-6.665,14.38-4.562c3.72,1.507,7.131,3.848,10.543,6.028
		c19.092,12.161,40.215,17.476,62.56,17.197c19.876-0.296,38.48-6.406,55.835-16.145c3.532-2.004,6.924-4.225,10.572-5.972
		c7.3-3.45,14.163-1.527,17.614,4.603c3.293,5.911,1.409,13.765-4.959,17.674c-16.482,10.096-33.601,18.862-52.84,22.354
		C273.839,412.419,264.396,413.214,255.055,414.385z"/>
	<path d="M213.946,289.046c0.139,19.041-14.628,34.374-33.412,34.711c-19.18,0.356-35.178-14.994-35.504-33.997
		c-0.308-18.684,15.947-34.989,34.79-34.949C198.445,254.87,213.817,270.281,213.946,289.046z"/>
	<path d="M362.402,289.403c0,19.081-14.798,34.195-33.7,34.354c-19.101,0.219-35.128-15.431-35.128-34.354
		c-0.039-18.705,16.345-34.831,35.128-34.573C347.467,255.079,362.402,270.4,362.402,289.403z"/>
</g>
</svg>
